<?xml version="1.0" encoding="UTF-8"?>
<svg version="1.1" xmlns="http://www.w3.org/2000/svg" width="280" height="280">
<path d="M0 0 C3.6875 1.5 3.6875 1.5 4.6875 3.5 C4.83925549 5.09262066 4.93650325 6.69064856 5.00390625 8.2890625 C5.06674805 9.70058594 5.06674805 9.70058594 5.13085938 11.140625 C5.17017578 12.12546875 5.20949219 13.1103125 5.25 14.125 C5.31477539 15.61386719 5.31477539 15.61386719 5.38085938 17.1328125 C5.48711069 19.58839838 5.58914964 22.04408703 5.6875 24.5 C12.46142995 23.90053717 16.78283455 21.37366233 22.50390625 17.8984375 C26.3014735 16.23030366 27.79345105 16.11989569 31.6875 17.5 C33.8656274 19.27150571 35.66761776 20.91131478 37.5625 22.9375 C38.06007812 23.44087891 38.55765625 23.94425781 39.0703125 24.46289062 C42.6875 28.20429473 42.6875 28.20429473 42.6875 30.5 C43.3475 30.5 44.0075 30.5 44.6875 30.5 C45.50528571 33.6648307 46.18268378 36.28754626 44.91015625 39.40332031 C43.73561866 41.36528579 42.4952295 43.24918975 41.1875 45.125 C37.66796534 49.8598037 37.66796534 49.8598037 36.90625 55.4609375 C37.29296875 56.47027344 37.29296875 56.47027344 37.6875 57.5 C38.28175781 57.48839844 38.87601563 57.47679687 39.48828125 57.46484375 C44.20628243 57.41348137 48.91399443 57.47990235 53.625 57.75 C54.52089844 57.79640625 55.41679687 57.8428125 56.33984375 57.890625 C58.6875 58.5 58.6875 58.5 60.39453125 60.05859375 C62.13737212 63.34945642 62.80067961 66.68262379 63.4375 70.3125 C63.57542969 70.99892578 63.71335938 71.68535156 63.85546875 72.39257812 C64.69596254 76.97196952 65.20455466 81.007389 63.6875 85.5 C61.07279439 87.66094825 58.19207936 89.02097741 55.125 90.4375 C53.91553711 91.03401367 53.91553711 91.03401367 52.68164062 91.64257812 C50.69369777 92.61890509 48.69724841 93.56961386 46.6875 94.5 C46.15728596 96.78110339 46.15728596 96.78110339 46.6875 99.5 C48.77161471 101.45627315 50.6776408 103.01094802 53 104.625 C61.47483437 110.74010259 61.47483437 110.74010259 62.6875 112.5 C63.36412352 117.54193654 61.79163928 121.60659618 59.875 126.1875 C59.61396484 126.85072266 59.35292969 127.51394531 59.08398438 128.19726562 C56.34376464 134.91587846 56.34376464 134.91587846 53.6875 136.5 C50.578125 136.609375 50.578125 136.609375 46.9375 136.25 C45.69226563 136.13269531 44.44703125 136.01539063 43.1640625 135.89453125 C39.6551513 135.49632897 36.17063146 135.08052191 32.6875 134.5 C30.56812957 140.15165449 30.64443919 142.76830029 33.0625 148.5 C35.09968242 153.38052259 36.66548292 157.20458027 35.6875 162.5 C33.47751363 165.14434983 30.86883685 167.02426022 28.0625 169 C27.34964844 169.54914063 26.63679687 170.09828125 25.90234375 170.6640625 C22.66180859 173.03054505 20.60164425 174.45236469 16.5390625 174.6640625 C12.31179777 172.93841197 9.40711502 170.04535521 6.1875 166.91796875 C3.43759083 164.41870235 2.22415411 163.47806942 -1.5625 163.6328125 C-4.23807973 164.3971574 -4.23807973 164.3971574 -6.3125 165.5 C-6.91700418 167.2804278 -6.91700418 167.2804278 -7.27734375 169.4296875 C-7.43783203 170.22503906 -7.59832031 171.02039063 -7.76367188 171.83984375 C-8.08630678 173.52169156 -8.40664281 175.20398211 -8.72460938 176.88671875 C-8.88638672 177.68464844 -9.04816406 178.48257813 -9.21484375 179.3046875 C-9.35398193 180.03671387 -9.49312012 180.76874023 -9.63647461 181.52294922 C-10.45432568 183.91477226 -11.31784127 184.95744847 -13.3125 186.5 C-17.52336915 187.96757795 -21.96243555 187.79789403 -26.375 187.875 C-27.19033203 187.91238281 -28.00566406 187.94976562 -28.84570312 187.98828125 C-31.10290755 188.02166636 -33.1065829 187.98213764 -35.3125 187.5 C-37.234375 185.32421875 -37.234375 185.32421875 -38.3125 182.5 C-38.69792969 181.59121094 -39.08335937 180.68242187 -39.48046875 179.74609375 C-39.81691406 178.81925781 -40.15335937 177.89242187 -40.5 176.9375 C-40.84417969 176.00808594 -41.18835938 175.07867187 -41.54296875 174.12109375 C-42.3125 171.5 -42.3125 171.5 -42.3125 167.5 C-45.36701042 166.71682525 -48.15662389 166.26620781 -51.3125 166.5 C-54.05597581 168.18623038 -55.91338247 170.45821031 -57.9375 172.9375 C-63.23659355 179.29247729 -63.23659355 179.29247729 -67.71484375 180.15625 C-74.60336632 178.89971168 -81.14725728 175.24629027 -86.3125 170.5 C-87.92286879 167.17971235 -87.36207716 164.95181794 -86.3125 161.5 C-86.06113281 160.55253906 -85.80976562 159.60507813 -85.55078125 158.62890625 C-85.03479225 156.73359055 -84.47768221 154.8487612 -83.87109375 152.98046875 C-83.25696846 150.2534089 -83.20078334 149.04919215 -84.3125 146.5 C-85.80386834 144.03974137 -85.80386834 144.03974137 -88.3125 142.5 C-91.01243998 142.70721887 -93.1157582 143.05643971 -95.6875 143.75 C-104.97346203 146.06224154 -104.97346203 146.06224154 -109.3125 145.5 C-114.63458641 141.489291 -118.62714193 133.68907634 -119.6953125 127.16015625 C-119.6875 125.25 -119.6875 125.25 -119.3125 122.5 C-118.6525 122.5 -117.9925 122.5 -117.3125 122.5 C-117.3125 121.84 -117.3125 121.18 -117.3125 120.5 C-115.66796875 118.87890625 -115.66796875 118.87890625 -113.5 117.0625 C-112.09906679 115.88102081 -110.7029923 114.6937496 -109.3125 113.5 C-108.7246875 113.02820313 -108.136875 112.55640625 -107.53125 112.0703125 C-106.09212226 110.53316867 -106.09212226 110.53316867 -106.23828125 108.23828125 C-106.36589844 107.43777344 -106.49351563 106.63726562 -106.625 105.8125 C-106.74488281 105.00425781 -106.86476563 104.19601563 -106.98828125 103.36328125 C-107.09527344 102.74839844 -107.20226562 102.13351563 -107.3125 101.5 C-108.19292969 101.24605469 -109.07335937 100.99210937 -109.98046875 100.73046875 C-111.72263672 100.21419922 -111.72263672 100.21419922 -113.5 99.6875 C-114.64855469 99.35105469 -115.79710937 99.01460938 -116.98046875 98.66796875 C-124.55628109 96.01243781 -124.55628109 96.01243781 -126.3125 92.5 C-126.27461927 89.7113958 -126.16958364 86.96820711 -126 84.1875 C-125.96455078 83.42759766 -125.92910156 82.66769531 -125.89257812 81.88476562 C-125.58832551 76.65797809 -125.17298294 72.36048294 -121.3125 68.5 C-117.72202632 67.79663541 -114.14311581 67.24035193 -110.52148438 66.73242188 C-109.77318359 66.61576172 -109.02488281 66.49910156 -108.25390625 66.37890625 C-107.57013916 66.2816626 -106.88637207 66.18441895 -106.18188477 66.08422852 C-103.86947145 65.36154273 -102.85680293 64.34016733 -101.3125 62.5 C-100.24764115 60.6520826 -100.24764115 60.6520826 -100.3125 58.5 C-101.85005703 55.98645354 -101.85005703 55.98645354 -104.0625 53.5625 C-111.29467437 45.14664241 -111.29467437 45.14664241 -111.34375 40.61328125 C-109.97268618 36.47412267 -107.70744888 33.88506948 -104.8125 30.6875 C-104.30074219 30.10291016 -103.78898437 29.51832031 -103.26171875 28.91601562 C-98.5199004 23.51734908 -98.5199004 23.51734908 -95.23046875 23.2421875 C-90.0752519 23.58141413 -86.27986576 25.388343 -81.65429688 27.54296875 C-79.51972871 28.51580833 -79.51972871 28.51580833 -76.3125 29.5 C-74.12186907 28.64112727 -74.12186907 28.64112727 -72.3125 27.5 C-72.33868408 26.84926514 -72.36486816 26.19853027 -72.3918457 25.52807617 C-72.49573862 22.58146277 -72.5607992 19.63523399 -72.625 16.6875 C-72.66689453 15.66333984 -72.70878906 14.63917969 -72.75195312 13.58398438 C-72.79742993 10.80989899 -72.77599552 8.23598766 -72.3125 5.5 C-70.15625 3.4375 -70.15625 3.4375 -67.3125 2.5 C-65.91064453 1.92185547 -65.91064453 1.92185547 -64.48046875 1.33203125 C-63.49691406 0.99558594 -62.51335937 0.65914062 -61.5 0.3125 C-60.52417969 -0.03167969 -59.54835938 -0.37585937 -58.54296875 -0.73046875 C-54.34063805 -1.73150762 -51.64317676 -2.09482616 -47.3125 -1.5 C-44.95101529 0.45204716 -43.47104784 2.78173944 -41.875 5.375 C-41.44251953 6.02597656 -41.01003906 6.67695312 -40.56445312 7.34765625 C-39.03015406 9.67671742 -37.56061811 12.00376377 -36.3125 14.5 C-34.6625 14.5 -33.0125 14.5 -31.3125 14.5 C-30.78140625 13.45199219 -30.2503125 12.40398438 -29.703125 11.32421875 C-28.99008653 9.94505223 -28.27651687 8.56616024 -27.5625 7.1875 C-27.21445313 6.49720703 -26.86640625 5.80691406 -26.5078125 5.09570312 C-20.41724606 -6.57788254 -11.40685578 -3.55776531 0 0 Z " fill="#3CAEAB" transform="translate(170.3125,47.5)"/>
<path d="M0 0 C5.01006877 3.88751201 9.45279155 8.03489233 13.22265625 13.140625 C13.66222656 13.73230469 14.10179687 14.32398437 14.5546875 14.93359375 C23.50555021 28.04890618 24.13613609 43.77296964 21.5625 59.0625 C17.54704258 73.59463163 7.99533435 84.96065521 -4.83203125 92.59765625 C-17.10581249 99.02755491 -33.37055848 101.05939846 -46.87109375 97.1171875 C-49.96425269 95.9466113 -52.84789097 94.66997167 -55.77734375 93.140625 C-56.88078125 92.59019531 -57.98421875 92.03976563 -59.12109375 91.47265625 C-59.99765625 91.03308594 -60.87421875 90.59351563 -61.77734375 90.140625 C-61.77734375 89.480625 -61.77734375 88.820625 -61.77734375 88.140625 C-62.66486328 87.72103516 -62.66486328 87.72103516 -63.5703125 87.29296875 C-73.13777098 82.29757008 -79.38841323 72.12905179 -82.77734375 62.140625 C-86.73896608 47.09648958 -85.95636117 32.04187112 -78.734375 18.265625 C-70.80940721 5.61098581 -59.25862907 -3.87487934 -44.77734375 -7.859375 C-29.43366638 -11.01161348 -13.13631783 -8.79449689 0 0 Z " fill="#2D4763" transform="translate(170.77734375,94.859375)"/>
<path d="M0 0 C14.82631233 1.64736804 26.31707734 7.39116317 36.3125 18.5 C37.22980484 19.64986099 38.12628399 20.81667891 39 22 C39.43957031 22.59167969 39.87914062 23.18335937 40.33203125 23.79296875 C48.64640615 35.97566308 49.32260859 49.67746583 48 64 C46.75452772 70.24547228 46.75452772 70.24547228 45 72 C43.52490449 72.22706694 42.04051781 72.39453457 40.5546875 72.53515625 C39.64203125 72.62216797 38.729375 72.70917969 37.7890625 72.79882812 C36.82742187 72.88583984 35.86578125 72.97285156 34.875 73.0625 C33.9365625 73.15337891 32.998125 73.24425781 32.03125 73.33789062 C26.99660783 73.80680338 22.05588584 74.10503918 17 74 C20.53156519 70.31118515 24.18534092 67.22617756 28.3125 64.1875 C28.86228516 63.78080078 29.41207031 63.37410156 29.97851562 62.95507812 C31.31625547 61.96631389 32.65773623 60.98261415 34 60 C29.68877239 62.05572737 25.76423191 64.38293527 21.8125 67.0625 C20.78769531 67.75472656 19.76289063 68.44695312 18.70703125 69.16015625 C17.81371094 69.76730469 16.92039062 70.37445313 16 71 C13 73 13 73 10.8125 72.625 C10.214375 72.41875 9.61625 72.2125 9 72 C8.34899271 68.81006428 8.17023484 66.16819425 9 63 C13.2308917 58.69657873 18.39371673 56.09099214 24 54 C21.37948978 51.02214748 18.26443681 49.32574379 14.875 47.3125 C9.30442271 43.69498053 9.30442271 43.69498053 7.9921875 40.69921875 C7.75 38.5 7.75 38.5 8 35 C7.34 35 6.68 35 6 35 C5.87923096 35.87615967 5.75846191 36.75231934 5.6340332 37.6550293 C5.02364699 40.87524549 4.13011457 43.50973777 2.85546875 46.51953125 C2.21061523 48.05383789 2.21061523 48.05383789 1.55273438 49.61914062 C1.10220703 50.67294922 0.65167969 51.72675781 0.1875 52.8125 C-0.25142578 53.85470703 -0.69035156 54.89691406 -1.14257812 55.97070312 C-8.58352582 73.58352582 -8.58352582 73.58352582 -10 75 C-12.67058851 75.14115161 -15.32432238 75.04247107 -18 75 C-18.33 73.68 -18.66 72.36 -19 71 C-20.485 71.99 -20.485 71.99 -22 73 C-25.76810792 72.6886521 -28.44992526 70.5323766 -31.5 68.4375 C-32.54800781 67.71820313 -33.59601563 66.99890625 -34.67578125 66.2578125 C-35.49103271 65.69755371 -35.49103271 65.69755371 -36.32275391 65.12597656 C-37.99929763 64.00047152 -39.70016634 62.92845793 -41.41796875 61.8671875 C-42.49691406 61.18914062 -43.57585937 60.51109375 -44.6875 59.8125 C-45.68136719 59.20019531 -46.67523438 58.58789062 -47.69921875 57.95703125 C-50 56 -50 56 -50.83203125 53.26171875 C-50.88746094 52.51535156 -50.94289063 51.76898438 -51 51 C-26.707795 32.919731 -26.707795 32.919731 -18.53125 30.78125 C-13.99582922 29.38142877 -9.72463524 27.29257331 -5.40649414 25.33520508 C-0.20008389 23 -0.20008389 23 2 23 C1.34 15.41 0.68 7.82 0 0 Z " fill="#2E4A65" transform="translate(145,86)"/>
<path d="M0 0 C3.6875 1.5 3.6875 1.5 4.6875 3.5 C4.83925549 5.09262066 4.93650325 6.69064856 5.00390625 8.2890625 C5.06674805 9.70058594 5.06674805 9.70058594 5.13085938 11.140625 C5.17017578 12.12546875 5.20949219 13.1103125 5.25 14.125 C5.31477539 15.61386719 5.31477539 15.61386719 5.38085938 17.1328125 C5.48711069 19.58839838 5.58914964 22.04408703 5.6875 24.5 C12.46142995 23.90053717 16.78283455 21.37366233 22.50390625 17.8984375 C26.3014735 16.23030366 27.79345105 16.11989569 31.6875 17.5 C33.8656274 19.27150571 35.66761776 20.91131478 37.5625 22.9375 C38.06007812 23.44087891 38.55765625 23.94425781 39.0703125 24.46289062 C42.6875 28.20429473 42.6875 28.20429473 42.6875 30.5 C43.3475 30.5 44.0075 30.5 44.6875 30.5 C45.50528571 33.6648307 46.18268378 36.28754626 44.91015625 39.40332031 C43.73561866 41.36528579 42.4952295 43.24918975 41.1875 45.125 C37.66796534 49.8598037 37.66796534 49.8598037 36.90625 55.4609375 C37.29296875 56.47027344 37.29296875 56.47027344 37.6875 57.5 C38.28175781 57.48839844 38.87601563 57.47679687 39.48828125 57.46484375 C44.20628243 57.41348137 48.91399443 57.47990235 53.625 57.75 C54.52089844 57.79640625 55.41679687 57.8428125 56.33984375 57.890625 C58.6875 58.5 58.6875 58.5 60.39453125 60.05859375 C62.13737212 63.34945642 62.80067961 66.68262379 63.4375 70.3125 C63.57542969 70.99892578 63.71335938 71.68535156 63.85546875 72.39257812 C64.69596254 76.97196952 65.20455466 81.007389 63.6875 85.5 C61.07279439 87.66094825 58.19207936 89.02097741 55.125 90.4375 C53.91553711 91.03401367 53.91553711 91.03401367 52.68164062 91.64257812 C50.69369777 92.61890509 48.69724841 93.56961386 46.6875 94.5 C46.15728596 96.78110339 46.15728596 96.78110339 46.6875 99.5 C48.77161471 101.45627315 50.6776408 103.01094802 53 104.625 C61.47483437 110.74010259 61.47483437 110.74010259 62.6875 112.5 C63.36412352 117.54193654 61.79163928 121.60659618 59.875 126.1875 C59.61396484 126.85072266 59.35292969 127.51394531 59.08398438 128.19726562 C56.34376464 134.91587846 56.34376464 134.91587846 53.6875 136.5 C50.578125 136.609375 50.578125 136.609375 46.9375 136.25 C45.69226563 136.13269531 44.44703125 136.01539063 43.1640625 135.89453125 C39.6551513 135.49632897 36.17063146 135.08052191 32.6875 134.5 C30.56812957 140.15165449 30.64443919 142.76830029 33.0625 148.5 C35.09968242 153.38052259 36.66548292 157.20458027 35.6875 162.5 C33.47751363 165.14434983 30.86883685 167.02426022 28.0625 169 C27.34964844 169.54914063 26.63679687 170.09828125 25.90234375 170.6640625 C22.66180859 173.03054505 20.60164425 174.45236469 16.5390625 174.6640625 C12.31179777 172.93841197 9.40711502 170.04535521 6.1875 166.91796875 C3.43759083 164.41870235 2.22415411 163.47806942 -1.5625 163.6328125 C-4.23807973 164.3971574 -4.23807973 164.3971574 -6.3125 165.5 C-6.91700418 167.2804278 -6.91700418 167.2804278 -7.27734375 169.4296875 C-7.43783203 170.22503906 -7.59832031 171.02039063 -7.76367188 171.83984375 C-8.08630678 173.52169156 -8.40664281 175.20398211 -8.72460938 176.88671875 C-8.88638672 177.68464844 -9.04816406 178.48257813 -9.21484375 179.3046875 C-9.35398193 180.03671387 -9.49312012 180.76874023 -9.63647461 181.52294922 C-10.45432568 183.91477226 -11.31784127 184.95744847 -13.3125 186.5 C-17.52336915 187.96757795 -21.96243555 187.79789403 -26.375 187.875 C-27.19033203 187.91238281 -28.00566406 187.94976562 -28.84570312 187.98828125 C-31.10290755 188.02166636 -33.1065829 187.98213764 -35.3125 187.5 C-37.234375 185.32421875 -37.234375 185.32421875 -38.3125 182.5 C-38.69792969 181.59121094 -39.08335937 180.68242187 -39.48046875 179.74609375 C-39.81691406 178.81925781 -40.15335937 177.89242187 -40.5 176.9375 C-40.84417969 176.00808594 -41.18835938 175.07867187 -41.54296875 174.12109375 C-42.3125 171.5 -42.3125 171.5 -42.3125 167.5 C-45.36701042 166.71682525 -48.15662389 166.26620781 -51.3125 166.5 C-54.05597581 168.18623038 -55.91338247 170.45821031 -57.9375 172.9375 C-63.23659355 179.29247729 -63.23659355 179.29247729 -67.71484375 180.15625 C-74.60336632 178.89971168 -81.14725728 175.24629027 -86.3125 170.5 C-87.92286879 167.17971235 -87.36207716 164.95181794 -86.3125 161.5 C-86.06113281 160.55253906 -85.80976562 159.60507813 -85.55078125 158.62890625 C-85.03479225 156.73359055 -84.47768221 154.8487612 -83.87109375 152.98046875 C-83.25696846 150.2534089 -83.20078334 149.04919215 -84.3125 146.5 C-85.80386834 144.03974137 -85.80386834 144.03974137 -88.3125 142.5 C-91.01243998 142.70721887 -93.1157582 143.05643971 -95.6875 143.75 C-104.97346203 146.06224154 -104.97346203 146.06224154 -109.3125 145.5 C-114.63458641 141.489291 -118.62714193 133.68907634 -119.6953125 127.16015625 C-119.6875 125.25 -119.6875 125.25 -119.3125 122.5 C-118.6525 122.5 -117.9925 122.5 -117.3125 122.5 C-117.3125 121.84 -117.3125 121.18 -117.3125 120.5 C-115.66796875 118.87890625 -115.66796875 118.87890625 -113.5 117.0625 C-112.09906679 115.88102081 -110.7029923 114.6937496 -109.3125 113.5 C-108.7246875 113.02820313 -108.136875 112.55640625 -107.53125 112.0703125 C-106.09212226 110.53316867 -106.09212226 110.53316867 -106.23828125 108.23828125 C-106.36589844 107.43777344 -106.49351563 106.63726562 -106.625 105.8125 C-106.74488281 105.00425781 -106.86476563 104.19601563 -106.98828125 103.36328125 C-107.09527344 102.74839844 -107.20226562 102.13351563 -107.3125 101.5 C-108.19292969 101.24605469 -109.07335937 100.99210937 -109.98046875 100.73046875 C-111.72263672 100.21419922 -111.72263672 100.21419922 -113.5 99.6875 C-114.64855469 99.35105469 -115.79710937 99.01460938 -116.98046875 98.66796875 C-124.55628109 96.01243781 -124.55628109 96.01243781 -126.3125 92.5 C-126.27461927 89.7113958 -126.16958364 86.96820711 -126 84.1875 C-125.96455078 83.42759766 -125.92910156 82.66769531 -125.89257812 81.88476562 C-125.58832551 76.65797809 -125.17298294 72.36048294 -121.3125 68.5 C-117.72202632 67.79663541 -114.14311581 67.24035193 -110.52148438 66.73242188 C-109.77318359 66.61576172 -109.02488281 66.49910156 -108.25390625 66.37890625 C-107.57013916 66.2816626 -106.88637207 66.18441895 -106.18188477 66.08422852 C-103.86947145 65.36154273 -102.85680293 64.34016733 -101.3125 62.5 C-100.24764115 60.6520826 -100.24764115 60.6520826 -100.3125 58.5 C-101.85005703 55.98645354 -101.85005703 55.98645354 -104.0625 53.5625 C-111.29467437 45.14664241 -111.29467437 45.14664241 -111.34375 40.61328125 C-109.97268618 36.47412267 -107.70744888 33.88506948 -104.8125 30.6875 C-104.30074219 30.10291016 -103.78898437 29.51832031 -103.26171875 28.91601562 C-98.5199004 23.51734908 -98.5199004 23.51734908 -95.23046875 23.2421875 C-90.0752519 23.58141413 -86.27986576 25.388343 -81.65429688 27.54296875 C-79.51972871 28.51580833 -79.51972871 28.51580833 -76.3125 29.5 C-74.12186907 28.64112727 -74.12186907 28.64112727 -72.3125 27.5 C-72.33868408 26.84926514 -72.36486816 26.19853027 -72.3918457 25.52807617 C-72.49573862 22.58146277 -72.5607992 19.63523399 -72.625 16.6875 C-72.66689453 15.66333984 -72.70878906 14.63917969 -72.75195312 13.58398438 C-72.79742993 10.80989899 -72.77599552 8.23598766 -72.3125 5.5 C-70.15625 3.4375 -70.15625 3.4375 -67.3125 2.5 C-65.91064453 1.92185547 -65.91064453 1.92185547 -64.48046875 1.33203125 C-63.49691406 0.99558594 -62.51335937 0.65914062 -61.5 0.3125 C-60.52417969 -0.03167969 -59.54835938 -0.37585937 -58.54296875 -0.73046875 C-54.34063805 -1.73150762 -51.64317676 -2.09482616 -47.3125 -1.5 C-44.95101529 0.45204716 -43.47104784 2.78173944 -41.875 5.375 C-41.44251953 6.02597656 -41.01003906 6.67695312 -40.56445312 7.34765625 C-39.03015406 9.67671742 -37.56061811 12.00376377 -36.3125 14.5 C-34.6625 14.5 -33.0125 14.5 -31.3125 14.5 C-30.78140625 13.45199219 -30.2503125 12.40398438 -29.703125 11.32421875 C-28.99008653 9.94505223 -28.27651687 8.56616024 -27.5625 7.1875 C-27.21445313 6.49720703 -26.86640625 5.80691406 -26.5078125 5.09570312 C-20.41724606 -6.57788254 -11.40685578 -3.55776531 0 0 Z M-19.3125 0.5 C-22.86756117 6.05194659 -26.16235504 11.70909522 -29.3125 17.5 C-32.56406499 18.31289125 -35.08769771 18.4983908 -38.3125 17.5 C-41.59314586 13.84732213 -43.88154126 9.74592793 -46.3125 5.5 C-48.24434436 2.30563718 -48.24434436 2.30563718 -51.5 1.0625 C-57.7722102 2.03817714 -63.52290353 5.01874437 -69.3125 7.5 C-68.9825 14.76 -68.6525 22.02 -68.3125 29.5 C-72.35679299 31.52214649 -74.83432541 32.27301755 -79.3125 32.5 C-82.46916787 31.40559727 -85.33926467 30.07602266 -88.32617188 28.59375 C-90.71181251 27.46246926 -92.7396261 26.51175674 -95.40625 26.45703125 C-98.42815769 28.11041107 -100.45117613 30.58203916 -102.625 33.1875 C-103.09228516 33.70505859 -103.55957031 34.22261719 -104.04101562 34.75585938 C-106.28357554 37.4157938 -107.30023507 39.0432773 -107.39453125 42.5546875 C-105.69888616 47.17027017 -102.48420772 50.09544122 -99.1484375 53.62109375 C-97.3125 56.5 -97.3125 56.5 -97.3515625 60.03515625 C-99.0238103 66.0647652 -99.0238103 66.0647652 -101.3125 68.5 C-104.6403625 69.694165 -108.01646652 70.25407097 -111.5 70.8125 C-112.44037109 70.98072266 -113.38074219 71.14894531 -114.34960938 71.32226562 C-116.66792419 71.73414897 -118.98785109 72.12583467 -121.3125 72.5 C-122.36869003 76.78297531 -122.42952092 80.92985646 -122.375 85.3125 C-122.37048828 86.00537109 -122.36597656 86.69824219 -122.36132812 87.41210938 C-122.34963156 89.10811068 -122.33169924 90.80406703 -122.3125 92.5 C-121.7777002 92.68062988 -121.24290039 92.86125977 -120.69189453 93.04736328 C-118.26467568 93.88246162 -115.851728 94.75309368 -113.4375 95.625 C-112.59574219 95.90859375 -111.75398438 96.1921875 -110.88671875 96.484375 C-104.67788756 98.76922488 -104.67788756 98.76922488 -102.78125 102.5625 C-102.6265625 103.531875 -102.471875 104.50125 -102.3125 105.5 C-102.10625 106.44875 -101.9 107.3975 -101.6875 108.375 C-103.08278489 115.35142444 -110.95595066 120.21476053 -116.3125 124.5 C-115.69204537 128.73322844 -114.20726441 132.02290295 -112.25 135.8125 C-111.70214844 136.88113281 -111.15429688 137.94976562 -110.58984375 139.05078125 C-110.16832031 139.85902344 -109.74679688 140.66726562 -109.3125 141.5 C-105.04872305 141.65227775 -101.37027264 141.64496813 -97.25 140.5 C-93.43984914 139.48594811 -90.27986938 138.91224157 -86.3125 139.5 C-83.707842 141.11569293 -81.93309826 142.89896863 -80.3125 145.5 C-79.44823129 151.1177466 -80.87520568 157.02359392 -82.3125 162.5 C-82.6425 162.83 -82.9725 163.16 -83.3125 163.5 C-83.35313832 165.16617115 -83.355221 166.83388095 -83.3125 168.5 C-81.07070623 169.86965208 -78.82077662 171.22052808 -76.5625 172.5625 C-75.92828125 172.95244141 -75.2940625 173.34238281 -74.640625 173.74414062 C-71.1911756 175.90851151 -71.1911756 175.90851151 -67.26977539 176.2734375 C-63.39564876 174.74253652 -60.7035996 170.8163963 -57.99804688 167.71679688 C-55.20497932 164.72242716 -53.98618615 163.59517035 -49.80078125 163.00390625 C-48.64964844 163.16761719 -47.49851562 163.33132812 -46.3125 163.5 C-45.24644531 163.64308594 -44.18039063 163.78617188 -43.08203125 163.93359375 C-39.3816096 166.02649795 -38.91952301 168.07131633 -37.70117188 172.02539062 C-37.46978516 172.86263672 -37.23839844 173.69988281 -37 174.5625 C-36.50574596 176.22060158 -36.00974512 177.87818381 -35.51171875 179.53515625 C-35.30377686 180.2712915 -35.09583496 181.00742676 -34.8815918 181.76586914 C-34.45409852 183.50885835 -34.45409852 183.50885835 -33.3125 184.5 C-30.86345331 184.60044341 -28.44875103 184.63874416 -26 184.625 C-24.98389648 184.63080078 -24.98389648 184.63080078 -23.94726562 184.63671875 C-20.5930945 184.63016123 -17.51845124 184.53843151 -14.3125 183.5 C-14.04695313 182.40300781 -13.78140625 181.30601562 -13.5078125 180.17578125 C-13.15123185 178.72130753 -12.7944504 177.26688302 -12.4375 175.8125 C-12.26347656 175.09126953 -12.08945313 174.37003906 -11.91015625 173.62695312 C-9.95958726 165.71631221 -9.95958726 165.71631221 -8.3125 162.5 C-5.10460825 160.68421221 -2.68923081 159.4360722 1.04296875 159.609375 C5.23351225 161.02066587 8.07302443 164.09657516 11.2265625 167.08203125 C14.26959459 169.81376669 14.26959459 169.81376669 18.16796875 170.58984375 C21.4794445 169.15743796 24.19385048 167.16400746 27 164.9375 C27.54978516 164.51275391 28.09957031 164.08800781 28.66601562 163.65039062 C30.0126827 162.60818741 31.35096201 161.55516157 32.6875 160.5 C31.78654156 154.97901049 29.65621655 149.97427461 27.6484375 144.77734375 C26.351986 140.35570633 27.00699961 138.94355998 28.90698242 134.91308594 C30.6875 132.5 30.6875 132.5 33.1394043 131.93237305 C34.08726807 131.95855713 35.03513184 131.98474121 36.01171875 132.01171875 C37.55375977 132.03588867 37.55375977 132.03588867 39.12695312 132.06054688 C40.73473633 132.12338867 40.73473633 132.12338867 42.375 132.1875 C44.00018555 132.22133789 44.00018555 132.22133789 45.65820312 132.25585938 C48.33601905 132.3148421 51.01107027 132.39709693 53.6875 132.5 C54.53084329 130.27417611 55.36228551 128.04503974 56.1875 125.8125 C56.42597656 125.18666016 56.66445312 124.56082031 56.91015625 123.91601562 C58.86320109 118.80563373 58.86320109 118.80563373 58.6875 113.5 C56.7763032 111.5236151 55.03590889 109.95997495 52.875 108.3125 C52.05418945 107.65604492 52.05418945 107.65604492 51.21679688 106.98632812 C48.7700448 105.04375527 46.28761889 103.23341259 43.6875 101.5 C43.6875 98.53 43.6875 95.56 43.6875 92.5 C49.6275 89.2 55.5675 85.9 61.6875 82.5 C60.99887951 74.42768951 60.99887951 74.42768951 59.1875 66.9375 C58.9296875 66.11121094 58.671875 65.28492187 58.40625 64.43359375 C57.84848586 62.5221778 57.84848586 62.5221778 56.6875 61.5 C55.12801458 61.34313751 53.56207332 61.24923361 51.99609375 61.18359375 C51.05185547 61.14169922 50.10761719 61.09980469 49.13476562 61.05664062 C48.14154297 61.01732422 47.14832031 60.97800781 46.125 60.9375 C44.62936523 60.87272461 44.62936523 60.87272461 43.10351562 60.80664062 C40.6316585 60.70019702 38.1596969 60.59818072 35.6875 60.5 C34.08643759 56.99767597 33.13099151 54.3491837 33.6875 50.5 C35.27361101 47.6393355 36.99607659 45.00676855 38.84375 42.31640625 C40.42226334 39.92044851 41.61742021 37.79215082 42.2890625 34.9921875 C41.35627465 31.12778071 38.81408723 28.82454776 36.0625 26.125 C35.27939453 25.28775391 35.27939453 25.28775391 34.48046875 24.43359375 C31.8891785 21.8423035 30.39196672 20.51820327 26.6640625 20.421875 C22.2370741 22.02535111 18.60171616 24.52266488 14.6875 27.1015625 C11.09086605 28.77811843 9.44630763 28.61720116 5.6875 27.5 C2.6875 25.5 2.6875 25.5 2.25512695 23.34521484 C2.22894287 22.47590332 2.20275879 21.6065918 2.17578125 20.7109375 C2.14033203 19.76992187 2.10488281 18.82890625 2.06835938 17.859375 C2.04580078 16.87453125 2.02324219 15.8896875 2 14.875 C1.96583984 13.88242187 1.93167969 12.88984375 1.89648438 11.8671875 C1.81384343 9.41157094 1.74474873 6.95631859 1.6875 4.5 C-3.67678179 2.78074702 -8.78209834 1.17502575 -14.4375 0.8125 C-15.83355469 0.71388672 -15.83355469 0.71388672 -17.2578125 0.61328125 C-18.27488281 0.55720703 -18.27488281 0.55720703 -19.3125 0.5 Z " fill="#D5DADA" transform="translate(170.3125,47.5)"/>
<path d="M0 0 C4.17053608 0.43039823 6.8163416 1.94765176 10.23046875 4.30859375 C11.19791016 4.97310547 12.16535156 5.63761719 13.16210938 6.32226562 C14.16048828 7.02029297 15.15886719 7.71832031 16.1875 8.4375 C17.19748047 9.13166016 18.20746094 9.82582031 19.24804688 10.54101562 C26.66793493 15.66793493 26.66793493 15.66793493 29 18 C28.98828125 20.35546875 28.98828125 20.35546875 28 23 C25.48046875 25.17578125 25.48046875 25.17578125 22.1875 27.3125 C21.60943604 27.69132324 21.03137207 28.07014648 20.43579102 28.46044922 C19.23071186 29.25006861 18.02223019 30.03451755 16.81054688 30.81396484 C15.04661185 31.96946597 13.32568659 33.16967231 11.609375 34.39453125 C10.56265625 35.13058594 9.5159375 35.86664063 8.4375 36.625 C7.48746094 37.29789063 6.53742188 37.97078125 5.55859375 38.6640625 C3 40 3 40 0.66015625 39.7109375 C0.11230469 39.47632813 -0.43554688 39.24171875 -1 39 C-1.65100729 35.81006428 -1.82976516 33.16819425 -1 30 C3.2308917 25.69657873 8.39371673 23.09099214 14 21 C11.37515939 17.99755074 8.2372546 16.36356719 4.8125 14.375 C-0.74815743 10.76392246 -0.74815743 10.76392246 -1.8203125 7.51171875 C-1.8021 1.8021 -1.8021 1.8021 0 0 Z " fill="#3AABA8" transform="translate(155,119)"/>
<path d="M0 0 C0.63556161 3.50971242 0.83746677 6.51309292 0 10 C-4.17595472 14.38276391 -9.39046259 16.89768688 -15 19 C-15 19.66 -15 20.32 -15 21 C-14.28457031 21.26683594 -13.56914063 21.53367188 -12.83203125 21.80859375 C-8.02827246 23.82948538 -3.67372083 26.2633011 0 30 C0.82976516 33.16819425 0.65100729 35.81006428 0 39 C-2.30636983 39.81542804 -3.48229638 40.23040892 -5.76416016 39.21484375 C-6.34987793 38.79332031 -6.9355957 38.37179688 -7.5390625 37.9375 C-8.19777344 37.4731958 -8.85648438 37.0088916 -9.53515625 36.53051758 C-10.22480469 36.02544678 -10.91445312 35.52037598 -11.625 35 C-12.68654297 34.24529419 -12.68654297 34.24529419 -13.76953125 33.4753418 C-15.19014683 32.46438233 -16.60720401 31.44840232 -18.02050781 30.42724609 C-20.6590121 28.52484154 -23.32877736 26.66857877 -26 24.8125 C-27.33384924 23.87573417 -28.6674207 22.93857148 -30 22 C-29.74864632 18.50507771 -29.29358183 17.26643965 -26.6550293 14.87182617 C-25.63836182 14.18580322 -24.62169434 13.49978027 -23.57421875 12.79296875 C-23.03021927 12.42271072 -22.48621979 12.0524527 -21.92573547 11.67097473 C-20.7763054 10.89342424 -19.62195799 10.12309998 -18.46313477 9.35961914 C-16.69236735 8.190713 -14.94046532 6.99707028 -13.18945312 5.79882812 C-4.56437145 0 -4.56437145 0 0 0 Z " fill="#3AABA9" transform="translate(124,119)"/>
<path d="M0 0 C2.05078125 0.03255208 4.1015625 0.06510417 6.15234375 0.09765625 C7.54252814 3.82727228 6.73696821 5.89545784 5.23828125 9.5 C4.80902344 10.54986084 4.37976563 11.59972168 3.9375 12.68139648 C3.23947266 14.34150757 3.23947266 14.34150757 2.52734375 16.03515625 C1.59692671 18.29527272 0.66723205 20.55568673 -0.26171875 22.81640625 C-0.71063477 23.90050781 -1.15955078 24.98460937 -1.62207031 26.1015625 C-3.49276248 30.67469683 -5.21164141 35.2978069 -6.91015625 39.9375 C-7.84765625 42.09765625 -7.84765625 42.09765625 -9.84765625 44.09765625 C-12.5360501 44.36757531 -15.13907561 44.18502982 -17.84765625 44.09765625 C-18.98589359 41.29037513 -18.84330182 40.08372713 -17.9230957 37.14013672 C-17.4405835 36.00979004 -16.95807129 34.87944336 -16.4609375 33.71484375 C-16.20265671 33.10053497 -15.94437592 32.4862262 -15.67826843 31.853302 C-14.84946932 29.88840586 -14.00529176 27.93057362 -13.16015625 25.97265625 C-12.61026649 24.67883611 -12.06142759 23.38456881 -11.51367188 22.08984375 C-10.71101315 20.19344065 -9.90712233 18.29765302 -9.09744263 16.40423584 C-7.18126963 11.92053601 -5.35781764 7.40712313 -3.59838867 2.85986328 C-2.43485992 0.12869238 -2.43485992 0.12869238 0 0 Z " fill="#3AAAA8" transform="translate(144.84765625,116.90234375)"/>
<path d="M0 0 C4.8860591 -0.03001265 9.47035369 0.35463193 14.2421875 1.41796875 C14.2421875 2.07796875 14.2421875 2.73796875 14.2421875 3.41796875 C9.2921875 3.41796875 4.3421875 3.41796875 -0.7578125 3.41796875 C-2.8947118 10.86892539 -2.8947118 10.86892539 -0.3828125 17.41796875 C1.65436992 22.29849134 3.22017042 26.12254902 2.2421875 31.41796875 C0.03220113 34.06231858 -2.57647565 35.94222897 -5.3828125 37.91796875 C-6.09566406 38.46710938 -6.80851562 39.01625 -7.54296875 39.58203125 C-10.78350391 41.9485138 -12.84366825 43.37033344 -16.90625 43.58203125 C-21.13351473 41.85638072 -24.03819748 38.96332396 -27.2578125 35.8359375 C-30.00772167 33.3366711 -31.22115839 32.39603817 -35.0078125 32.55078125 C-37.68339223 33.31512615 -37.68339223 33.31512615 -39.7578125 34.41796875 C-40.36231668 36.19839655 -40.36231668 36.19839655 -40.72265625 38.34765625 C-40.88314453 39.14300781 -41.04363281 39.93835938 -41.20898438 40.7578125 C-41.53161928 42.43966031 -41.85195531 44.12195086 -42.16992188 45.8046875 C-42.33169922 46.60261719 -42.49347656 47.40054688 -42.66015625 48.22265625 C-42.86886353 49.3206958 -42.86886353 49.3206958 -43.08178711 50.44091797 C-43.9050671 52.848618 -44.70759626 53.91149024 -46.7578125 55.41796875 C-48.8425293 55.75854492 -48.8425293 55.75854492 -51.20703125 55.7109375 C-52.05458984 55.70126953 -52.90214844 55.69160156 -53.77539062 55.68164062 C-54.65646484 55.65650391 -55.53753906 55.63136719 -56.4453125 55.60546875 C-57.33798828 55.59193359 -58.23066406 55.57839844 -59.15039062 55.56445312 C-61.35347416 55.52910954 -63.55533832 55.47977368 -65.7578125 55.41796875 C-65.7578125 55.08796875 -65.7578125 54.75796875 -65.7578125 54.41796875 C-59.8178125 53.75796875 -53.8778125 53.09796875 -47.7578125 52.41796875 C-46.85471494 47.3786047 -46.85471494 47.3786047 -45.96337891 42.3371582 C-44.16545436 32.53040978 -44.16545436 32.53040978 -40.98828125 30.01953125 C-39.97701172 29.53613281 -39.97701172 29.53613281 -38.9453125 29.04296875 C-38.27886719 28.70523438 -37.61242187 28.3675 -36.92578125 28.01953125 C-34.03203316 27.21658133 -32.6031065 27.4142477 -29.7578125 28.41796875 C-27.11020108 30.50930011 -24.66507348 32.68406432 -22.21875 35 C-19.16605414 37.74640057 -19.16605414 37.74640057 -15.24609375 38.4765625 C-12.11609292 37.14496089 -9.65392015 35.41139986 -6.9453125 33.35546875 C-5.96949219 32.62199219 -4.99367187 31.88851562 -3.98828125 31.1328125 C-2.88419922 30.28396484 -2.88419922 30.28396484 -1.7578125 29.41796875 C-2.65877094 23.89697924 -4.78909595 18.89224336 -6.796875 13.6953125 C-7.73042176 10.51138676 -7.98496342 9.39069263 -6.7578125 6.41796875 C-6.3246875 5.34546875 -5.8915625 4.27296875 -5.4453125 3.16796875 C-2.7578125 0.41796875 -2.7578125 0.41796875 0 0 Z " fill="#D4D8D8" transform="translate(203.7578125,178.58203125)"/>
<path d="M0 0 C4.14986734 0.7039132 6.93986042 1.32962356 10.5234375 3.59765625 C12.20319187 6.51861569 13.0768599 9.54687768 13.9609375 12.78515625 C14.21552734 13.63013672 14.47011719 14.47511719 14.73242188 15.34570312 C15.3542614 17.42241247 15.94224796 19.50920591 16.5234375 21.59765625 C18.8334375 21.92765625 21.1434375 22.25765625 23.5234375 22.59765625 C23.5234375 22.92765625 23.5234375 23.25765625 23.5234375 23.59765625 C26.4934375 23.92765625 29.4634375 24.25765625 32.5234375 24.59765625 C32.5234375 24.92765625 32.5234375 25.25765625 32.5234375 25.59765625 C29.58441401 25.73247384 26.65154191 25.83165041 23.7109375 25.91015625 C22.87755859 25.95205078 22.04417969 25.99394531 21.18554688 26.03710938 C18.8704615 26.08359703 16.79352604 26.05823308 14.5234375 25.59765625 C12.5859375 23.42578125 12.5859375 23.42578125 11.5234375 20.59765625 C11.13800781 19.68886719 10.75257813 18.78007812 10.35546875 17.84375 C10.01902344 16.91691406 9.68257812 15.99007812 9.3359375 15.03515625 C8.99175781 14.10574219 8.64757812 13.17632812 8.29296875 12.21875 C7.5234375 9.59765625 7.5234375 9.59765625 7.5234375 5.59765625 C4.46892708 4.8144815 1.67931361 4.36386406 -1.4765625 4.59765625 C-4.22003831 6.28388663 -6.07744497 8.55586656 -8.1015625 11.03515625 C-13.39572383 17.38421853 -13.39572383 17.38421853 -17.87890625 18.26953125 C-22.36527326 17.43168638 -25.56598008 15.79302181 -29.4140625 13.41015625 C-30.09791016 13.02279297 -30.78175781 12.63542969 -31.48632812 12.23632812 C-33.44140625 11.0546875 -33.44140625 11.0546875 -36.4765625 8.59765625 C-36.91796875 5.796875 -36.91796875 5.796875 -36.4765625 3.59765625 C-35.8165625 3.26765625 -35.1565625 2.93765625 -34.4765625 2.59765625 C-34.25613281 3.19191406 -34.03570312 3.78617188 -33.80859375 4.3984375 C-32.04935229 7.30299157 -30.1528651 8.21188939 -27.1640625 9.78515625 C-26.21917969 10.29433594 -25.27429688 10.80351562 -24.30078125 11.328125 C-20.5324779 13.16017598 -20.5324779 13.16017598 -16.4765625 13.59765625 C-13.40003492 11.23893491 -10.99076489 8.19082266 -8.46875 5.26757812 C-5.6171965 2.15463222 -4.2730132 0.73457418 0 0 Z " fill="#D3D7D6" transform="translate(120.4765625,209.40234375)"/>
<path d="M0 0 C2.1781274 1.77150571 3.98011776 3.41131478 5.875 5.4375 C6.37257812 5.94087891 6.87015625 6.44425781 7.3828125 6.96289062 C11 10.70429473 11 10.70429473 11 13 C11.66 13 12.32 13 13 13 C14.34261242 19.46895075 14.34261242 19.46895075 12.75 21.9375 C11 23 11 23 8 23 C8.391875 21.906875 8.78375 20.81375 9.1875 19.6875 C9.68146682 16.07374272 9.00770709 15.01070122 6.828125 11.984375 C5.88336543 10.95125543 4.91903581 9.93574553 3.9375 8.9375 C3.46014404 8.43629639 2.98278809 7.93509277 2.4909668 7.41870117 C-0.08692734 4.96808921 -1.477819 3.99536134 -5.078125 4.02734375 C-8.74410306 5.24770276 -11.69041841 7.00160874 -14.94921875 9.0390625 C-17 10 -17 10 -20 9 C-20.33 8.34 -20.66 7.68 -21 7 C-18.63508245 5.62497797 -16.26071484 4.27555542 -13.875 2.9375 C-13.20984375 2.54755859 -12.5446875 2.15761719 -11.859375 1.75585938 C-7.58202552 -0.61345676 -4.82827421 -1.82372314 0 0 Z " fill="#C8CCCC" transform="translate(202,65)"/>
<path d="M0 0 C1.41782145 0.06059066 2.83444466 0.14954123 4.25 0.25 C5.03890625 0.29640625 5.8278125 0.3428125 6.640625 0.390625 C9.88912153 1.22964066 10.96665063 2.32275666 13 5 C14.14843519 7.68926439 14.95989567 10.43742734 15.75 13.25 C15.97042969 13.99507812 16.19085938 14.74015625 16.41796875 15.5078125 C16.95681094 17.33519035 17.47998904 19.1671745 18 21 C20.31 21.33 22.62 21.66 25 22 C25 22.33 25 22.66 25 23 C27.97 23.33 30.94 23.66 34 24 C34 24.33 34 24.66 34 25 C31.06097651 25.13481759 28.12810441 25.23399416 25.1875 25.3125 C24.35412109 25.35439453 23.52074219 25.39628906 22.66210938 25.43945312 C20.347024 25.48594078 18.27008854 25.46057683 16 25 C14.0625 22.828125 14.0625 22.828125 13 20 C12.61457031 19.09121094 12.22914063 18.18242187 11.83203125 17.24609375 C11.49558594 16.31925781 11.15914062 15.39242187 10.8125 14.4375 C10.46832031 13.50808594 10.12414062 12.57867187 9.76953125 11.62109375 C9 9 9 9 9 5 C5.7 4.67 2.4 4.34 -1 4 C-0.67 2.68 -0.34 1.36 0 0 Z " fill="#C8CFCF" transform="translate(119,210)"/>
<path d="M0 0 C2.93140222 1.9276536 5.05728499 4.08017981 7 7 C8.18063919 13.95265301 5.97534854 22.62425312 3 29 C2.01 28.34 1.02 27.68 0 27 C0.80931744 19.71614301 0.80931744 19.71614301 1.6875 16.41796875 C3.19241933 10.9680614 3.19241933 10.9680614 1.25 5.8125 C-3.35662538 3.24342046 -6.95682328 4.01094981 -12 5 C-11 2 -11 2 -9.375 0.8125 C-5.89104736 -0.37937854 -3.67402776 -0.56044491 0 0 Z " fill="#D9E0DF" transform="translate(84,186)"/>
<path d="M0 0 C4.20689169 0.57732875 7.52213587 1.8200946 11.359375 3.56640625 C16.04561504 5.85567367 16.04561504 5.85567367 21.12890625 6.1875 C21.89267578 5.84912109 21.89267578 5.84912109 22.671875 5.50390625 C21.681875 7.15390625 20.691875 8.80390625 19.671875 10.50390625 C14.05792739 9.78330999 9.57988117 7.81522716 4.4765625 5.46484375 C1.53534942 4.45713008 0.48918204 4.34997657 -2.328125 5.50390625 C-5.44378315 7.17572282 -7.95333631 8.8791398 -10.328125 11.50390625 C-10.988125 11.17390625 -11.648125 10.84390625 -12.328125 10.50390625 C-10.99952165 8.81679088 -9.63903592 7.15475076 -8.265625 5.50390625 C-7.13447266 4.11171875 -7.13447266 4.11171875 -5.98046875 2.69140625 C-3.328125 0.50390625 -3.328125 0.50390625 0 0 Z " fill="#CED2D2" transform="translate(75.328125,70.49609375)"/>
<path d="M0 0 C-0.99 0.33 -1.98 0.66 -3 1 C-3 1.66 -3 2.32 -3 3 C-3.79664063 2.855625 -4.59328125 2.71125 -5.4140625 2.5625 C-7.00347656 2.2840625 -7.00347656 2.2840625 -8.625 2 C-9.66914063 1.814375 -10.71328125 1.62875 -11.7890625 1.4375 C-14.90574865 1.01284203 -17.85930812 0.92454794 -21 1 C-21.8353125 2.670625 -21.8353125 2.670625 -22.6875 4.375 C-24.25326802 7.15297552 -24.81895484 7.90536276 -27.75 9.4375 C-28.86375 9.7159375 -28.86375 9.7159375 -30 10 C-28.63539407 4.91374154 -26.41103785 0.96861134 -23 -3 C-17.07941978 -5.96029011 -6.16625291 -2.05541764 0 0 Z " fill="#D2D9D8" transform="translate(172,48)"/>
<path d="M0 0 C0.33 0 0.66 0 1 0 C1.23433319 5.74116324 1.02996747 10.5867534 -1 16 C-3.34852528 17.17426264 -4.73774065 17.11508173 -7.3515625 17.09765625 C-8.20234375 17.09443359 -9.053125 17.09121094 -9.9296875 17.08789062 C-10.81914062 17.07951172 -11.70859375 17.07113281 -12.625 17.0625 C-13.5221875 17.05798828 -14.419375 17.05347656 -15.34375 17.04882812 C-17.56256648 17.03702591 -19.78125018 17.02056155 -22 17 C-22 16.67 -22 16.34 -22 16 C-13.09 15.01 -13.09 15.01 -4 14 C-3.71125 12.06125 -3.4225 10.1225 -3.125 8.125 C-2.25 2.25 -2.25 2.25 0 0 Z " fill="#DCDFDF" transform="translate(160,217)"/>
<path d="M0 0 C-1.06125102 6.28372312 -2.3614472 11.3614472 -7 16 C-9.35694954 15.90968426 -11.71153582 15.75311872 -14.0625 15.5625 C-15.35285156 15.46066406 -16.64320313 15.35882813 -17.97265625 15.25390625 C-19.47119141 15.12822266 -19.47119141 15.12822266 -21 15 C-21 14.67 -21 14.34 -21 14 C-18.36 14 -15.72 14 -13 14 C-13 13.34 -13 12.68 -13 12 C-11.02 12 -9.04 12 -7 12 C-6.89042969 11.38511719 -6.78085938 10.77023438 -6.66796875 10.13671875 C-6.50941406 9.32847656 -6.35085937 8.52023438 -6.1875 7.6875 C-6.03667969 6.88699219 -5.88585937 6.08648437 -5.73046875 5.26171875 C-4.72356577 2.14408867 -3.45649214 0 0 0 Z " fill="#C7CCCC" transform="translate(231,168)"/>
<path d="M0 0 C3.30171338 4.95257007 3.11722879 9.45651993 3.0625 15.3125 C3.05347656 16.56675781 3.04445313 17.82101563 3.03515625 19.11328125 C3.01775391 20.54220703 3.01775391 20.54220703 3 22 C0.69 23.32 -1.62 24.64 -4 26 C-3.690625 25.484375 -3.38125 24.96875 -3.0625 24.4375 C-0.23591572 17.95298313 -0.94580894 10.84259436 -1.0625 3.9140625 C-1 1 -1 1 0 0 Z " fill="#E4E9E9" transform="translate(99,55)"/>
<path d="M0 0 C2.64453125 -0.328125 2.64453125 -0.328125 5.8125 -0.25 C6.85019531 -0.23453125 7.88789063 -0.2190625 8.95703125 -0.203125 C11.72921322 -0.01807563 14.29580632 0.38018481 17 1 C17 1.66 17 2.32 17 3 C12.05 3 7.1 3 2 3 C1.67 3.99 1.34 4.98 1 6 C0.01 6 -0.98 6 -2 6 C-2 3 -2 3 0 0 Z " fill="#E9EFEF" transform="translate(201,179)"/>
<path d="M0 0 C0.66 0.33 1.32 0.66 2 1 C1.67 1.33 1.34 1.66 1 2 C1.66 2.66 2.32 3.32 3 4 C1.62714844 4.38091797 1.62714844 4.38091797 0.2265625 4.76953125 C-0.96195313 5.11371094 -2.15046875 5.45789062 -3.375 5.8125 C-4.55835937 6.14894531 -5.74171875 6.48539063 -6.9609375 6.83203125 C-10.2599304 7.76408028 -10.2599304 7.76408028 -12 11 C-12.66 10.34 -13.32 9.68 -14 9 C-13.9296875 7.01171875 -13.9296875 7.01171875 -13 5 C-10.8203125 3.76953125 -10.8203125 3.76953125 -8.125 2.8125 C-7.24070312 2.48894531 -6.35640625 2.16539063 -5.4453125 1.83203125 C-3.63230866 1.21514656 -1.81680397 0.60560132 0 0 Z " fill="#CFD5D5" transform="translate(112,47)"/>
<path d="M0 0 C0.33 0.99 0.66 1.98 1 3 C-2.38370684 6.38370684 -6.2332093 6.05529986 -10.8125 6.0625 C-12.20839779 6.04655989 -13.60427948 6.02736707 -15 6 C-14.67 5.34 -14.34 4.68 -14 4 C-13.01 4 -12.02 4 -11 4 C-11 3.34 -11 2.68 -11 2 C-9.93458984 1.90912109 -9.93458984 1.90912109 -8.84765625 1.81640625 C-7.46900391 1.69072266 -7.46900391 1.69072266 -6.0625 1.5625 C-5.14597656 1.48128906 -4.22945312 1.40007812 -3.28515625 1.31640625 C-1.03840268 1.23955024 -1.03840268 1.23955024 0 0 Z " fill="#DBDFDF" transform="translate(70,112)"/>
<path d="M0 0 C0.66 0.33 1.32 0.66 2 1 C1.65514457 3.8842454 1.21744593 4.8207818 -1.06640625 6.703125 C-1.89011719 7.21359375 -2.71382812 7.7240625 -3.5625 8.25 C-4.38878906 8.77078125 -5.21507812 9.2915625 -6.06640625 9.828125 C-7.02353516 10.40820312 -7.02353516 10.40820312 -8 11 C-6.92997562 5.86825042 -4.34454408 2.89636272 0 0 Z " fill="#CED2D2" transform="translate(199,210)"/>
<path d="M0 0 C0.33 0.66 0.66 1.32 1 2 C-0.07050218 3.48847916 -1.15692244 4.9655195 -2.25 6.4375 C-3.15492187 7.67306641 -3.15492187 7.67306641 -4.078125 8.93359375 C-6.10483324 11.11271704 -7.0991395 11.64701919 -10 12 C-9.49452628 7.91944849 -7.49911118 6.33727705 -4.4375 3.75 C-3.61121094 3.04359375 -2.78492187 2.3371875 -1.93359375 1.609375 C-1.29550781 1.07828125 -0.65742187 0.5471875 0 0 Z " fill="#E1E7E6" transform="translate(70,76)"/>
<path d="M0 0 C1.32 0.66 2.64 1.32 4 2 C3.2884375 3.0828125 3.2884375 3.0828125 2.5625 4.1875 C1.05847097 6.89475226 0.43400818 8.96194275 0 12 C-1.5625 10.9375 -1.5625 10.9375 -3 9 C-2.66666667 2.66666667 -2.66666667 2.66666667 0 0 Z " fill="#C7CACA" transform="translate(162,209)"/>
<path d="M0 0 C0.66 0.33 1.32 0.66 2 1 C1.00233891 3.49415272 0.31383315 4.78740335 -1.9375 6.3125 C-4 7 -4 7 -7 6 C-7.33 5.34 -7.66 4.68 -8 4 C-6.71349294 3.30289269 -5.42059335 2.61757124 -4.125 1.9375 C-3.40570313 1.55464844 -2.68640625 1.17179687 -1.9453125 0.77734375 C-1.30335938 0.52082031 -0.66140625 0.26429687 0 0 Z " fill="#C7CACA" transform="translate(189,68)"/>
<path d="M0 0 C-0.33 0.66 -0.66 1.32 -1 2 C-6.28 2 -11.56 2 -17 2 C-17 1.67 -17 1.34 -17 1 C-14.73052303 0.63724344 -12.45935265 0.28506814 -10.1875 -0.0625 C-8.92292969 -0.25972656 -7.65835938 -0.45695313 -6.35546875 -0.66015625 C-3 -1 -3 -1 0 0 Z " fill="#FBFDFD" transform="translate(155,232)"/>
<path d="M0 0 C-0.66 2.97 -1.32 5.94 -2 9 C-2.99 8.01 -3.98 7.02 -5 6 C-4.8125 3.375 -4.8125 3.375 -4 1 C-2 0 -2 0 0 0 Z " fill="#C0C5C5" transform="translate(231,168)"/>
<path d="M0 0 C0.99 0.33 1.98 0.66 3 1 C2.67 1.99 2.34 2.98 2 4 C-1.5625 5.6875 -1.5625 5.6875 -5 7 C-3.75023244 3.34683329 -3.32901247 2.21934164 0 0 Z " fill="#E1E4E4" transform="translate(194,65)"/>
<path d="M0 0 C-1.1875 2 -1.1875 2 -3 4 C-5.6875 4.25 -5.6875 4.25 -8 4 C-7 1 -7 1 -4.5625 -0.25 C-2 -1 -2 -1 0 0 Z " fill="#E1ECEC" transform="translate(171,207)"/>
<path d="M0 0 C0.6875 1.8125 0.6875 1.8125 1 4 C-0.4375 5.75 -0.4375 5.75 -2 7 C-2.99 6.34 -3.98 5.68 -5 5 C-3.35 3.35 -1.7 1.7 0 0 Z " fill="#CDD5D5" transform="translate(212,86)"/>
<path d="M0 0 C0.99 0 1.98 0 3 0 C2.8125 2.375 2.8125 2.375 2 5 C-0.5625 6.3125 -0.5625 6.3125 -3 7 C-1.125 1.125 -1.125 1.125 0 0 Z " fill="#BFC1C1" transform="translate(145,51)"/>
<path d="M0 0 C1.125 3.75 1.125 3.75 0 6 C-1.32 6 -2.64 6 -4 6 C-2.25 1.125 -2.25 1.125 0 0 Z " fill="#E0E5E5" transform="translate(209,91)"/>
<path d="M0 0 C0.33 0.99 0.66 1.98 1 3 C0.34 3.66 -0.32 4.32 -1 5 C-2.32 5 -3.64 5 -5 5 C-4 2 -4 2 -1.9375 0.8125 C-1.298125 0.544375 -0.65875 0.27625 0 0 Z " fill="#EFF8F8" transform="translate(70,112)"/>
</svg>
