<?xml version="1.0" encoding="UTF-8"?>
<svg version="1.1" xmlns="http://www.w3.org/2000/svg" width="511" height="181">
<path d="M0 0 C1.62882908 0.41468984 3.25783543 0.82868397 4.88700867 1.24201965 C8.28221486 2.10677146 11.67472966 2.98123836 15.06567383 3.86254883 C19.39915078 4.98776954 23.73893613 6.08608329 28.08115864 7.17699718 C31.43940713 8.02424662 34.7936018 8.88672744 38.14681053 9.7536869 C39.74544605 10.16485448 41.34535886 10.57109035 42.946558 10.97215843 C45.18529337 11.53511896 47.41766451 12.11872127 49.6496582 12.70776367 C50.91775833 13.03419357 52.18585846 13.36062347 53.49238586 13.69694519 C58.84554891 15.74506815 62.06787303 18.37435257 64.82421875 23.51953125 C68.02936236 33.74912134 66.0109061 44.3589641 61.94921875 54.01953125 C59.11088683 59.34626376 56.00910672 63.59666586 50.94921875 67.01953125 C52.18671875 67.43203125 53.42421875 67.84453125 54.69921875 68.26953125 C59.94904021 70.27872218 62.11847369 72.38771059 64.69921875 77.45703125 C68.12089314 87.66534158 65.99995642 98.33789199 61.94921875 108.01953125 C56.43267157 118.76646467 48.14562651 122.672381 37.25 126.8125 C36.13739304 127.24460281 35.02478607 127.67670563 33.87846375 128.12190247 C30.3430698 129.4929322 26.8026694 130.85042545 23.26171875 132.20703125 C19.71117671 133.57709957 16.16171759 134.94992474 12.61283875 136.32429504 C10.40929699 137.17659808 8.20459246 138.02590236 5.99861145 138.87187195 C5.00044907 139.25599747 4.00228668 139.64012299 2.97387695 140.03588867 C2.09786331 140.37166428 1.22184967 140.70743988 0.31929016 141.0533905 C-4.62961471 143.01142221 -4.62961471 143.01142221 -8.05078125 147.01953125 C-15.77618681 146.50720541 -23.11621641 145.30977973 -30.65332031 143.56689453 C-31.7555896 143.31797455 -32.85785889 143.06905457 -33.99353027 142.81259155 C-37.60281938 141.99547821 -41.2096423 141.16802612 -44.81640625 140.33984375 C-47.33972469 139.76509988 -49.86314351 139.19079655 -52.38665771 138.61691284 C-57.65955865 137.41606566 -62.93128984 136.21026439 -68.20214844 135.00048828 C-74.2800515 133.60556639 -80.36016605 132.22063177 -86.44152665 130.84086812 C-92.31782595 129.50734112 -98.1923711 128.16626207 -104.06621552 126.82195663 C-106.55521371 126.25309159 -109.04465726 125.68617144 -111.53455353 125.12125015 C-115.01316277 124.33095805 -118.48969627 123.53209949 -121.96582031 122.73095703 C-123.50112396 122.38481354 -123.50112396 122.38481354 -125.06744385 122.03167725 C-130.35347334 120.80329436 -135.14331134 119.34554587 -140.05078125 117.01953125 C-140.05078125 115.36953125 -140.05078125 113.71953125 -140.05078125 112.01953125 C-130.14807773 107.71131594 -120.17761471 103.59572251 -110.15087891 99.58544922 C-107.76052524 98.62841379 -105.37244957 97.66583121 -102.984375 96.703125 C-101.45976984 96.0921124 -99.93503525 95.48142262 -98.41015625 94.87109375 C-97.69881531 94.58368317 -96.98747437 94.29627258 -96.25457764 94.00015259 C-91.27967025 92.01953125 -91.27967025 92.01953125 -89.05078125 92.01953125 C-88.72078125 68.25953125 -88.39078125 44.49953125 -88.05078125 20.01953125 C-67.61328125 11.95703125 -67.61328125 11.95703125 -61.27954102 9.46069336 C-60.41417221 9.11881485 -59.54880341 8.77693634 -58.6572113 8.42469788 C-56.87027174 7.71919902 -55.08239383 7.01607455 -53.2938385 6.31468201 C-48.90368154 4.58480913 -44.54437379 2.81959299 -40.23388672 0.89892578 C-39.48550034 0.57098526 -38.73711395 0.24304474 -37.96604919 -0.09483337 C-36.60762436 -0.69479117 -35.25587548 -1.31028652 -33.91395569 -1.94630432 C-22.78595897 -6.82601668 -11.15760593 -2.89741859 0 0 Z " fill="#98989A" transform="translate(140.05078125,21.98046875)"/>
<path d="M0 0 C1.63390938 0.43230171 1.63390938 0.43230171 3.30082703 0.87333679 C7.39565735 1.95633826 11.49099229 3.03742112 15.58647156 4.1179657 C17.34895626 4.58325362 19.11130913 5.04904127 20.8735199 5.5153656 C31.19881173 8.2472974 41.51854708 10.9758769 51.9486084 13.28552246 C60.11416787 15.13803967 67.89894068 17.61733549 76 20 C76 36.5 76 53 76 70 C69.74334176 68.6096315 63.52637034 67.17968456 57.3125 65.625 C56.44979492 65.40948486 55.58708984 65.19396973 54.69824219 64.97192383 C47.41822035 63.13706118 40.19869839 61.13338909 33 59 C33.33 59.99 33.66 60.98 34 62 C36.08574836 62.9155731 36.08574836 62.9155731 38.671875 63.46484375 C39.64068604 63.70557617 40.60949707 63.94630859 41.60766602 64.19433594 C42.64463623 64.43958008 43.68160645 64.68482422 44.75 64.9375 C46.85859339 65.46014419 48.96667129 65.98487269 51.07421875 66.51171875 C52.6063501 66.89142822 52.6063501 66.89142822 54.16943359 67.27880859 C61.55739139 69.16116389 68.77040853 71.59013618 76 74 C76 90.5 76 107 76 124 C70.38582013 122.75240447 65.31651395 121.56392496 59.93554688 119.76928711 C58.97038147 119.44939064 58.97038147 119.44939064 57.98571777 119.12303162 C55.89523359 118.42886893 53.80696098 117.72831205 51.71875 117.02734375 C50.25437476 116.53904552 48.78989542 116.05105939 47.32531738 115.56336975 C44.27516861 114.54662376 41.22606814 113.52681305 38.17773438 112.50463867 C34.26415247 111.19249912 30.34835766 109.88711362 26.4318161 108.58383846 C23.41658442 107.57987186 20.40235435 106.57292692 17.38844299 105.56500435 C15.94375859 105.08215806 14.49880234 104.6001244 13.05357361 104.11890984 C11.04447715 103.449334 9.03671962 102.7758927 7.02929688 102.10131836 C5.31462219 101.52745644 5.31462219 101.52745644 3.56530762 100.94200134 C1 100 1 100 0 99 C-0.09532328 95.92545239 -0.1255138 92.87340842 -0.11352539 89.79858398 C-0.11367142 88.83283447 -0.11381744 87.86708496 -0.1139679 86.87207031 C-0.11326834 83.66338901 -0.10547397 80.45476497 -0.09765625 77.24609375 C-0.09579222 75.02791882 -0.09436825 72.80974348 -0.09336853 70.59156799 C-0.08954216 64.74059929 -0.07971086 58.88965523 -0.06866455 53.03869629 C-0.05845299 47.07332696 -0.05387146 41.10795367 -0.04882812 35.14257812 C-0.03808869 23.42837456 -0.02101085 11.71418933 0 0 Z " fill="#F05F53" transform="translate(52,42)"/>
<path d="M0 0 C4.55056287 3.38646539 6.84758295 7.51272188 8 13 C9.30487861 25.01443108 6.54211236 35.96023012 -0.14453125 46 C-5.82391075 52.12177327 -12.89246731 54.85008748 -20.5234375 57.79296875 C-21.6241861 58.22507156 -22.72493469 58.65717438 -23.85903931 59.10237122 C-26.17860573 60.01036662 -28.50005115 60.9135749 -30.82324219 61.81225586 C-34.36109246 63.18211499 -37.89176728 64.56931175 -41.421875 65.95898438 C-43.6844901 66.84218595 -45.94749838 67.72438108 -48.2109375 68.60546875 C-49.25808929 69.01693649 -50.30524109 69.42840424 -51.38412476 69.8523407 C-52.38190948 70.23646622 -53.37969421 70.62059174 -54.40771484 71.01635742 C-55.27262543 71.35213303 -56.13753601 71.68790863 -57.02865601 72.03385925 C-60.93828656 73.30508648 -64.9867871 74.10817491 -69 75 C-69 58.5 -69 42 -69 25 C-58.87297558 20.49910026 -58.87297558 20.49910026 -55.20556641 19.04882812 C-54.38085846 18.72168823 -53.55615051 18.39454834 -52.70645142 18.05749512 C-51.4170314 17.54950378 -51.4170314 17.54950378 -50.1015625 17.03125 C-49.18595551 16.66906372 -48.27034851 16.30687744 -47.32699585 15.93371582 C-45.40293336 15.1731462 -43.47849957 14.41351524 -41.55371094 13.65478516 C-38.6389509 12.50550081 -35.72564685 11.35258509 -32.8125 10.19921875 C-4.5473219 -0.97442612 -4.5473219 -0.97442612 0 0 Z " fill="#EAE7E7" transform="translate(198,91)"/>
<path d="M0 0 C4.8100324 4.9474619 6.28907226 10.26561573 6.375 17.0625 C6.18497814 27.47807339 3.22639053 38.21071168 -4 46 C-8.57647732 49.89612886 -13.27804098 52.07730829 -19 53.875 C-30.95491456 57.83374676 -42.65891327 62.43386629 -54.39575195 66.98846436 C-56.13584726 67.66369126 -57.87613979 68.33841018 -59.61665344 69.01255798 C-61.22895008 69.63730929 -62.84061688 70.26368899 -64.45158386 70.89186096 C-69.88842781 73 -69.88842781 73 -71 73 C-71 56.5 -71 40 -71 23 C-60.00854739 18.42022808 -48.98087023 13.95762621 -37.91650391 9.56005859 C-35.71043281 8.68201546 -33.50536243 7.80145414 -31.30126953 6.91845703 C-28.09112657 5.63259346 -24.87797746 4.35452662 -21.6640625 3.078125 C-20.68273346 2.68336975 -19.70140442 2.2886145 -18.69033813 1.88189697 C-5.64887579 -3.27040177 -5.64887579 -3.27040177 0 0 Z " fill="#EAE7E7" transform="translate(200,39)"/>
<path d="M0 0 C0.33 8.58 0.66 17.16 1 26 C25.75 34.25 50.5 42.5 76 51 C76 34.5 76 18 76 1 C76.33 1 76.66 1 77 1 C77 17.5 77 34 77 51 C78.32 50.67 79.64 50.34 81 50 C81 50.99 81 51.98 81 53 C80.67 53.33 80.34 53.66 80 54 C72.3136808 53.87213366 64.85433657 52.27169644 57.39746094 50.54736328 C56.29519165 50.2984433 55.19292236 50.04952332 54.05725098 49.7930603 C50.44796187 48.97594696 46.84113895 48.14849487 43.234375 47.3203125 C40.71105656 46.74556863 38.18763774 46.1712653 35.66412354 45.59738159 C30.3912226 44.39653441 25.11949141 43.19073314 19.84863281 41.98095703 C13.77072975 40.58603514 7.6906152 39.20110052 1.6092546 37.82133687 C-4.2670447 36.48780987 -10.14158985 35.14673082 -16.01543427 33.80242538 C-18.50443246 33.23356034 -20.99387601 32.66664019 -23.48377228 32.1017189 C-26.96238152 31.3114268 -30.43891502 30.51256824 -33.91503906 29.71142578 C-34.93857483 29.48066345 -35.9621106 29.24990112 -37.0166626 29.012146 C-42.30269209 27.78376311 -47.09253009 26.32601462 -52 24 C-52 22.35 -52 20.7 -52 19 C-42.10368505 14.70744223 -32.1580347 10.54861665 -22.1550293 6.51098633 C-20.57205849 5.87004401 -18.9907112 5.22507955 -17.41088867 4.57641602 C-15.09650685 3.62649553 -12.77748479 2.68887948 -10.45703125 1.75390625 C-9.75085159 1.46133438 -9.04467194 1.16876251 -8.3170929 0.86732483 C-3.34223521 -1.1140784 -3.34223521 -1.1140784 0 0 Z " fill="#ABABAD" transform="translate(52,115)"/>
<path d="M0 0 C12 0 12 0 14.640625 2.3515625 C15.17171875 3.43179688 15.7028125 4.51203125 16.25 5.625 C16.55099609 6.19951904 16.85199219 6.77403809 17.16210938 7.3659668 C17.80205669 8.58862902 18.42411474 9.82079725 19.02929688 11.06103516 C20.3464301 13.6919889 21.82060493 16.21965158 23.30566406 18.75854492 C24.89489691 21.4916226 26.4434224 24.24819317 28 27 C28 18.09 28 9.18 28 0 C31.3 0 34.6 0 38 0 C38 13.86 38 27.72 38 42 C33.71 42 29.42 42 25 42 C20.05 33.42 15.1 24.84 10 16 C9.67 24.58 9.34 33.16 9 42 C6.03 42 3.06 42 0 42 C0 28.14 0 14.28 0 0 Z " fill="#373435" transform="translate(409,38)"/>
<path d="M0 0 C23.33333333 0 23.33333333 0 29.0625 4.6875 C30.77352525 8.90802894 30.65574581 13.17327953 29.125 17.4375 C28 19 28 19 26 20 C26.825 20.639375 27.65 21.27875 28.5 21.9375 C31.4717498 25.57789351 31.63831126 27.30885847 31.3515625 31.8515625 C30.85197402 34.90460324 30.05236 36.67399201 28 39 C22.41963309 42.75950043 17.08447387 42.34877277 10.625 42.1875 C5.365625 42.0946875 5.365625 42.0946875 0 42 C0 28.14 0 14.28 0 0 Z M9 9 C9 11.31 9 13.62 9 16 C10.64574566 16.02688151 12.29161413 16.04634123 13.9375 16.0625 C15.31228516 16.07990234 15.31228516 16.07990234 16.71484375 16.09765625 C18.96593327 16.25949049 18.96593327 16.25949049 20 15 C20.04063832 13.33382885 20.042721 11.66611905 20 10 C17.59454362 8.79727181 16.05003047 8.89928528 13.375 8.9375 C12.55773437 8.94652344 11.74046875 8.95554687 10.8984375 8.96484375 C10.27195313 8.97644531 9.64546875 8.98804687 9 9 Z M9 25 C9 27.97 9 30.94 9 34 C10.423125 34.061875 11.84625 34.12375 13.3125 34.1875 C14.11300781 34.22230469 14.91351563 34.25710937 15.73828125 34.29296875 C18.06800729 34.1788224 18.06800729 34.1788224 19.80859375 32.65234375 C21.28922311 30.98150682 21.28922311 30.98150682 20.75 28.375 C20.22254355 26.0687593 20.22254355 26.0687593 19 25 C17.31391034 24.92794489 15.62499341 24.91613932 13.9375 24.9375 C13.01839844 24.94652344 12.09929687 24.95554687 11.15234375 24.96484375 C10.44207031 24.97644531 9.73179687 24.98804687 9 25 Z " fill="#373435" transform="translate(234,92)"/>
<path d="M0 0 C4.07858471 3.41841468 6.81681333 7.3017401 7.8125 12.6328125 C8.42642163 20.3835731 8.22879993 27.95467054 3.52734375 34.4140625 C-0.86870258 38.97875511 -6.0686187 40.77450913 -12.25 41.25 C-18.78805033 40.81412998 -24.30766696 38.69233304 -29 34 C-33.56948755 26.32978875 -34.03533098 18.43363559 -31.9375 9.875 C-30.24396894 4.68256987 -27.61283615 1.83714224 -23 -1 C-15.75847368 -4.46333868 -6.9225599 -4.10981451 0 0 Z M-19.5 7.8125 C-22.00700932 11.46855525 -22.18521653 14.5453048 -22.25 18.875 C-22.27578125 19.90367188 -22.3015625 20.93234375 -22.328125 21.9921875 C-21.95207858 25.4392797 -21.06101514 27.23592829 -19 30 C-15.2626144 32.4915904 -13.42668417 32.45793285 -9 32 C-5.61060444 29.86320715 -4.27417443 28.8225233 -3 25 C-2.88020855 23.04433497 -2.82471504 21.08429234 -2.8125 19.125 C-2.79123047 17.58199219 -2.79123047 17.58199219 -2.76953125 16.0078125 C-3.00886932 12.8842478 -3.54854857 10.76788411 -5 8 C-9.58813479 4.94124347 -14.92004507 4.49203268 -19.5 7.8125 Z " fill="#373435" transform="translate(308,40)"/>
<path d="M0 0 C4.71016122 2.55048031 7.60348661 6.10706943 9.9140625 10.84375 C11.6966145 19.01378002 11.4741686 26.79242078 7.6640625 34.28125 C3.68219007 39.25859054 -0.68649945 41.83393472 -6.94921875 42.6015625 C-13.26930769 42.86380685 -18.16543476 42.0460605 -23.3359375 38.28125 C-28.58598948 32.89303876 -29.68257187 27.69629405 -29.6484375 20.34375 C-29.66455078 19.65345703 -29.68066406 18.96316406 -29.69726562 18.25195312 C-29.70262023 12.60284792 -28.46666879 8.59115643 -24.6171875 4.41796875 C-24.029375 3.93972656 -23.4415625 3.46148437 -22.8359375 2.96875 C-22.248125 2.47761719 -21.6603125 1.98648438 -21.0546875 1.48046875 C-15.60423953 -2.32245745 -6.13047281 -1.88629933 0 0 Z M-17.3359375 10.28125 C-20.18029744 14.75095848 -19.74890702 20.16548477 -19.3359375 25.28125 C-18.35492257 28.8279963 -17.17701332 30.95495627 -14.3359375 33.28125 C-12.19507306 33.75460483 -12.19507306 33.75460483 -9.8984375 33.65625 C-8.75568359 33.66785156 -8.75568359 33.66785156 -7.58984375 33.6796875 C-4.71155315 33.17087356 -3.40139589 32.34670839 -1.3359375 30.28125 C1.06223812 23.82702953 1.2244294 17.6265071 -1.3359375 11.28125 C-3.97423138 8.34981236 -5.43624324 7.41245541 -9.3359375 6.84375 C-12.78359946 7.34653404 -14.62375248 8.09643429 -17.3359375 10.28125 Z " fill="#373435" transform="translate(350.3359375,92.71875)"/>
<path d="M0 0 C20 0 20 0 29 4 C33.77749575 9.6732762 35.15681049 13.52042118 35.25 20.8125 C35.27578125 22.01519531 35.3015625 23.21789062 35.328125 24.45703125 C34.82755157 29.86203241 32.84889028 33.76782515 28.6875 37.25 C28.13449219 37.72953125 27.58148438 38.2090625 27.01171875 38.703125 C18.5020307 44.18898215 10.39841946 42 0 42 C0 28.14 0 14.28 0 0 Z M10 8 C10 16.58 10 25.16 10 34 C18.45051123 33.86635988 18.45051123 33.86635988 22 30.625 C25.49976055 26.03156428 25.53931851 21.56968937 25 16 C23.27158115 11.81540699 21.15177657 9.79281261 17 8 C14.69 8 12.38 8 10 8 Z " fill="#373435" transform="translate(331,38)"/>
<path d="M0 0 C-1.875 5.75 -1.875 5.75 -3 8 C-3.639375 7.835 -4.27875 7.67 -4.9375 7.5 C-10.12705421 6.65272584 -14.96575352 6.22092688 -19.9375 8.125 C-23.5022734 11.36570309 -23.88877969 14.7765766 -24.3125 19.4375 C-23.94113854 23.67102068 -22.95377875 26.24273317 -21 30 C-18.70370006 31.14814997 -16.92301914 31.30769809 -14.375 31.5625 C-13.55773437 31.64628906 -12.74046875 31.73007813 -11.8984375 31.81640625 C-10.95871094 31.90728516 -10.95871094 31.90728516 -10 32 C-10 29.36 -10 26.72 -10 24 C-12.64 24 -15.28 24 -18 24 C-18 21.36 -18 18.72 -18 16 C-12.06 16 -6.12 16 0 16 C0 23.26 0 30.52 0 38 C-7.9651188 41.18604752 -16.90090292 42.43017419 -25.0625 39.14453125 C-29.48820032 36.53015586 -32.07039024 32.81696452 -34.375 28.3125 C-35.84527625 20.52003587 -36.10890435 12.94263149 -32 6 C-22.94226703 -4.48790133 -12.22952766 -4.75592742 0 0 Z " fill="#373435" transform="translate(497,40)"/>
<path d="M0 0 C3.3 0 6.6 0 10 0 C10.33 4.95 10.66 9.9 11 15 C11.73863281 13.9171875 12.47726562 12.834375 13.23828125 11.71875 C21.24770823 0.53770686 21.24770823 0.53770686 26.24609375 -0.99609375 C28.97638135 -0.94283716 31.36433021 -0.70042406 34 0 C32.71706583 2.76477577 31.32312399 4.97795817 29.328125 7.27734375 C28.82925781 7.87353516 28.33039063 8.46972656 27.81640625 9.08398438 C26.76750977 10.32513495 25.70743374 11.55691887 24.63671875 12.77929688 C24.14300781 13.37677734 23.64929688 13.97425781 23.140625 14.58984375 C22.68204102 15.12472412 22.22345703 15.65960449 21.75097656 16.21069336 C20.74657018 18.07962911 20.74657018 18.07962911 21.70361328 20.44091797 C22.91192538 22.8261397 24.17713212 25.09345292 25.6015625 27.35546875 C26.09140625 28.14244141 26.58125 28.92941406 27.0859375 29.74023438 C28.11947446 31.38366307 29.15333323 33.02688943 30.1875 34.66992188 C30.91839844 35.84458008 30.91839844 35.84458008 31.6640625 37.04296875 C32.11217285 37.75477295 32.5602832 38.46657715 33.02197266 39.19995117 C34 41 34 41 34 43 C30.13303837 43.23775171 26.72691548 43.11356021 23 42 C19.95246799 39.04514785 18.01891 35.70864989 16 32 C14.52479997 29.24098096 14.52479997 29.24098096 13 27 C12.34 27 11.68 27 11 27 C10.67 31.95 10.34 36.9 10 42 C6.7 42 3.4 42 0 42 C0 28.14 0 14.28 0 0 Z " fill="#373435" transform="translate(424,92)"/>
<path d="M0 0 C1.10988281 -0.01417969 2.21976562 -0.02835937 3.36328125 -0.04296875 C6.7836836 0.19416843 9.49723443 0.96641499 12.6875 2.1875 C12.0275 4.4975 11.3675 6.8075 10.6875 9.1875 C5.89449867 10.57901652 1.53614218 9.87412689 -3.3125 9.1875 C-3.6425 10.5075 -3.9725 11.8275 -4.3125 13.1875 C-3.80460937 13.50203125 -3.29671875 13.8165625 -2.7734375 14.140625 C-0.61523923 15.48242617 1.53618734 16.83469258 3.6875 18.1875 C4.780625 18.868125 5.87375 19.54875 7 20.25 C12.32656797 24.09008389 12.32656797 24.09008389 13.0390625 28.23046875 C13.30201412 32.36157703 13.09153208 35.29770172 10.5 38.625 C5.21013578 43.44465407 0.48206831 43.49272173 -6.41796875 43.390625 C-9.64261152 43.16433428 -12.3560343 42.50148476 -15.3125 41.1875 C-15.3125 37.8875 -15.3125 34.5875 -15.3125 31.1875 C-14.33667969 31.41566406 -13.36085938 31.64382812 -12.35546875 31.87890625 C-11.08316406 32.16636719 -9.81085938 32.45382813 -8.5 32.75 C-7.23542969 33.04003906 -5.97085937 33.33007812 -4.66796875 33.62890625 C-1.33045591 34.45333023 -1.33045591 34.45333023 1.6875 33.1875 C1.59984772 30.77648639 1.59984772 30.77648639 0.6875 28.1875 C-1.68942841 26.45720703 -1.68942841 26.45720703 -4.625 25.1875 C-12.05088994 21.40231875 -12.05088994 21.40231875 -14.3125 17.1875 C-15.47863653 12.5229539 -15.71041879 9.41240454 -13.3125 5.1875 C-9.25688621 0.47775496 -6.06143455 0.03495637 0 0 Z " fill="#373435" transform="translate(484.3125,91.8125)"/>
<path d="M0 0 C-0.52268466 2.76276177 -1.10869587 5.3260876 -2 8 C-2.825 7.835 -3.65 7.67 -4.5 7.5 C-11.82465833 6.22034387 -11.82465833 6.22034387 -18.4375 8.8125 C-21.90802604 13.67123646 -21.48655638 19.26199032 -21 25 C-19.62747293 28.11937969 -19.020457 29.4897715 -16 31 C-10.91830907 31.34555498 -5.99207975 31.02401636 -1 30 C-1 32.97 -1 35.94 -1 39 C-9.07787486 41.25121103 -16.69901823 42.11139105 -24.4375 38.3125 C-29.03877687 34.16012819 -31.78716719 29.94127959 -32.23828125 23.70703125 C-32.39559164 15.45237527 -32.43875522 8.83774445 -26.609375 2.484375 C-18.40190377 -5.03194076 -9.57012107 -3.64576041 0 0 Z " fill="#373435" transform="translate(264,40)"/>
<path d="M0 0 C1.10085938 -0.00515625 2.20171875 -0.0103125 3.3359375 -0.015625 C6.72332226 0.25794051 9.45944028 1.04498331 12.625 2.25 C11.965 5.22 11.305 8.19 10.625 11.25 C9.59375 10.92 8.5625 10.59 7.5 10.25 C4.06601113 9.30149904 1.20322822 8.70548701 -2.375 9.25 C-5.47664769 11.80024365 -7.10066416 13.42699247 -8.375 17.25 C-8.77648959 22.23594049 -8.82301984 26.76196362 -6.375 31.25 C-4.55712282 33.49258197 -4.55712282 33.49258197 -1.94921875 33.48046875 C-0.99660156 33.46628906 -0.04398437 33.45210937 0.9375 33.4375 C1.88238281 33.43105469 2.82726562 33.42460938 3.80078125 33.41796875 C6.49923557 33.25747977 8.99270247 32.84933915 11.625 32.25 C11.625 35.22 11.625 38.19 11.625 41.25 C5.19405498 44.0309492 -2.60233991 44.58332507 -9.25 42.125 C-14.45849734 38.9999016 -17.48045747 35.07550962 -19.375 29.25 C-20.22663794 21.05050912 -20.14025455 13.2359557 -15.375 6.25 C-10.57703354 1.5719827 -6.66609073 -0.03107735 0 0 Z " fill="#373435" transform="translate(395.375,91.75)"/>
<path d="M0 0 C3.3 0 6.6 0 10 0 C10 10.89 10 21.78 10 33 C15.28 33.33 20.56 33.66 26 34 C26 36.64 26 39.28 26 42 C17.42 42 8.84 42 0 42 C0 28.14 0 14.28 0 0 Z " fill="#373435" transform="translate(282,92)"/>
<path d="M0 0 C3.3 0 6.6 0 10 0 C10 13.86 10 27.72 10 42 C6.7 42 3.4 42 0 42 C0 28.14 0 14.28 0 0 Z " fill="#373435" transform="translate(382,38)"/>
<path d="M0 0 C-1.5567142 3.11342839 -4.61432751 3.50643193 -7.73828125 4.609375 C-9.2070544 5.14377875 -10.67528958 5.6796627 -12.14306641 6.21679688 C-13.3242807 6.64738403 -13.3242807 6.64738403 -14.52935791 7.08666992 C-18.82592492 8.67499544 -23.08970325 10.34669576 -27.35546875 12.015625 C-28.23969513 12.36089233 -29.12392151 12.70615967 -30.03494263 13.06188965 C-32.75283671 14.12363659 -35.47016917 15.18681251 -38.1875 16.25 C-40.04748906 16.97665716 -41.90751492 17.70322014 -43.76757812 18.4296875 C-47.15279996 19.75238768 -50.53800006 21.07514224 -53.92260742 22.39941406 C-54.99131828 22.81596756 -54.99131828 22.81596756 -56.08161926 23.24093628 C-57.69437149 23.8790691 -59.29486161 24.54806991 -60.89208984 25.22412109 C-68.37792091 27.97950343 -79.68638888 22.77325206 -86.96679688 20.59716797 C-90.92310545 19.43516859 -94.90053418 18.34792955 -98.875 17.25 C-100.43490342 16.81773572 -101.99479991 16.3854464 -103.5546875 15.953125 C-104.69164063 15.63859375 -105.82859375 15.3240625 -107 15 C-107.33 13.68 -107.66 12.36 -108 11 C-100.95598508 11.90934297 -94.22777571 13.39739603 -87.4375 15.4375 C-86.70934082 15.65575439 -85.98118164 15.87400879 -85.23095703 16.09887695 C-82.064108 17.05549212 -78.90437524 18.03022754 -75.75 19.02734375 C-74.821875 19.30707031 -73.89375 19.58679688 -72.9375 19.875 C-72.16277344 20.11992188 -71.38804688 20.36484375 -70.58984375 20.6171875 C-62.54324167 21.80657966 -55.42664347 18.4745502 -48.125 15.52734375 C-45.81778705 14.61894067 -43.5104929 13.7107438 -41.203125 12.80273438 C-37.5939003 11.36961648 -33.98650048 9.93210074 -30.38085938 8.48999023 C-26.8833606 7.09504096 -23.37964509 5.7167202 -19.875 4.33984375 C-18.8039502 3.90550522 -17.73290039 3.47116669 -16.62939453 3.02366638 C-10.79433635 0.73952535 -6.2724604 -0.52223497 0 0 Z " fill="#6D707B" transform="translate(193,90)"/>
<path d="M0 0 C1.32 0.33 2.64 0.66 4 1 C4.66 3.31 5.32 5.62 6 8 C6.99 5.36 7.98 2.72 9 0 C10.32 0.33 11.64 0.66 13 1 C13.66 3.31 14.32 5.62 15 8 C15.99 5.36 16.98 2.72 18 0 C18.99 0 19.98 0 21 0 C20.41632611 6.30367803 18.95928381 11.98660063 17 18 C16.01 18 15.02 18 14 18 C13.01 15.36 12.02 12.72 11 10 C9.68 12.64 8.36 15.28 7 18 C6.01 17.67 5.02 17.34 4 17 C2.83203125 13.9453125 2.83203125 13.9453125 1.8125 10.125 C1.46832031 8.86945313 1.12414062 7.61390625 0.76953125 6.3203125 C0 3 0 3 0 0 Z " fill="#F15F53" transform="translate(340,145)"/>
<path d="M0 0 C1.4540625 0.0309375 1.4540625 0.0309375 2.9375 0.0625 C3.2675 1.3825 3.5975 2.7025 3.9375 4.0625 C2.2875 4.0625 0.6375 4.0625 -1.0625 4.0625 C0.4225 4.990625 0.4225 4.990625 1.9375 5.9375 C2.9275 6.63875 3.9175 7.34 4.9375 8.0625 C4.9375 8.7225 4.9375 9.3825 4.9375 10.0625 C6.9175 10.0625 8.8975 10.0625 10.9375 10.0625 C8.9575 8.7425 6.9775 7.4225 4.9375 6.0625 C5.2675 4.4125 5.5975 2.7625 5.9375 1.0625 C12.6875 -0.0625 12.6875 -0.0625 14.9375 1.0625 C14.6075 2.0525 14.2775 3.0425 13.9375 4.0625 C11.4625 3.5675 11.4625 3.5675 8.9375 3.0625 C8.9375 3.7225 8.9375 4.3825 8.9375 5.0625 C9.865625 5.2790625 9.865625 5.2790625 10.8125 5.5 C12.9375 6.0625 12.9375 6.0625 14.9375 7.0625 C15.125 9.4375 15.125 9.4375 14.9375 12.0625 C11.06728884 14.64264077 9.3885289 13.87177798 4.9375 13.0625 C4.2775 13.0625 3.6175 13.0625 2.9375 13.0625 C2.6075 13.3925 2.2775 13.7225 1.9375 14.0625 C-0.40194736 13.77519945 -2.7364143 13.44313221 -5.0625 13.0625 C-5.0625 12.0725 -5.0625 11.0825 -5.0625 10.0625 C-3.4125 10.0625 -1.7625 10.0625 -0.0625 10.0625 C-1.7125 8.7425 -3.3625 7.4225 -5.0625 6.0625 C-3.98897059 0.08140756 -3.98897059 0.08140756 0 0 Z " fill="#F15F53" transform="translate(482.0625,148.9375)"/>
<path d="M0 0 C9.3347667 1.20506622 18.06733749 3.66338573 27.03466797 6.40380859 C33.64308386 8.40849824 40.12741625 10.23637958 47 11 C47 11.99 47 12.98 47 14 C42.48246218 15.32514443 39.31434157 14.5773267 34.8125 13.375 C34.12414062 13.19332275 33.43578125 13.01164551 32.7265625 12.82446289 C30.48118052 12.22759239 28.24071907 11.61412301 26 11 C24.41025107 10.57386487 22.82040636 10.14808688 21.23046875 9.72265625 C19.65333619 9.29541221 18.0765055 8.86705208 16.5 8.4375 C15.77143799 8.2401123 15.04287598 8.04272461 14.29223633 7.83935547 C9.41173152 6.48381464 4.72186881 4.83450984 0 3 C0 2.01 0 1.02 0 0 Z " fill="#716871" transform="translate(85,101)"/>
<path d="M0 0 C1.32 0 2.64 0 4 0 C4 5.94 4 11.88 4 18 C-0.33044541 18.86608908 -2.00607628 19.18738273 -6 18 C-8 16 -8 16 -8.3125 12.0625 C-8.23719217 9.46908648 -8.15247863 8.25680612 -6.8125 6 C-4.44004321 4.69105832 -2.6664882 4.78379825 0 5 C0 3.35 0 1.7 0 0 Z M-4 8 C-4.33 9.98 -4.66 11.96 -5 14 C-3.515 14.99 -3.515 14.99 -2 16 C-1.34 15.67 -0.68 15.34 0 15 C0 13.02 0 11.04 0 9 C-1.32 8.67 -2.64 8.34 -4 8 Z " fill="#F15F53" transform="translate(266,144)"/>
<path d="M0 0 C0.66 0.33 1.32 0.66 2 1 C1.67 1.99 1.34 2.98 1 4 C-1.31 4 -3.62 4 -6 4 C-4.49650603 7.00698793 -1.9581052 7.58257459 1 9 C2 10 2 10 2.3125 12.375 C2 15 2 15 0.4375 16.875 C-2.96881805 18.44714679 -5.40281913 17.76094211 -9 17 C-9 16.01 -9 15.02 -9 14 C-5.535 13.505 -5.535 13.505 -2 13 C-4.297221 11.25728062 -6.59866729 9.60088848 -9 8 C-9.375 5 -9.375 5 -9 2 C-5.54337669 -0.30441554 -4.05142119 -0.25860135 0 0 Z " fill="#F15F53" transform="translate(428,145)"/>
<path d="M0 0 C1.32 0 2.64 0 4 0 C4.33 3.3 4.66 6.6 5 10 C5.99 10 6.98 10 8 10 C8 6.7 8 3.4 8 0 C9.32 0 10.64 0 12 0 C12 4.29 12 8.58 12 13 C7.52025503 13.89594899 5.29090063 14.07272516 1 13 C-0.32229189 10.35541621 -0.09677194 8.32238699 -0.0625 5.375 C-0.05347656 4.37210938 -0.04445313 3.36921875 -0.03515625 2.3359375 C-0.02355469 1.56507813 -0.01195312 0.79421875 0 0 Z " fill="#F15F53" transform="translate(431,149)"/>
<path d="M0 0 C2.875 0.9375 2.875 0.9375 4.875 3.9375 C4.875 5.2575 4.875 6.5775 4.875 7.9375 C2.235 7.9375 -0.405 7.9375 -3.125 7.9375 C-3.125 8.5975 -3.125 9.2575 -3.125 9.9375 C-0.815 9.9375 1.495 9.9375 3.875 9.9375 C3.875 10.9275 3.875 11.9175 3.875 12.9375 C0.625 13.6875 0.625 13.6875 -3.125 13.9375 C-5.5625 12.375 -5.5625 12.375 -7.125 9.9375 C-7.74064756 6.24361466 -7.58562609 4.62843913 -5.5 1.5 C-3.125 -0.0625 -3.125 -0.0625 0 0 Z M-2.125 2.9375 C-2.455 3.5975 -2.785 4.2575 -3.125 4.9375 C-1.805 4.6075 -0.485 4.2775 0.875 3.9375 C-0.115 3.6075 -1.105 3.2775 -2.125 2.9375 Z " fill="#F15F53" transform="translate(278.125,149.0625)"/>
<path d="M0 0 C0 0.99 0 1.98 0 3 C-2.64 3.33 -5.28 3.66 -8 4 C-8 6.64 -8 9.28 -8 12 C-5.36 12.33 -2.72 12.66 0 13 C0 13.99 0 14.98 0 16 C-6.24159797 17.34622701 -6.24159797 17.34622701 -9.875 15.6875 C-12 14 -12 14 -13 12 C-13.46090535 4.85596708 -13.46090535 4.85596708 -11.6875 1.5625 C-8.00003634 -1.8518182 -4.60581489 -0.78211951 0 0 Z " fill="#F15F53" transform="translate(244,146)"/>
<path d="M0 0 C0.96070434 2.88211302 1.10581883 4.69850044 1.0625 7.6875 C1.05347656 8.49574219 1.04445313 9.30398437 1.03515625 10.13671875 C1.02355469 10.75160156 1.01195312 11.36648437 1 12 C-2.65254051 12.9392247 -5.39887139 13.2652614 -9 12 C-10.3125 9.9375 -10.3125 9.9375 -11 8 C-9.25 6 -9.25 6 -7 4 C-5.68 4 -4.36 4 -3 4 C-3 3.34 -3 2.68 -3 2 C-4.98 2.33 -6.96 2.66 -9 3 C-9 2.01 -9 1.02 -9 0 C-5.93109813 -1.53445094 -3.29905734 -0.54984289 0 0 Z M-7 7 C-6.67 7.99 -6.34 8.98 -6 10 C-5.01 9.67 -4.02 9.34 -3 9 C-3 8.34 -3 7.68 -3 7 C-4.32 7 -5.64 7 -7 7 Z " fill="#F15F53" transform="translate(371,150)"/>
<path d="M0 0 C4.62 0 9.24 0 14 0 C14 1.32 14 2.64 14 4 C12.35 4 10.7 4 9 4 C9 8.62 9 13.24 9 18 C7.68 18 6.36 18 5 18 C5 13.38 5 8.76 5 4 C3.35 4 1.7 4 0 4 C0 2.68 0 1.36 0 0 Z " fill="#F15F53" transform="translate(388,145)"/>
<path d="M0 0 C0.99 0 1.98 0 3 0 C4.4606285 2.64738916 5 3.89448334 5 7 C5.66 7 6.32 7 7 7 C7.33 5.02 7.66 3.04 8 1 C9.32 0.67 10.64 0.34 12 0 C11.35493484 6.12811905 9.41514357 12.8548554 5.6171875 17.80078125 C4 19 4 19 0 19 C0 18.01 0 17.02 0 16 C0.99 15.67 1.98 15.34 3 15 C2.57337451 11.94251735 2.099067 9.24475377 0.9375 6.375 C0 4 0 4 0 0 Z " fill="#F15F53" transform="translate(372,149)"/>
<path d="M0 0 C1.8125 1.1875 1.8125 1.1875 3 3 C3.1875 5.6875 3.1875 5.6875 3 8 C0.69 8.33 -1.62 8.66 -4 9 C-1.69 9.33 0.62 9.66 3 10 C3 10.99 3 11.98 3 13 C-3.19354839 14.3101737 -3.19354839 14.3101737 -6.4375 13.0625 C-8.53097012 10.29911944 -8.50780427 8.27485077 -8.3203125 4.875 C-8 3 -8 3 -6.8125 1 C-4.33474158 -0.36703913 -2.78844081 -0.41826612 0 0 Z M-4 3 C-4.33 3.66 -4.66 4.32 -5 5 C-3.35 5 -1.7 5 0 5 C-0.33 4.34 -0.66 3.68 -1 3 C-1.99 3 -2.98 3 -4 3 Z " fill="#F15F53" transform="translate(473,149)"/>
<path d="M0 0 C2.4375 0.4375 2.4375 0.4375 4.25 1.4375 C6.15128588 4.6396657 6.10683608 7.82007692 5.4375 11.4375 C3.8125 13.5 3.8125 13.5 1.4375 14.4375 C-1.6875 14.3125 -1.6875 14.3125 -4.5625 13.4375 C-6.88999345 9.94625983 -7.06549316 8.54527749 -6.5625 4.4375 C-4.55049381 1.60578758 -3.44178233 0.58762137 0 0 Z M-1.5625 3.4375 C-2.91868499 4.56284105 -2.91868499 4.56284105 -2.625 7.5 C-2.604375 8.469375 -2.58375 9.43875 -2.5625 10.4375 C-1.2425 10.4375 0.0775 10.4375 1.4375 10.4375 C1.7675 8.7875 2.0975 7.1375 2.4375 5.4375 C1.1175 4.7775 -0.2025 4.1175 -1.5625 3.4375 Z " fill="#F15F53" transform="translate(306.5625,148.5625)"/>
<path d="M0 0 C1.8125 1 1.8125 1 3 3 C3.47093626 5.75670007 3.5093856 8.2470284 3 11 C1.375 13.0625 1.375 13.0625 -1 14 C-4.125 13.875 -4.125 13.875 -7 13 C-9.46943529 9.29584707 -9.46913089 7.37855495 -9 3 C-6.34915657 -0.04356098 -3.94419493 -0.60679922 0 0 Z M-4 3 C-5.19838209 5.32854463 -5.19838209 5.32854463 -6 8 C-5.01 9.485 -5.01 9.485 -4 11 C-2.68 10.34 -1.36 9.68 0 9 C-0.33 7.35 -0.66 5.7 -1 4 C-1.99 3.67 -2.98 3.34 -4 3 Z " fill="#F15F53" transform="translate(409,149)"/>
<path d="M0 0 C2.32749345 3.49124017 2.50299316 4.89222251 2 9 C0.375 11.4375 0.375 11.4375 -2 13 C-5.6985004 12.85205998 -7.35805573 12.64194427 -10 10 C-10.55016181 3.06796117 -10.55016181 3.06796117 -8.9375 -0.0625 C-5.76026699 -1.59987081 -3.32611047 -0.8466463 0 0 Z M-6 2 C-7.29633621 3.06645115 -7.29633621 3.06645115 -7.0625 5.5625 C-7.041875 6.366875 -7.02125 7.17125 -7 8 C-5.02 8.99 -5.02 8.99 -3 10 C-1.64381501 8.87465895 -1.64381501 8.87465895 -1.9375 5.9375 C-1.958125 4.968125 -1.97875 3.99875 -2 3 C-3.94603274 2.40929986 -3.94603274 2.40929986 -6 2 Z " fill="#F15F53" transform="translate(255,150)"/>
<path d="M0 0 C0.99 0 1.98 0 3 0 C3.33 3.3 3.66 6.6 4 10 C4.99 9.67 5.98 9.34 7 9 C7.33 6.03 7.66 3.06 8 0 C8.99 0 9.98 0 11 0 C11 4.62 11 9.24 11 14 C9.741875 14.04125 8.48375 14.0825 7.1875 14.125 C6.47980469 14.14820313 5.77210938 14.17140625 5.04296875 14.1953125 C3 14 3 14 0 12 C-0.29296875 9.1796875 -0.29296875 9.1796875 -0.1875 5.875 C-0.16042969 4.77929688 -0.13335937 3.68359375 -0.10546875 2.5546875 C-0.07066406 1.71164063 -0.03585937 0.86859375 0 0 Z " fill="#F15F53" transform="translate(314,149)"/>
<path d="M0 0 C2.88575819 0.39803561 3.82189513 0.79009069 5.75 3.0625 C6.1625 3.701875 6.575 4.34125 7 5 C7.4125 4.175 7.825 3.35 8.25 2.5 C8.8275 1.675 9.405 0.85 10 0 C11.32 0 12.64 0 14 0 C12.95218768 2.74043223 11.84078766 5.2929507 10.4375 7.875 C8.86516144 11.29312731 8.37265867 14.27341329 8 18 C7.01 18 6.02 18 5 18 C4.9175 16.824375 4.835 15.64875 4.75 14.4375 C4.20307819 9.83356117 2.38746343 6.92776241 0 3 C0 2.01 0 1.02 0 0 Z " fill="#F15F53" transform="translate(288,145)"/>
<path d="M0 0 C0 1.32 0 2.64 0 4 C-1.32 4 -2.64 4 -4 4 C-4.33 5.98 -4.66 7.96 -5 10 C-3.02 10 -1.04 10 1 10 C1 10.99 1 11.98 1 13 C-1.75 13.75 -1.75 13.75 -5 14 C-7.375 12.4375 -7.375 12.4375 -9 10 C-9.61793165 6.29241009 -9.50197249 4.7064798 -7.3125 1.625 C-4.61209763 -0.27258004 -3.22939919 -0.35882213 0 0 Z " fill="#F15F53" transform="translate(453,149)"/>
<path d="M0 0 C0 1.32 0 2.64 0 4 C-1.65 4 -3.3 4 -5 4 C-5.33 5.98 -5.66 7.96 -6 10 C-4.02 10 -2.04 10 0 10 C-0.33 11.32 -0.66 12.64 -1 14 C-3.25 14.3125 -3.25 14.3125 -6 14 C-8.375 11.9375 -8.375 11.9375 -10 9 C-9.9375 5.3125 -9.9375 5.3125 -9 2 C-5.5647952 -0.29013653 -4.014669 -0.17842973 0 0 Z " fill="#F15F53" transform="translate(464,149)"/>
<path d="M0 0 C2.97 0 5.94 0 9 0 C8.67 0.99 8.34 1.98 8 3 C7.01 3.33 6.02 3.66 5 4 C4.67 6.97 4.34 9.94 4 13 C2.68 13.33 1.36 13.66 0 14 C0 9.38 0 4.76 0 0 Z " fill="#F15F53" transform="translate(327,149)"/>
<path d="M0 0 C1.50433594 0.01353516 1.50433594 0.01353516 3.0390625 0.02734375 C3.80992187 0.03894531 4.58078125 0.05054688 5.375 0.0625 C5.375 1.0525 5.375 2.0425 5.375 3.0625 C5.045 3.3925 4.715 3.7225 4.375 4.0625 C2.53909812 4.0247362 0.70448383 3.90795801 -1.125 3.75 C-2.1253125 3.67136719 -3.125625 3.59273437 -4.15625 3.51171875 C-4.9709375 3.36347656 -5.785625 3.21523437 -6.625 3.0625 C-6.955 2.4025 -7.285 1.7425 -7.625 1.0625 C-4.98041621 -0.25979189 -2.94738699 -0.03427194 0 0 Z " fill="#B3B2B4" transform="translate(127.625,164.9375)"/>
<path d="M0 0 C2.64 0 5.28 0 8 0 C7.67 0.66 7.34 1.32 7 2 C4.67843403 2.40729228 2.3431213 2.74438677 0 3 C0 2.01 0 1.02 0 0 Z " fill="#666A75" transform="translate(185,90)"/>
<path d="M0 0 C1.65 0 3.3 0 5 0 C5 0.99 5 1.98 5 3 C3.35 3 1.7 3 0 3 C0 2.01 0 1.02 0 0 Z " fill="#656874" transform="translate(109,108)"/>
</svg>
