<?xml version="1.0" encoding="UTF-8"?>
<svg version="1.1" xmlns="http://www.w3.org/2000/svg" width="260" height="89">
<path d="M0 0 C4.99590965 3.54767903 5.6486116 12.48851799 6.703125 18.17578125 C7.18261911 21.25534902 7.62312226 24.3330742 8.0078125 27.42578125 C8.61367187 26.83410156 9.21953125 26.24242188 9.84375 25.6328125 C20.90028502 15.20564948 20.90028502 15.20564948 28.0078125 13.42578125 C31.56470972 14.3850028 32.69874406 14.97816489 34.8203125 18.05078125 C35.2121875 18.83453125 35.6040625 19.61828125 36.0078125 20.42578125 C36.45511719 20.01585938 36.90242188 19.6059375 37.36328125 19.18359375 C41.72620046 15.29510712 45.01809949 12.80744674 50.9453125 12.05078125 C54.95889892 12.54224081 56.90058112 13.85893794 60.0078125 16.42578125 C64.0078125 21.58367599 64.0078125 21.58367599 64.0078125 25.42578125 C64.72324219 25.0390625 65.43867188 24.65234375 66.17578125 24.25390625 C85.78055818 14.00768389 85.78055818 14.00768389 94.0078125 16.42578125 C94.6678125 16.75578125 95.3278125 17.08578125 96.0078125 17.42578125 C96.70738296 20.24349561 97.06513295 23.07228716 97.48046875 25.9453125 C97.83536781 28.28764631 98.26156731 30.62015597 98.75390625 32.9375 C100.50840931 41.63071573 100.50840931 41.63071573 97.8828125 45.80078125 C95.0078125 47.42578125 95.0078125 47.42578125 92.9375 47.28125 C91.0078125 46.42578125 91.0078125 46.42578125 89.9609375 44.578125 C89.72890625 43.84722656 89.496875 43.11632813 89.2578125 42.36328125 C89.01546875 41.62980469 88.773125 40.89632812 88.5234375 40.140625 C88.35328125 39.57472656 88.183125 39.00882813 88.0078125 38.42578125 C87.523125 38.956875 87.0384375 39.48796875 86.5390625 40.03515625 C81.27513306 45.58252804 76.47570308 50.01208768 68.6328125 50.73828125 C66.0078125 50.42578125 66.0078125 50.42578125 64.0078125 49.42578125 C61.89920893 49.48982423 61.89920893 49.48982423 59.5078125 49.80078125 C58.16589844 49.94386719 58.16589844 49.94386719 56.796875 50.08984375 C54.99641573 50.30670579 53.19882124 50.54968081 51.40625 50.82421875 C44.01308481 51.85422628 39.32164551 50.63500326 33.0078125 46.42578125 C33.0078125 45.76578125 33.0078125 45.10578125 33.0078125 44.42578125 C32.51152344 44.93109375 32.01523438 45.43640625 31.50390625 45.95703125 C28.34011139 48.98274778 25.95388773 51.15802411 21.6953125 52.36328125 C16.73538942 51.10228386 13.62084036 48.36137094 9.75390625 45.078125 C7.0620905 43.09747463 7.0620905 43.09747463 3.66796875 43.6796875 C2.79011719 43.92589844 1.91226563 44.17210937 1.0078125 44.42578125 C-1.54695994 37.30838002 -3.2223338 30.21523329 -4.6796875 22.80078125 C-4.90462891 21.70765625 -5.12957031 20.61453125 -5.36132812 19.48828125 C-6.44603605 14.04166274 -7.28665252 8.98082409 -6.9921875 3.42578125 C-6.3321875 3.42578125 -5.6721875 3.42578125 -4.9921875 3.42578125 C-4.6621875 2.43578125 -4.3321875 1.44578125 -3.9921875 0.42578125 C-1.9921875 -0.57421875 -1.9921875 -0.57421875 0 0 Z M45.0078125 20.42578125 C43.1269919 22.5871832 43.1269919 22.5871832 42.0078125 25.42578125 C42.3378125 27.07578125 42.6678125 28.72578125 43.0078125 30.42578125 C46.3078125 31.08578125 49.6078125 31.74578125 53.0078125 32.42578125 C52.7396875 30.81703125 52.4715625 29.20828125 52.1953125 27.55078125 C52.04449219 26.64585938 51.89367187 25.7409375 51.73828125 24.80859375 C51.17729949 22.08165647 51.17729949 22.08165647 48.0078125 20.42578125 C47.0178125 20.42578125 46.0278125 20.42578125 45.0078125 20.42578125 Z M17.8203125 25.61328125 C15.00866076 28.16536596 15.00866076 28.16536596 13.6953125 30.80078125 C14.15594145 34.67006444 16.39507495 36.35582408 19.1484375 38.97265625 C21.04996134 40.62594735 21.04996134 40.62594735 24.0078125 41.42578125 C26.37269578 40.67665499 26.37269578 40.67665499 28.0078125 38.42578125 C29.0290024 32.75373732 28.03499783 28.34495741 25.0078125 23.42578125 C20.91316861 23.04855292 20.91316861 23.04855292 17.8203125 25.61328125 Z M68.5703125 31.11328125 C68.0546875 31.87640625 67.5390625 32.63953125 67.0078125 33.42578125 C67.64703215 35.90205224 67.64703215 35.90205224 69.0078125 38.42578125 C71.53154151 39.7865616 71.53154151 39.7865616 74.0078125 40.42578125 C79.99909994 35.75502946 79.99909994 35.75502946 84.0078125 29.42578125 C83.80138051 27.17249713 83.80138051 27.17249713 83.0078125 25.42578125 C77.1234402 24.89083831 72.52541823 26.75252365 68.5703125 31.11328125 Z M43.0078125 38.42578125 C43.58726182 40.42441881 43.58726182 40.42441881 45.0078125 42.42578125 C49.96936517 44.90655759 53.7323011 44.33535218 59.0078125 43.42578125 C58.3478125 42.10578125 57.6878125 40.78578125 57.0078125 39.42578125 C55.9971875 39.44640625 54.9865625 39.46703125 53.9453125 39.48828125 C50.20453993 39.42890391 46.69536352 39.0278304 43.0078125 38.42578125 Z " fill="#0C0C0C" transform="translate(129.9921875,12.57421875)"/>
<path d="M0 0 C4.45810752 -0.11734237 8.91581128 -0.18763372 13.375 -0.25 C14.62667969 -0.28351562 15.87835938 -0.31703125 17.16796875 -0.3515625 C25.38679758 -0.43762353 33.68734747 -0.1969175 39.90136719 5.8503418 C45.12628619 12.09915227 47.55686729 19.52036696 47.21875 27.62109375 C46.33880259 37.19052183 44.70184782 46.91143668 37.125 53.5 C29.72929032 57.04994065 22.85841464 57.41949351 14.75 57.6875 C13.66203125 57.73455078 12.5740625 57.78160156 11.453125 57.83007812 C3.40196811 58.13398937 3.40196811 58.13398937 0 57 C0 53.7 0 50.4 0 47 C2.97 47.33 5.94 47.66 9 48 C8.67 35.79 8.34 23.58 8 11 C5.36 10.67 2.72 10.34 0 10 C0 6.7 0 3.4 0 0 Z M19 9 C17.96946011 13.23473094 17.8545289 17.3388562 17.8671875 21.671875 C17.86623077 22.39489807 17.86527405 23.11792114 17.86428833 23.862854 C17.86361069 25.3823658 17.86543583 26.90188056 17.86962891 28.42138672 C17.87501442 30.75625001 17.86965395 33.09092366 17.86328125 35.42578125 C17.86394149 36.90364626 17.86522154 38.38151115 17.8671875 39.859375 C17.86516327 40.56036316 17.86313904 41.26135132 17.86105347 41.98358154 C17.59307457 45.27366079 17.59307457 45.27366079 19 48 C23.70033413 48.53096367 27.71394222 48.68407329 31.9375 46.4375 C36.93733243 40.52860712 37.47981275 34.82835088 37.375 27.375 C37.38660156 26.54226562 37.39820312 25.70953125 37.41015625 24.8515625 C37.38732343 20.07189158 37.07068686 16.88903617 34 13 C29.30072821 8.75549645 25.17510508 8.88124798 19 9 Z " fill="#0D0D0D" transform="translate(13,5)"/>
<path d="M0 0 C0.67224609 -0.00322266 1.34449219 -0.00644531 2.03710938 -0.00976562 C5.70708778 0.03032351 7.30992617 0.22745078 10.4375 2.3125 C10.25 4.6875 10.25 4.6875 9.4375 7.3125 C6.88671875 8.4765625 6.88671875 8.4765625 4.4375 9.3125 C4.50645277 13.79709681 4.59445445 18.28079709 4.69995117 22.76464844 C4.7331588 24.2892834 4.76120378 25.81404006 4.78393555 27.33886719 C4.81755958 29.53372954 4.86987542 31.72748088 4.92578125 33.921875 C4.95196533 35.24155273 4.97814941 36.56123047 5.00512695 37.92089844 C5.45131185 41.42084232 5.89520277 42.90854633 8.4375 45.3125 C11.4375 45.89583333 11.4375 45.89583333 14.4375 45.3125 C16.47417615 43.76743534 17.29823078 42.59103844 18.4375 40.3125 C18.59358023 37.90689727 18.69554458 35.52547228 18.75390625 33.1171875 C18.77468735 32.40974396 18.79546844 31.70230042 18.81687927 30.97341919 C18.88231078 28.71154575 18.94122974 26.44955538 19 24.1875 C19.04319133 22.65493578 19.08680582 21.12238343 19.13085938 19.58984375 C19.23798555 15.83084927 19.3392709 12.07173708 19.4375 8.3125 C17.7875 7.6525 16.1375 6.9925 14.4375 6.3125 C14.4375 4.9925 14.4375 3.6725 14.4375 2.3125 C18.09884614 0.63798235 20.9798471 0.04013475 25 0.0625 C25.92941406 0.05734375 26.85882813 0.0521875 27.81640625 0.046875 C30.4929462 0.31811899 32.14188282 0.95133405 34.4375 2.3125 C34.4375 3.9625 34.4375 5.6125 34.4375 7.3125 C32.7875 7.6425 31.1375 7.9725 29.4375 8.3125 C29.45321045 9.17939453 29.4689209 10.04628906 29.48510742 10.93945312 C29.53657199 14.18975574 29.57401261 17.43984898 29.60229492 20.69042969 C29.61727914 22.09089031 29.63767379 23.49130483 29.66381836 24.89160156 C29.85557388 35.4343953 29.37814402 43.78542306 22.4375 52.3125 C17.46664028 55.86311409 12.34233519 56.14535314 6.4375 55.3125 C1.11921166 53.52628171 -1.95853999 50.2199631 -4.5625 45.3125 C-5.63180822 41.27069907 -5.67789419 37.43013544 -5.66015625 33.26171875 C-5.6587413 32.60291214 -5.65732635 31.94410553 -5.65586853 31.26533508 C-5.650305 29.17684238 -5.63775947 27.08845989 -5.625 25 C-5.61998028 23.57747551 -5.6154182 22.15494934 -5.61132812 20.73242188 C-5.60034757 17.25907923 -5.58310835 13.78580039 -5.5625 10.3125 C-6.37074219 10.03664063 -7.17898437 9.76078125 -8.01171875 9.4765625 C-8.85347656 9.09242187 -9.69523437 8.70828125 -10.5625 8.3125 C-11.375 5.6875 -11.375 5.6875 -11.5625 3.3125 C-7.94634148 -0.19267667 -4.89964441 -0.06226332 0 0 Z " fill="#0F0F0F" transform="translate(70.5625,7.6875)"/>
<path d="M0 0 C1.4540625 0.0309375 1.4540625 0.0309375 2.9375 0.0625 C4.06630057 3.37364834 5.15052675 6.65228257 5.9375 10.0625 C6.948125 9.5675 7.95875 9.0725 9 8.5625 C12.71738188 6.94657686 15.87706657 6.81390203 19.9375 7.0625 C19.59726413 9.52921006 19.17859519 10.81135917 17.4375 12.625 C13.8058272 14.71321186 9.93590523 15.85785227 5.9375 17.0625 C6.35914019 19.04510599 6.80028778 21.02357245 7.25 23 C7.49363281 24.10214844 7.73726562 25.20429688 7.98828125 26.33984375 C8.30152344 27.23832031 8.61476562 28.13679688 8.9375 29.0625 C9.9275 29.3925 10.9175 29.7225 11.9375 30.0625 C12.185 29.505625 12.4325 28.94875 12.6875 28.375 C14.16674818 25.63839087 15.87217439 23.38599131 17.9375 21.0625 C18.5975 21.0625 19.2575 21.0625 19.9375 21.0625 C20.01864106 22.83257714 20.07675505 24.60372098 20.125 26.375 C20.17720703 27.85419922 20.17720703 27.85419922 20.23046875 29.36328125 C19.9375 32.0625 19.9375 32.0625 18.55078125 33.91796875 C16.9375 35.0625 16.9375 35.0625 14.9375 35.0625 C14.9375 35.7225 14.9375 36.3825 14.9375 37.0625 C11.92595101 39.52649463 10.23615319 40.05735081 6.3125 40.125 C2.9375 39.0625 2.9375 39.0625 1.125 36.8125 C-0.61166272 31.32830192 -1.34407348 25.75919971 -2.0625 20.0625 C-4.3725 20.3925 -6.6825 20.7225 -9.0625 21.0625 C-9.6875 19.25 -9.6875 19.25 -10.0625 17.0625 C-8.0625 14.0625 -8.0625 14.0625 -5.9375 13.375 C-5.31875 13.271875 -4.7 13.16875 -4.0625 13.0625 C-4.07410156 12.20785156 -4.08570313 11.35320313 -4.09765625 10.47265625 C-4.10667969 9.36792969 -4.11570313 8.26320313 -4.125 7.125 C-4.13660156 6.02285156 -4.14820313 4.92070312 -4.16015625 3.78515625 C-4.02168594 -0.07539595 -3.9087853 0.07977113 0 0 Z " fill="#111111" transform="translate(228.0625,4.9375)"/>
<path d="M0 0 C0.3815625 0.49113281 0.763125 0.98226562 1.15625 1.48828125 C3.67792384 3.5558401 5.28323313 3.30423751 8.5 3.1875 C9.4590625 3.16042969 10.418125 3.13335937 11.40625 3.10546875 C12.2621875 3.07066406 13.118125 3.03585938 14 3 C17 3 17 3 19.125 3.5625 C19.74375 3.706875 20.3625 3.85125 21 4 C21.33 3.67 21.66 3.34 22 3 C23.66605828 2.9549714 25.33378384 2.96125079 27 3 C28.32 3 29.64 3 31 3 C31.66 3 32.32 3 33 3 C33.33 2.01 33.66 1.02 34 0 C34.66 0.33 35.32 0.66 36 1 C36.495 2.485 36.495 2.485 37 4 C37.61875 3.835 38.2375 3.67 38.875 3.5 C42.68020581 2.60465746 46.16742653 3.43221134 50 4 C50 3.34 50 2.68 50 2 C51.9375 2.3125 51.9375 2.3125 54 3 C54.495 4.485 54.495 4.485 55 6 C54.34 6 53.68 6 53 6 C53 6.99 53 7.98 53 9 C53.66 9 54.32 9 55 9 C55 9.66 55 10.32 55 11 C51.65367153 12.11544282 50.36086161 11.67217232 47 11 C46.01 11.33 45.02 11.66 44 12 C41 12 41 12 38.625 11.4375 C36.0157848 10.84315954 36.0157848 10.84315954 33.5 11.5 C30.64370765 12.07125847 28.8199862 11.63449689 26 11 C24.33382885 10.95936168 22.66611905 10.957279 21 11 C19 11 17 11 15 11 C13.6696875 11.556875 13.6696875 11.556875 12.3125 12.125 C8.19641329 13.21226819 6.00988305 12.2394184 2 11 C-0.68993053 11.30378052 -0.68993053 11.30378052 -3 12 C-6.11227195 12 -8.94152152 11.54372951 -12 11 C-12 8.36 -12 5.72 -12 3 C-8.33333333 3 -4.66666667 3 -1 3 C-0.67 2.01 -0.34 1.02 0 0 Z M-9 6 C-9 9 -9 9 -9 9 Z M-3 6 C-2.67 6.99 -2.34 7.98 -2 9 C-1.67 8.01 -1.34 7.02 -1 6 C-1.66 6 -2.32 6 -3 6 Z M12 6 C12 9 12 9 12 9 Z M32 6 C33 9 33 9 33 9 Z " fill="#161616" transform="translate(65,72)"/>
<path d="M0 0 C1.32 0.33 2.64 0.66 4 1 C6.18703385 0.62092718 6.18703385 0.62092718 8 0 C8.33 0.99 8.66 1.98 9 3 C9.556875 2.814375 10.11375 2.62875 10.6875 2.4375 C13 2 13 2 15.4375 2.5 C17.95386669 3.16121237 17.95386669 3.16121237 20.27734375 2.53515625 C23.29377497 1.94225657 26.05348439 1.90285885 29.125 1.9375 C30.15882813 1.94652344 31.19265625 1.95554687 32.2578125 1.96484375 C33.16273438 1.97644531 34.06765625 1.98804687 35 2 C35.99 2 36.98 2 38 2 C52 2 52 2 54.125 2.5625 C54.74375 2.706875 55.3625 2.85125 56 3 C56.33 2.67 56.66 2.34 57 2 C58.66617115 1.95936168 60.33388095 1.957279 62 2 C62 2.99 62 3.98 62 5 C61.34 5 60.68 5 60 5 C59.67 6.65 59.34 8.3 59 10 C53.49226442 11.12658228 53.49226442 11.12658228 50.8125 10.4375 C50.214375 10.293125 49.61625 10.14875 49 10 C48.01 10.66 47.02 11.32 46 12 C45.01 12 44.02 12 43 12 C43 11.34 43 10.68 43 10 C41.35 10.33 39.7 10.66 38 11 C38 10.34 38 9.68 38 9 C37.236875 9.495 36.47375 9.99 35.6875 10.5 C33 12 33 12 30 12 C29.67 11.34 29.34 10.68 29 10 C27.68 10.33 26.36 10.66 25 11 C24.67 10.34 24.34 9.68 24 9 C23.34 9.66 22.68 10.32 22 11 C20.9275 10.62875 19.855 10.2575 18.75 9.875 C15.18370653 8.68508268 15.18370653 8.68508268 12.5625 9.875 C12.046875 10.24625 11.53125 10.6175 11 11 C10.34 10.34 9.68 9.68 9 9 C6.89179203 9.3185177 6.89179203 9.3185177 5 10 C4.67 9.34 4.34 8.68 4 8 C3.67 8.66 3.34 9.32 3 10 C2.01 10 1.02 10 0 10 C0 6.7 0 3.4 0 0 Z M33 5 C34 8 34 8 34 8 Z M46 5 C46.33 5.99 46.66 6.98 47 8 C47.33 7.01 47.66 6.02 48 5 C47.34 5 46.68 5 46 5 Z M24 6 C25 8 25 8 25 8 Z " fill="#0F0F0F" transform="translate(168,73)"/>
<path d="M0 0 C0.66 0.33 1.32 0.66 2 1 C2 1.99 2 2.98 2 4 C3.175625 3.7525 3.175625 3.7525 4.375 3.5 C9.15405055 2.58970466 14.14488061 3 19 3 C20 6 20 6 19 9 C19.66 9.33 20.32 9.66 21 10 C17.52402085 12.18857946 15.91511533 11.80081905 12 11 C10.59998061 11.12678403 9.2034069 11.29626861 7.8125 11.5 C4 12 4 12 2 11 C1.175 11.165 0.35 11.33 -0.5 11.5 C-3 12 -3 12 -5 11 C-6.67293936 11.30027117 -8.33985384 11.63557767 -10 12 C-13 12 -13 12 -14.9375 11.4375 C-17.30861119 10.93453702 -18.69116805 11.38431148 -21 12 C-21.66 11.67 -22.32 11.34 -23 11 C-23 10.01 -23 9.02 -23 8 C-22.01 8 -21.02 8 -20 8 C-20.99 7.34 -21.98 6.68 -23 6 C-22.67 4.35 -22.34 2.7 -22 1 C-18.53777493 0.6754164 -16.15111984 1.2495334 -13 2.5625 C-9.59201769 3.91416216 -7.5385316 4.37609562 -4 3 C-1.73545927 1.53228729 -1.73545927 1.53228729 0 0 Z M-20 4 C-18.515 4.99 -18.515 4.99 -17 6 C-17 5.34 -17 4.68 -17 4 C-17.99 4 -18.98 4 -20 4 Z M-14 6 C-14 6.99 -14 7.98 -14 9 C-13.34 9 -12.68 9 -12 9 C-12 8.01 -12 7.02 -12 6 C-12.66 6 -13.32 6 -14 6 Z M-3 6 C-3 6.66 -3 7.32 -3 8 C-2.34 8 -1.68 8 -1 8 C-1 7.34 -1 6.68 -1 6 C-1.66 6 -2.32 6 -3 6 Z " fill="#141414" transform="translate(145,72)"/>
<path d="M0 0 C0.99 0 1.98 0 3 0 C3.66 0.99 4.32 1.98 5 3 C5.33 2.67 5.66 2.34 6 2 C8.5 1.875 8.5 1.875 11 2 C12 3 12 3 12.0625 6.5625 C12.041875 7.696875 12.02125 8.83125 12 10 C7 10 2 10 -3 10 C-2.69201674 8.51988629 -2.378482 7.04092675 -2.0625 5.5625 C-1.88847656 4.73878906 -1.71445312 3.91507812 -1.53515625 3.06640625 C-1 1 -1 1 0 0 Z " fill="#121212" transform="translate(34,73)"/>
<path d="M0 0 C1.65 0 3.3 0 5 0 C5.33 0.66 5.66 1.32 6 2 C7.98 1.67 9.96 1.34 12 1 C12 2.65 12 4.3 12 6 C10.02 6.99 10.02 6.99 8 8 C7.67 7.34 7.34 6.68 7 6 C6.236875 6.495 5.47375 6.99 4.6875 7.5 C2 9 2 9 -1 9 C-1.33 8.34 -1.66 7.68 -2 7 C-2.99 7 -3.98 7 -5 7 C-5 5.02 -5 3.04 -5 1 C-3.02 1.99 -3.02 1.99 -1 3 C-0.67 2.01 -0.34 1.02 0 0 Z M2 2 C3 5 3 5 3 5 Z " fill="#101010" transform="translate(199,76)"/>
<path d="M0 0 C0.33 0 0.66 0 1 0 C1 3.3 1 6.6 1 10 C-3.99890253 12.49945127 -6.66044524 11.94925418 -12 11 C-12 8.36 -12 5.72 -12 3 C-8.33333333 3 -4.66666667 3 -1 3 C-0.67 2.01 -0.34 1.02 0 0 Z M-9 6 C-9 9 -9 9 -9 9 Z M-3 6 C-2.67 6.99 -2.34 7.98 -2 9 C-1.67 8.01 -1.34 7.02 -1 6 C-1.66 6 -2.32 6 -3 6 Z " fill="#161616" transform="translate(65,72)"/>
<path d="M0 0 C0 0.99 0 1.98 0 3 C-0.66 3 -1.32 3 -2 3 C-2.33 4.65 -2.66 6.3 -3 8 C-5.6875 8.8125 -5.6875 8.8125 -9 9 C-11.875 6.5625 -11.875 6.5625 -14 4 C-9.10274567 0.87119862 -5.78901746 -0.16080604 0 0 Z " fill="#1A1A1A" transform="translate(230,75)"/>
<path d="M0 0 C1 2 1 2 2 4 C0.9375 5.5625 0.9375 5.5625 -1 7 C-4.6875 6.6875 -4.6875 6.6875 -8 6 C-8.66 4.35 -9.32 2.7 -10 1 C-6.26317891 -0.81502739 -3.99179743 -1.33059914 0 0 Z " fill="#151515" transform="translate(77,78)"/>
<path d="M0 0 C2.125 0.9375 2.125 0.9375 4 2 C3.67 2.66 3.34 3.32 3 4 C2.01 4 1.02 4 0 4 C-2.18161136 5.76762091 -2.18161136 5.76762091 -2.23046875 7.98828125 C-2.15369366 12.14111589 -1.85729096 15.92786796 -1 20 C-0.96175377 22.33301986 -0.95425716 24.66711508 -1 27 C-1.33 27 -1.66 27 -2 27 C-2.50812114 24.48056604 -3.00664534 21.95983127 -3.5 19.4375 C-3.71462891 18.38079102 -3.71462891 18.38079102 -3.93359375 17.30273438 C-4.80874925 12.78109762 -5.14523405 8.60512972 -5 4 C-4.34 4 -3.68 4 -3 4 C-2.67 3.01 -2.34 2.02 -2 1 C-1.34 0.67 -0.68 0.34 0 0 Z " fill="#313131" transform="translate(128,12)"/>
<path d="M0 0 C1.9375 0.3125 1.9375 0.3125 4 1 C4.33 1.99 4.66 2.98 5 4 C4.34 4 3.68 4 3 4 C3 4.99 3 5.98 3 7 C3.66 7 4.32 7 5 7 C5 7.66 5 8.32 5 9 C1.71023192 10.09658936 0.28696233 9.79953138 -3 9 C-2.34 8.67 -1.68 8.34 -1 8 C-1.33 6.02 -1.66 4.04 -2 2 C-1.34 2 -0.68 2 0 2 C0 1.34 0 0.68 0 0 Z " fill="#282828" transform="translate(115,74)"/>
<path d="M0 0 C0.33 0 0.66 0 1 0 C1 3.3 1 6.6 1 10 C-0.98 10.99 -0.98 10.99 -3 12 C-5 10 -5 10 -5.125 6.875 C-5.08375 5.92625 -5.0425 4.9775 -5 4 C-4.0409375 3.8453125 -4.0409375 3.8453125 -3.0625 3.6875 C-2.381875 3.460625 -1.70125 3.23375 -1 3 C-0.67 2.01 -0.34 1.02 0 0 Z M-3 6 C-2.67 6.99 -2.34 7.98 -2 9 C-1.67 8.01 -1.34 7.02 -1 6 C-1.66 6 -2.32 6 -3 6 Z " fill="#0B0B0B" transform="translate(65,72)"/>
<path d="M0 0 C2 0.25 2 0.25 4 1 C5.2077558 4.62326739 4.54311128 5.64146369 3 9 C1.68 8.34 0.36 7.68 -1 7 C-1.04254356 5.00045254 -1.04080783 2.99958364 -1 1 C-0.67 0.67 -0.34 0.34 0 0 Z " fill="#0D0D0D" transform="translate(82,75)"/>
<path d="M0 0 C3.96 0 7.92 0 12 0 C9.07735566 1.46132217 7.07536854 2.34099246 4 3 C3.67 4.65 3.34 6.3 3 8 C3.66 8.33 4.32 8.66 5 9 C4.01 9 3.02 9 2 9 C1.67 7.35 1.34 5.7 1 4 C0.01 4 -0.98 4 -2 4 C-1.34 2.68 -0.68 1.36 0 0 Z " fill="#232323" transform="translate(191,75)"/>
<path d="M0 0 C4.455 0.99 4.455 0.99 9 2 C8.01 2.495 8.01 2.495 7 3 C6.16666667 4.91666667 6.16666667 4.91666667 6 7 C6.66 7.66 7.32 8.32 8 9 C6.02 9.99 6.02 9.99 4 11 C2.75453595 8.50907189 3.2232422 7.58919267 4 5 C3.34 5 2.68 5 2 5 C1.34 3.35 0.68 1.7 0 0 Z " fill="#1B1B1B" transform="translate(126,73)"/>
<path d="M0 0 C0 3.3 0 6.6 0 10 C-0.66 10 -1.32 10 -2 10 C-2 8.68 -2 7.36 -2 6 C-2.66 6 -3.32 6 -4 6 C-4 6.99 -4 7.98 -4 9 C-4.66 9 -5.32 9 -6 9 C-5.50909091 3.47727273 -5.50909091 3.47727273 -3 1.125 C-1 0 -1 0 0 0 Z " fill="#0A0A0A" transform="translate(146,72)"/>
<path d="M0 0 C2.29013653 3.4352048 2.17842973 4.985331 2 9 C-2.12168689 10.62950412 -4.70700357 11.26264601 -9 10 C-8.34 9.67 -7.68 9.34 -7 9 C-7 7.02 -7 5.04 -7 3 C-6.67 3 -6.34 3 -6 3 C-6 4.65 -6 6.3 -6 8 C-4.68 7.67 -3.36 7.34 -2 7 C-2 7.66 -2 8.32 -2 9 C-1.34 9 -0.68 9 0 9 C0 6.03 0 3.06 0 0 Z " fill="#282828" transform="translate(146,73)"/>
<path d="M0 0 C1.32 0.33 2.64 0.66 4 1 C6.18703385 0.62092718 6.18703385 0.62092718 8 0 C7.01 0.495 7.01 0.495 6 1 C6 2.32 6 3.64 6 5 C5.01 5.33 4.02 5.66 3 6 C2.67 5.67 2.34 5.34 2 5 C1.67 6.65 1.34 8.3 1 10 C0.67 10 0.34 10 0 10 C0 6.7 0 3.4 0 0 Z " fill="#202020" transform="translate(168,73)"/>
<path d="M0 0 C0.66 0 1.32 0 2 0 C3.6875 1.75 3.6875 1.75 5 4 C4.6875 6.25 4.6875 6.25 4 8 C2.68 7.67 1.36 7.34 0 7 C-1.125 2.25 -1.125 2.25 0 0 Z " fill="#0D0D0D" transform="translate(148,76)"/>
<path d="M0 0 C0 1.65 0 3.3 0 5 C-2 6 -2 6 -5 7 C-5.99 5.68 -6.98 4.36 -8 3 C-3.375 0 -3.375 0 0 0 Z " fill="#070707" transform="translate(224,76)"/>
<path d="M0 0 C0.99 0 1.98 0 3 0 C3 3.3 3 6.6 3 10 C2.01 10 1.02 10 0 10 C0 6.7 0 3.4 0 0 Z " fill="#191919" transform="translate(49,73)"/>
<path d="M0 0 C0.94875 0.04125 1.8975 0.0825 2.875 0.125 C2.875 3.425 2.875 6.725 2.875 10.125 C1.12872522 7.50558783 0.48777612 6.08675123 -0.125 3.125 C-1.115 3.455 -2.105 3.785 -3.125 4.125 C-3.785 3.465 -4.445 2.805 -5.125 2.125 C-3.125 0.125 -3.125 0.125 0 0 Z " fill="#252525" transform="translate(209.125,74.875)"/>
<path d="M0 0 C0.5775 0.165 1.155 0.33 1.75 0.5 C4.26664369 1.14462031 4.26664369 1.14462031 8 1 C8 1.99 8 2.98 8 4 C5.03 3.67 2.06 3.34 -1 3 C-0.67 2.01 -0.34 1.02 0 0 Z " fill="#1D1D1D" transform="translate(178,75)"/>
<path d="M0 0 C1 3 1 3 0.0625 5.1875 C-0.4634375 6.0846875 -0.4634375 6.0846875 -1 7 C-1.99 6.67 -2.98 6.34 -4 6 C-4.6875 3.9375 -4.6875 3.9375 -5 2 C-3.35 1.34 -1.7 0.68 0 0 Z " fill="#080808" transform="translate(72,77)"/>
<path d="M0 0 C1.66611905 -0.042721 3.33382885 -0.04063832 5 0 C6 1 6 1 6.0625 4.5625 C6.041875 5.696875 6.02125 6.83125 6 8 C5.01 8 4.02 8 3 8 C3.33 5.69 3.66 3.38 4 1 C2.68 0.67 1.36 0.34 0 0 Z " fill="#1B1B1B" transform="translate(40,75)"/>
<path d="M0 0 C0.9075 0.185625 1.815 0.37125 2.75 0.5625 C5.68314324 0.95734621 7.2644657 0.94691572 10 0 C7.83370204 2.49124265 6.30623023 3.59924482 3 4 C0.75 3.5625 0.75 3.5625 -1 3 C-0.67 2.01 -0.34 1.02 0 0 Z " fill="#1A1A1A" transform="translate(213,75)"/>
<path d="M0 0 C0.66 0 1.32 0 2 0 C1.82374165 2.37948772 1.30280227 3.70225849 -0.40234375 5.37890625 C-1.90649092 6.62115486 -3.45129851 7.81376056 -5 9 C-5 4.68381834 -2.86729652 3.07210341 0 0 Z " fill="#212121" transform="translate(246,26)"/>
<path d="M0 0 C1.32 0.66 2.64 1.32 4 2 C3.67 2.66 3.34 3.32 3 4 C2.01 4 1.02 4 0 4 C-1.95216435 5.95216435 -2.84826645 7.53199953 -4 10 C-3.51171875 3.9453125 -3.51171875 3.9453125 -3 2 C-2.01 1.34 -1.02 0.68 0 0 Z " fill="#1E1E1E" transform="translate(128,12)"/>
<path d="M0 0 C1.9375 0.3125 1.9375 0.3125 4 1 C4.33 1.99 4.66 2.98 5 4 C4.01 4 3.02 4 2 4 C2 4.99 2 5.98 2 7 C1.34 7 0.68 7 0 7 C0 4.69 0 2.38 0 0 Z " fill="#0E0E0E" transform="translate(115,74)"/>
<path d="M0 0 C1.98 0.99 1.98 0.99 4 2 C4.33 1.34 4.66 0.68 5 0 C5.33 1.32 5.66 2.64 6 4 C5.34 4 4.68 4 4 4 C3.67 4.66 3.34 5.32 3 6 C2.01 6 1.02 6 0 6 C0 4.02 0 2.04 0 0 Z " fill="#070707" transform="translate(194,77)"/>
<path d="M0 0 C0.1875 2.375 0.1875 2.375 0 5 C-0.99 5.66 -1.98 6.32 -3 7 C-3.33 5.35 -3.66 3.7 -4 2 C-1 0 -1 0 0 0 Z " fill="#040404" transform="translate(211,77)"/>
</svg>
