<?xml version="1.0" encoding="UTF-8"?>
<svg version="1.1" xmlns="http://www.w3.org/2000/svg" width="200" height="200">
<path d="M0 0 C66 0 132 0 200 0 C200 66 200 132 200 200 C134 200 68 200 0 200 C0 134 0 68 0 0 Z " fill="#FDFDFD" transform="translate(0,0)"/>
<path d="M0 0 C62.37 0 124.74 0 189 0 C189 14.85 189 29.7 189 45 C126.63 45 64.26 45 0 45 C0 30.15 0 15.3 0 0 Z " fill="#080808" transform="translate(6,86)"/>
<path d="M0 0 C29.04 0 58.08 0 88 0 C88 14.19 88 28.38 88 43 C58.96 43 29.92 43 0 43 C0 28.81 0 14.62 0 0 Z " fill="#EFEFEF" transform="translate(106,87)"/>
<path d="M0 0 C0.33 0 0.66 0 1 0 C1 3.63 1 7.26 1 11 C2.32 11 3.64 11 5 11 C4.505 8.03 4.505 8.03 4 5 C5.32 5.33 6.64 5.66 8 6 C8.495 7.98 8.495 7.98 9 10 C14.16726788 10.77748244 18.77183556 11.07015489 23.9375 10.2578125 C27.61314306 9.79835712 31.30249988 9.92296875 35 10 C35.33 9.34 35.66 8.68 36 8 C36 8.66 36 9.32 36 10 C37.17369141 9.98259766 37.17369141 9.98259766 38.37109375 9.96484375 C39.88896484 9.95130859 39.88896484 9.95130859 41.4375 9.9375 C42.44683594 9.92589844 43.45617187 9.91429688 44.49609375 9.90234375 C47 10 47 10 48 11 C48 14.96 48 18.92 48 23 C19.62 23 -8.76 23 -38 23 C-38 14 -38 14 -37 12 C-33.7 12 -30.4 12 -27 12 C-26.67 11.34 -26.34 10.68 -26 10 C-24.35 10.33 -22.7 10.66 -21 11 C-20.67 9.68 -20.34 8.36 -20 7 C-19.01 7.66 -18.02 8.32 -17 9 C-17 9.66 -17 10.32 -17 11 C-13.37 11 -9.74 11 -6 11 C-6 10.34 -6 9.68 -6 9 C-6.66 9 -7.32 9 -8 9 C-8 8.01 -8 7.02 -8 6 C-7.05125 5.566875 -6.1025 5.13375 -5.125 4.6875 C-1.79958063 3.20697799 -1.79958063 3.20697799 0 0 Z " fill="#FCFCFC" transform="translate(145,106)"/>
<path d="M0 0 C4.80548597 -0.04936883 9.61082494 -0.08570443 14.41650391 -0.10986328 C16.05194672 -0.11993254 17.68737149 -0.13358881 19.32275391 -0.15087891 C21.6709437 -0.17508705 24.01889588 -0.18647357 26.3671875 -0.1953125 C27.10057343 -0.20563507 27.83395935 -0.21595764 28.58956909 -0.22659302 C30.39462697 -0.22699368 32.1990783 -0.12212755 34 0 C34.66 0.66 35.32 1.32 36 2 C35.625 4.625 35.625 4.625 35 7 C33.02 7.66 31.04 8.32 29 9 C29 9.99 29 10.98 29 12 C29.66 12 30.32 12 31 12 C31 12.66 31 13.32 31 14 C29.741875 14.185625 28.48375 14.37125 27.1875 14.5625 C26.12595703 14.71912109 26.12595703 14.71912109 25.04296875 14.87890625 C23 15 23 15 20 14 C18.3125 12.4375 18.3125 12.4375 17 11 C16.67 11.99 16.34 12.98 16 14 C10.72 14 5.44 14 0 14 C0 9.38 0 4.76 0 0 Z " fill="#F3F3F3" transform="translate(108,103)"/>
<path d="M0 0 C6.8359375 -0.1953125 6.8359375 -0.1953125 9 0 C9.66 0.66 10.32 1.32 11 2 C11.66 1.34 12.32 0.68 13 0 C15.68839385 -0.26991906 18.29141936 -0.08737357 21 0 C21 0.66 21 1.32 21 2 C21.53625 1.67 22.0725 1.34 22.625 1 C25.5391061 -0.22699204 27.86867708 -0.14233286 31 0 C31 0.66 31 1.32 31 2 C29.35 2.33 27.7 2.66 26 3 C26 3.66 26 4.32 26 5 C27.98 5.99 29.96 6.98 32 8 C31.67 9.65 31.34 11.3 31 13 C24.375 14.125 24.375 14.125 21 13 C18.89686836 13.23368129 16.79407294 13.47205002 14.6953125 13.7421875 C9.80094185 14.21034469 4.91262659 14.05646697 0 14 C0 9.38 0 4.76 0 0 Z " fill="#E9E9E9" transform="translate(159,103)"/>
<path d="M0 0 C11.93508501 -0.60278207 11.93508501 -0.60278207 16.3125 1.875 C18.70631155 6.30798434 18.75458106 10.0668249 18 15 C16.38727433 18.68623011 15.369675 19.75355 12 22 C7.98500069 22.26874159 4.02862593 22.08663712 0 22 C0 14.74 0 7.48 0 0 Z " fill="#DEDEDE" transform="translate(12,97)"/>
<path d="M0 0 C1.918125 -0.0825 3.83625 -0.165 5.8125 -0.25 C7.43091797 -0.31960937 7.43091797 -0.31960937 9.08203125 -0.390625 C12 0 12 0 13.8671875 1.85546875 C15.25529336 4.48329675 15.37630848 6.06479384 15 9 C14.01 10.485 14.01 10.485 13 12 C13.66 12.33 14.32 12.66 15 13 C15.33 11.68 15.66 10.36 16 9 C16.66 9.33 17.32 9.66 18 10 C17.34 11.32 16.68 12.64 16 14 C10.72 14 5.44 14 0 14 C0 9.38 0 4.76 0 0 Z " fill="#E0E0E0" transform="translate(108,103)"/>
<path d="M0 0 C5.28 0 10.56 0 16 0 C16 0.99 16 1.98 16 3 C13.03 3 10.06 3 7 3 C7 4.98 7 6.96 7 9 C9.31 9 11.62 9 14 9 C14 9.99 14 10.98 14 12 C11.36 12 8.72 12 6 12 C6 14.64 6 17.28 6 20 C9.3 19.67 12.6 19.34 16 19 C16 19.99 16 20.98 16 22 C10.72 22 5.44 22 0 22 C0 21.34 0 20.68 0 20 C0.66 20 1.32 20 2 20 C2 14.06 2 8.12 2 2 C1.34 2 0.68 2 0 2 C0 1.34 0 0.68 0 0 Z " fill="#E1E1E1" transform="translate(34,97)"/>
<path d="M0 0 C0.66 0 1.32 0 2 0 C2 0.66 2 1.32 2 2 C2.53625 1.67 3.0725 1.34 3.625 1 C6.5391061 -0.22699204 8.86867708 -0.14233286 12 0 C12 0.66 12 1.32 12 2 C10.35 2.33 8.7 2.66 7 3 C7 3.66 7 4.32 7 5 C8.98 5.99 10.96 6.98 13 8 C12.67 9.65 12.34 11.3 12 13 C7.6835078 13.76173392 4.25566547 14.16063604 0 13 C0.1546875 11.8553125 0.1546875 11.8553125 0.3125 10.6875 C0.209375 9.800625 0.10625 8.91375 0 8 C-2.46326712 6.3553326 -2.46326712 6.3553326 -5 5 C-5 4.01 -5 3.02 -5 2 C-3.35 2 -1.7 2 0 2 C0 1.34 0 0.68 0 0 Z " fill="#E5E5E5" transform="translate(178,103)"/>
<path d="M0 0 C3.96 0 7.92 0 12 0 C12.36933163 9.35640138 12.36933163 9.35640138 10.6796875 12.30078125 C9 14 9 14 5.9375 14.4375 C4.968125 14.293125 3.99875 14.14875 3 14 C0.01054405 9.51581607 0.37740622 5.34658811 0 0 Z " fill="#2A2A2A" transform="translate(85,103)"/>
<path d="M0 0 C1.258125 -0.04125 2.51625 -0.0825 3.8125 -0.125 C4.52019531 -0.14820312 5.22789063 -0.17140625 5.95703125 -0.1953125 C8 0 8 0 11 2 C11.3984375 4.05859375 11.3984375 4.05859375 11.375 6.4375 C11.38273437 7.21996094 11.39046875 8.00242187 11.3984375 8.80859375 C10.90451592 11.52516246 10.24551315 12.41552555 8 14 C5.27492202 14.39078556 2.76878044 14.13616953 0 14 C0 9.38 0 4.76 0 0 Z " fill="#757575" transform="translate(72,103)"/>
<path d="M0 0 C1.32 0 2.64 0 4 0 C4 11.55 4 23.1 4 35 C2.68 35 1.36 35 0 35 C0 23.45 0 11.9 0 0 Z " fill="#C1C1C1" transform="translate(54,91)"/>
<path d="M0 0 C6 0 6 0 7.8515625 1.22265625 C10.00151521 4.54996402 9.49460787 8.19426723 9 12 C7.875 14.5625 7.875 14.5625 6 16 C4.02 16 2.04 16 0 16 C0 10.72 0 5.44 0 0 Z " fill="#151515" transform="translate(17,100)"/>
<path d="M0 0 C6.0546875 -0.1953125 6.0546875 -0.1953125 8 0 C8.66 0.66 9.32 1.32 10 2 C9.625 4.625 9.625 4.625 9 7 C7.02 7.66 5.04 8.32 3 9 C3.33 10.32 3.66 11.64 4 13 C2.68 13 1.36 13 0 13 C0 8.71 0 4.42 0 0 Z " fill="#5E5E5E" transform="translate(134,103)"/>
<path d="M0 0 C2.31 0 4.62 0 7 0 C7.50806075 2.54030376 8.0152607 5.08011868 8.5 7.625 C8.98065971 10.13198898 8.98065971 10.13198898 10 13 C8.68 12.67 7.36 12.34 6 12 C5.896875 11.360625 5.79375 10.72125 5.6875 10.0625 C5.460625 9.381875 5.23375 8.70125 5 8 C4.01 7.67 3.02 7.34 2 7 C2 8.65 2 10.3 2 12 C1.34 12 0.68 12 0 12 C0 8.04 0 4.08 0 0 Z " fill="#404040" transform="translate(147,104)"/>
<path d="M0 0 C0.33 0 0.66 0 1 0 C1.33 4.62 1.66 9.24 2 14 C2.33 9.71 2.66 5.42 3 1 C3.33 1 3.66 1 4 1 C4 6.28 4 11.56 4 17 C6.64 16.34 9.28 15.68 12 15 C11.67 16.65 11.34 18.3 11 20 C7.04 20 3.08 20 -1 20 C-0.67 13.4 -0.34 6.8 0 0 Z " fill="#C3C3C3" transform="translate(13,99)"/>
<path d="M0 0 C2.97 0 5.94 0 9 0 C9 0.66 9 1.32 9 2 C7.02 2 5.04 2 3 2 C3 3.32 3 4.64 3 6 C4.65 6 6.3 6 8 6 C8 6.33 8 6.66 8 7 C6.35 7 4.7 7 3 7 C3 8.65 3 10.3 3 12 C4.98 12 6.96 12 9 12 C9 12.66 9 13.32 9 14 C6.03 14 3.06 14 0 14 C0 9.38 0 4.76 0 0 Z " fill="#656565" transform="translate(159,103)"/>
<path d="M0 0 C0.99 0 1.98 0 3 0 C3.33 3.3 3.66 6.6 4 10 C4.99 10 5.98 10 7 10 C7.33 6.7 7.66 3.4 8 0 C8.66 0 9.32 0 10 0 C10.05391993 1.79133978 10.09275571 3.58313899 10.125 5.375 C10.14820312 6.37273437 10.17140625 7.37046875 10.1953125 8.3984375 C10 11 10 11 8 13 C5 13.3125 5 13.3125 2 13 C-0.20914 9.68629 -0.22481553 8.6553979 -0.125 4.8125 C-0.10695313 3.91144531 -0.08890625 3.01039062 -0.0703125 2.08203125 C-0.04710938 1.39496094 -0.02390625 0.70789063 0 0 Z " fill="#B9B9B9" transform="translate(86,104)"/>
<path d="M0 0 C0.99 0 1.98 0 3 0 C3 7.59 3 15.18 3 23 C2.01 23 1.02 23 0 23 C0 15.41 0 7.82 0 0 Z " fill="#E0E0E0" transform="translate(60,98)"/>
<path d="M0 0 C2.97 0 5.94 0 9 0 C9 0.66 9 1.32 9 2 C7.02 2 5.04 2 3 2 C3 3.32 3 4.64 3 6 C4.65 6 6.3 6 8 6 C8 6.33 8 6.66 8 7 C6.35 7 4.7 7 3 7 C3 8.65 3 10.3 3 12 C4.98 12 6.96 12 9 12 C9 12.66 9 13.32 9 14 C6.03 14 3.06 14 0 14 C0 9.38 0 4.76 0 0 Z " fill="#5E5E5E" transform="translate(108,103)"/>
<path d="M0 0 C5.28 0 10.56 0 16 0 C16 0.99 16 1.98 16 3 C13.03 3 10.06 3 7 3 C7 4.98 7 6.96 7 9 C9.31 9 11.62 9 14 9 C14 9.33 14 9.66 14 10 C7.84765625 10.09765625 7.84765625 10.09765625 6 10 C5 9 5 9 4.90234375 7.15234375 C4.93489583 5.1015625 4.96744792 3.05078125 5 1 C3.35 1.33 1.7 1.66 0 2 C0 1.34 0 0.68 0 0 Z " fill="#A7A7A7" transform="translate(34,97)"/>
<path d="M0 0 C0 4.62 0 9.24 0 14 C-0.99 13.34 -1.98 12.68 -3 12 C-3 10.68 -3 9.36 -3 8 C-4.98 7.01 -6.96 6.02 -9 5 C-8.67 4.01 -8.34 3.02 -8 2 C-2.10526316 0 -2.10526316 0 0 0 Z " fill="#E6E6E6" transform="translate(193,103)"/>
<path d="M0 0 C1.32 0 2.64 0 4 0 C4.66 1.32 5.32 2.64 6 4 C6.66 3.01 7.32 2.02 8 1 C8.66 1.33 9.32 1.66 10 2 C9.649375 2.5775 9.29875 3.155 8.9375 3.75 C7.8275551 6.41386776 8.05410055 7.33428337 9 10 C9.33 10.99 9.66 11.98 10 13 C8.68 12.34 7.36 11.68 6 11 C6 10.34 6 9.68 6 9 C5.01 9.495 5.01 9.495 4 10 C3.67 10.99 3.34 11.98 3 13 C2.01 12.67 1.02 12.34 0 12 C0.66 11.01 1.32 10.02 2 9 C2.37198336 5.37316225 1.85274014 3.12649899 0 0 Z " fill="#535353" transform="translate(120,103)"/>
<path d="M0 0 C1.4540625 0.0309375 1.4540625 0.0309375 2.9375 0.0625 C2.9375 0.7225 2.9375 1.3825 2.9375 2.0625 C1.2875 2.3925 -0.3625 2.7225 -2.0625 3.0625 C-2.0625 3.7225 -2.0625 4.3825 -2.0625 5.0625 C-0.0825 6.0525 1.8975 7.0425 3.9375 8.0625 C3.6075 9.7125 3.2775 11.3625 2.9375 13.0625 C0.6275 13.3925 -1.6825 13.7225 -4.0625 14.0625 C-4.3925 13.4025 -4.7225 12.7425 -5.0625 12.0625 C-2.7525 12.0625 -0.4425 12.0625 1.9375 12.0625 C1.21481765 8.7639861 1.21481765 8.7639861 -2.125 7.375 C-3.094375 6.941875 -4.06375 6.50875 -5.0625 6.0625 C-3.98897059 0.08140756 -3.98897059 0.08140756 0 0 Z " fill="#515151" transform="translate(187.0625,102.9375)"/>
<path d="M0 0 C1.4540625 0.0309375 1.4540625 0.0309375 2.9375 0.0625 C2.9375 0.7225 2.9375 1.3825 2.9375 2.0625 C1.2875 2.0625 -0.3625 2.0625 -2.0625 2.0625 C-0.81703595 5.79889216 0.57154953 6.25006513 3.9375 8.0625 C3.0625 12.9375 3.0625 12.9375 1.9375 14.0625 C-0.06208364 14.10330783 -2.06295254 14.10504356 -4.0625 14.0625 C-4.0625 13.4025 -4.0625 12.7425 -4.0625 12.0625 C-2.0825 12.0625 -0.1025 12.0625 1.9375 12.0625 C1.24864204 8.85188622 1.24864204 8.85188622 -1.625 7.6875 C-2.429375 7.15125 -3.23375 6.615 -4.0625 6.0625 C-4.4375 3.4375 -4.4375 3.4375 -4.0625 1.0625 C-3.0625 0.0625 -3.0625 0.0625 0 0 Z " fill="#535353" transform="translate(175.0625,102.9375)"/>
<path d="M0 0 C6.15234375 -0.09765625 6.15234375 -0.09765625 8 0 C9 1 9 1 9.09765625 2.84765625 C9.04882812 5.92382812 9.04882812 5.92382812 9 9 C8.67 9 8.34 9 8 9 C7.34 6.69 6.68 4.38 6 2 C4.68 1.67 3.36 1.34 2 1 C2 4.3 2 7.6 2 11 C2.99 11.33 3.98 11.66 5 12 C3.35 12 1.7 12 0 12 C0 8.04 0 4.08 0 0 Z " fill="#D6D6D6" transform="translate(73,104)"/>
<path d="M0 0 C0 1.32 0 2.64 0 4 C-0.99 4 -1.98 4 -3 4 C-3 4.66 -3 5.32 -3 6 C-4.98 6 -6.96 6 -9 6 C-9 4.02 -9 2.04 -9 0 C-3.375 -1.125 -3.375 -1.125 0 0 Z " fill="#D9D9D9" transform="translate(171,105)"/>
<path d="M0 0 C0.33 0 0.66 0 1 0 C1 2.64 1 5.28 1 8 C4.3 7.67 7.6 7.34 11 7 C11 7.99 11 8.98 11 10 C5.72 10 0.44 10 -5 10 C-5 9.34 -5 8.68 -5 8 C-2.525 8.495 -2.525 8.495 0 9 C0 6.03 0 3.06 0 0 Z " fill="#C5C5C5" transform="translate(39,109)"/>
<path d="M0 0 C2.31 0 4.62 0 7 0 C6.01 0.66 5.02 1.32 4 2 C3.48952682 5.08530883 3.48952682 5.08530883 3.4375 8.5625 C3.35981158 10.71187958 3.22984875 12.86153382 3 15 C2.01 15.495 2.01 15.495 1 16 C0.67 10.72 0.34 5.44 0 0 Z " fill="#FAFAFA" transform="translate(13,98)"/>
<path d="M0 0 C2.12438339 -0.08078641 4.2496323 -0.13909141 6.375 -0.1875 C7.55835938 -0.22230469 8.74171875 -0.25710937 9.9609375 -0.29296875 C11.46527344 -0.14794922 11.46527344 -0.14794922 13 0 C13.66 0.99 14.32 1.98 15 3 C14.01 4.485 14.01 4.485 13 6 C12.34 5.34 11.68 4.68 11 4 C9.01014051 3.61067967 7.00800456 3.28112064 5 3 C2.6875 2.5625 2.6875 2.5625 1 2 C0.67 1.34 0.34 0.68 0 0 Z " fill="#C3C3C3" transform="translate(12,97)"/>
<path d="M0 0 C1.32 0 2.64 0 4 0 C4 2.64 4 5.28 4 8 C2.68 8 1.36 8 0 8 C0 5.36 0 2.72 0 0 Z " fill="#070707" transform="translate(76,106)"/>
<path d="M0 0 C0.66 0 1.32 0 2 0 C3.32 2.31 4.64 4.62 6 7 C4.68 6.34 3.36 5.68 2 5 C2 4.34 2 3.68 2 3 C1.01 3.495 1.01 3.495 0 4 C-0.33 4.99 -0.66 5.98 -1 7 C-1.99 6.67 -2.98 6.34 -4 6 C-2.7260411 3.96166576 -1.38938077 1.96147874 0 0 Z " fill="#3E3E3E" transform="translate(124,109)"/>
<path d="M0 0 C0.5625 1.9375 0.5625 1.9375 1 4 C0 5 0 5 -2.72265625 5.09765625 C-4.37587891 5.08025391 -4.37587891 5.08025391 -6.0625 5.0625 C-7.16722656 5.05347656 -8.27195312 5.04445313 -9.41015625 5.03515625 C-10.69212891 5.01775391 -10.69212891 5.01775391 -12 5 C-11.67 4.34 -11.34 3.68 -11 3 C-9.35 3 -7.7 3 -6 3 C-6 2.67 -6 2.34 -6 2 C-4.02 1.34 -2.04 0.68 0 0 Z " fill="#B3B3B3" transform="translate(24,114)"/>
<path d="M0 0 C3.3 0.33 6.6 0.66 10 1 C10 1.66 10 2.32 10 3 C2.375 4.25 2.375 4.25 -1 2 C-0.67 1.34 -0.34 0.68 0 0 Z " fill="#BBBBBB" transform="translate(129,114)"/>
<path d="M0 0 C1.32 0.33 2.64 0.66 4 1 C4 2.32 4 3.64 4 5 C3.01 5.33 2.02 5.66 1 6 C0.67 4.02 0.34 2.04 0 0 Z " fill="#D3D3D3" transform="translate(149,111)"/>
<path d="M0 0 C2.31 0 4.62 0 7 0 C6.67 0.66 6.34 1.32 6 2 C5.34 1.67 4.68 1.34 4 1 C3.34 2.32 2.68 3.64 2 5 C1.34 4.67 0.68 4.34 0 4 C0 2.68 0 1.36 0 0 Z " fill="#C5C5C5" transform="translate(124,103)"/>
<path d="M0 0 C1.32 0.33 2.64 0.66 4 1 C3.67 2.32 3.34 3.64 3 5 C2.01 5 1.02 5 0 5 C0 3.35 0 1.7 0 0 Z " fill="#CECECE" transform="translate(149,105)"/>
<path d="M0 0 C1.32 0.33 2.64 0.66 4 1 C3.67 2.32 3.34 3.64 3 5 C2.01 5 1.02 5 0 5 C0 3.35 0 1.7 0 0 Z " fill="#E3E3E3" transform="translate(137,105)"/>
</svg>
