<?xml version="1.0" encoding="UTF-8"?>
<svg version="1.1" xmlns="http://www.w3.org/2000/svg" width="400" height="100">
<path d="M0 0 C5.34493948 4.25783314 8.08792582 9.28786017 10.69921875 15.52734375 C10.96734375 14.88667969 11.23546875 14.24601562 11.51171875 13.5859375 C15.45188974 4.88904693 20.19565725 -0.32122667 29.13671875 -3.91015625 C37.78733545 -6.67454065 45.33274684 -5.99538126 53.69921875 -2.47265625 C56.22719168 -0.95587249 58.39351701 0.67275757 60.69921875 2.52734375 C59.25958236 5.88649533 57.57505286 8.24359313 54.69921875 10.52734375 C51.96849514 10.43631963 50.42571247 9.36454239 48.07421875 7.96484375 C42.46523314 5.57583136 37.13318284 5.70071444 31.38671875 7.65234375 C26.33652988 11.17573133 23.97412846 14.84006947 21.69921875 20.52734375 C36.54921875 20.52734375 51.39921875 20.52734375 66.69921875 20.52734375 C66.69921875 31.35144854 66.09942605 35.77314678 61.07421875 44.27734375 C54.76273386 50.25664523 46.54159224 52.90031689 37.9375 52.73828125 C29.20855711 51.91565836 21.92166028 48.39443284 16.1640625 41.7578125 C13.72973739 38.50021709 12.14566523 35.3389257 10.69921875 31.52734375 C10.43109375 32.16800781 10.16296875 32.80867188 9.88671875 33.46875 C5.94654776 42.16564057 1.20278025 47.37591417 -7.73828125 50.96484375 C-16.4250872 53.74079276 -23.89259245 53.00755434 -32.30078125 49.52734375 C-38.46544349 46.20972018 -41.97740745 41.90194693 -44.55078125 35.33984375 C-45.30078125 31.52734375 -45.30078125 31.52734375 -45.30078125 20.52734375 C-30.45078125 20.52734375 -15.60078125 20.52734375 -0.30078125 20.52734375 C-4.04839779 11.43896445 -4.04839779 11.43896445 -11.05859375 7.08203125 C-15.86526177 5.89292522 -20.7500878 5.35645399 -25.3515625 7.46875 C-27.00383452 8.48417199 -28.6525211 9.50542246 -30.30078125 10.52734375 C-32.42578125 10.65234375 -32.42578125 10.65234375 -34.30078125 9.52734375 C-36.12589722 7.61255445 -37.68618618 5.63528732 -39.30078125 3.52734375 C-28.35738496 -7.66970742 -13.01182756 -8.32845329 0 0 Z M-34.30078125 29.52734375 C-32.0968379 36.1391738 -31.52097037 36.79863723 -26.30078125 40.52734375 C-20.54691918 42.44529777 -14.49471308 42.42037859 -8.92578125 39.90234375 C-5.12385653 37.74740666 -3.30976803 35.37790174 -1.30078125 31.52734375 C-1.30078125 30.86734375 -1.30078125 30.20734375 -1.30078125 29.52734375 C-12.19078125 29.52734375 -23.08078125 29.52734375 -34.30078125 29.52734375 Z M22.69921875 29.52734375 C24.63380665 34.49285888 24.63380665 34.49285888 28.13671875 37.77734375 C28.73355469 38.2775 29.33039063 38.77765625 29.9453125 39.29296875 C34.55110964 42.53446518 40.32055759 42.07445685 45.69921875 41.52734375 C50.60122962 39.21002952 53.0490073 36.2161794 55.69921875 31.52734375 C55.69921875 30.86734375 55.69921875 30.20734375 55.69921875 29.52734375 C44.80921875 29.52734375 33.91921875 29.52734375 22.69921875 29.52734375 Z " fill="#2E8C45" transform="translate(49.30078125,26.47265625)"/>
<path d="M0 0 C2.30859375 1.3984375 2.30859375 1.3984375 4 3 C4 3.66 4 4.32 4 5 C2.02 5.99 2.02 5.99 0 7 C-0.99 6.34 -1.98 5.68 -3 5 C-6.6233318 5.12940471 -9.06985031 5.24987928 -11.9375 7.5625 C-13.48116568 11.10385067 -13.79877599 14.20775284 -13 18 C-11.2071208 20.78475509 -11.2071208 20.78475509 -8 22 C-4.92088169 22.01544708 -2.01464354 21.60424228 1 21 C1.33 19.68 1.66 18.36 2 17 C-0.31 17 -2.62 17 -5 17 C-5 15.68 -5 14.36 -5 13 C-1.04 13 2.92 13 7 13 C7.59865471 18.98654709 7.59865471 18.98654709 5.95703125 21.765625 C3.41845286 24.83276371 1.63693457 26.78554257 -2.35546875 27.30859375 C-7.50842952 27.54314231 -11.05566507 27.60540294 -15.125 24.1875 C-18.36798428 21.04537409 -19.1664531 18.13808719 -19.3125 13.6875 C-19.25242941 9.06957302 -18.10443184 6.52394966 -15 3 C-10.74189275 -0.75715346 -5.43382574 -0.90121988 0 0 Z " fill="#0D2A3B" transform="translate(310,35)"/>
<path d="M0 0 C1.2684375 -0.02513672 1.2684375 -0.02513672 2.5625 -0.05078125 C5.45330535 0.38005993 6.82826275 1.40720274 9 3.3125 C8.34 4.6325 7.68 5.9525 7 7.3125 C5.9790625 6.7865625 5.9790625 6.7865625 4.9375 6.25 C1.15346543 5.04232939 -1.18369617 5.2524156 -5 6.3125 C-7.35275179 8.96883266 -7.9194432 10.82915917 -8.5 14.3125 C-8.18790574 17.47772694 -8.18790574 17.47772694 -6 20.25 C-2.88621348 22.39072824 -2.34506215 22.62779243 1.1875 22.3125 C5.21687403 21.70662068 5.21687403 21.70662068 7 18.3125 C4.69 17.9825 2.38 17.6525 0 17.3125 C0 15.9925 0 14.6725 0 13.3125 C4.29 13.3125 8.58 13.3125 13 13.3125 C11.27118644 23.10911017 11.27118644 23.10911017 7 26.3125 C3.28507853 28.16996073 -0.94563892 27.7546807 -5 27.3125 C-8.76266417 25.53378603 -10.51796464 23.98112969 -12.9375 20.625 C-14.35172681 16.21593996 -14.17977192 12.76853041 -13 8.3125 C-9.8010095 2.24544906 -6.82793535 0.03122531 0 0 Z " fill="#0D2A3A" transform="translate(149,34.6875)"/>
<path d="M0 0 C1.65 0 3.3 0 5 0 C5.33 4.29 5.66 8.58 6 13 C6.99 12.01 7.98 11.02 9 10 C12.6875 9.8125 12.6875 9.8125 16 10 C14.02 12.31 12.04 14.62 10 17 C11.49843914 19.99687829 12.51294762 21.7851948 14.625 24.1875 C17 27 17 27 17 28 C14.3125 28.375 14.3125 28.375 11 28 C8.93601924 26.176017 7.60958947 24.27236161 6 22 C5.67 23.98 5.34 25.96 5 28 C3.35 28 1.7 28 0 28 C0 18.76 0 9.52 0 0 Z " fill="#0D2A3A" transform="translate(363,34)"/>
<path d="M0 0 C1.65 0 3.3 0 5 0 C5.33 4.29 5.66 8.58 6 13 C6.99 12.01 7.98 11.02 9 10 C12.6875 9.8125 12.6875 9.8125 16 10 C14.02 12.31 12.04 14.62 10 17 C11.49843914 19.99687829 12.51294762 21.7851948 14.625 24.1875 C17 27 17 27 17 28 C14.3125 28.375 14.3125 28.375 11 28 C8.93601924 26.176017 7.60958947 24.27236161 6 22 C5.67 23.98 5.34 25.96 5 28 C3.35 28 1.7 28 0 28 C0 18.76 0 9.52 0 0 Z " fill="#0D2A3A" transform="translate(207,34)"/>
<path d="M0 0 C2.5 1.5625 2.5 1.5625 4 4 C4.75 7.75 4.75 7.75 5 11 C0.38 11 -4.24 11 -9 11 C-9 11.66 -9 12.32 -9 13 C-5.1146983 13.07471734 -1.75055095 12.97236506 2 12 C2.66 12.33 3.32 12.66 4 13 C2.25 16.875 2.25 16.875 0 18 C-4.73790088 18.65157772 -7.99519212 18.65620107 -12.0625 16 C-14.20766662 12.67845169 -14.7595293 10.82131981 -14.47265625 6.9375 C-12.68875462 -0.37502237 -6.38246653 -1.26456346 0 0 Z M-7 4 C-7.66 5.32 -8.32 6.64 -9 8 C-6.03 8 -3.06 8 0 8 C-0.66 6.68 -1.32 5.36 -2 4 C-3.65 4 -5.3 4 -7 4 Z " fill="#0D2A3A" transform="translate(355,44)"/>
<path d="M0 0 C2.5 1.5625 2.5 1.5625 4 4 C4.75 7.75 4.75 7.75 5 11 C0.38 11 -4.24 11 -9 11 C-9 11.66 -9 12.32 -9 13 C-5.1146983 13.07471734 -1.75055095 12.97236506 2 12 C2.66 12.33 3.32 12.66 4 13 C2.25 16.875 2.25 16.875 0 18 C-4.73790088 18.65157772 -7.99519212 18.65620107 -12.0625 16 C-14.20766662 12.67845169 -14.7595293 10.82131981 -14.47265625 6.9375 C-12.68875462 -0.37502237 -6.38246653 -1.26456346 0 0 Z M-7 4 C-7.66 5.32 -8.32 6.64 -9 8 C-6.03 8 -3.06 8 0 8 C-0.66 6.68 -1.32 5.36 -2 4 C-3.65 4 -5.3 4 -7 4 Z " fill="#0D2A3A" transform="translate(178,44)"/>
<path d="M0 0 C2.08984375 0.44921875 2.08984375 0.44921875 4.58984375 2.01171875 C6.5104626 5.13272438 6.81123561 7.82731295 7.08984375 11.44921875 C0.65484375 11.94421875 0.65484375 11.94421875 -5.91015625 12.44921875 C-4.80649395 13.77812259 -4.80649395 13.77812259 -2.03515625 13.57421875 C1.12196788 13.59298741 1.12196788 13.59298741 4.08984375 12.44921875 C4.74984375 12.77921875 5.40984375 13.10921875 6.08984375 13.44921875 C4.33984375 17.32421875 4.33984375 17.32421875 2.08984375 18.44921875 C-2.32325785 18.96890832 -5.77174776 19.30302512 -9.41015625 16.57421875 C-11.93111381 13.0028622 -12.41770184 10.84794721 -11.91015625 6.44921875 C-8.76593276 0.97218429 -6.33281761 -0.47417104 0 0 Z M-4.91015625 4.44921875 C-5.57015625 5.76921875 -6.23015625 7.08921875 -6.91015625 8.44921875 C-3.94015625 8.44921875 -0.97015625 8.44921875 2.08984375 8.44921875 C1.42984375 7.12921875 0.76984375 5.80921875 0.08984375 4.44921875 C-1.56015625 4.44921875 -3.21015625 4.44921875 -4.91015625 4.44921875 Z " fill="#0E2A3B" transform="translate(196.91015625,43.55078125)"/>
<path d="M0 0 C3.46145669 0.86536417 4.94931405 2.62635769 6.9375 5.484375 C6.9375 7.464375 6.9375 9.444375 6.9375 11.484375 C2.6475 11.484375 -1.6425 11.484375 -6.0625 11.484375 C-5.7325 12.144375 -5.4025 12.804375 -5.0625 13.484375 C-0.89150941 13.59351547 -0.89150941 13.59351547 3.1875 12.859375 C3.765 12.735625 4.3425 12.611875 4.9375 12.484375 C5.5975 13.144375 6.2575 13.804375 6.9375 14.484375 C5.194911 16.90884665 3.82950592 18.31129922 0.84375 18.890625 C-3.02500547 19.04537522 -5.58990259 18.70620644 -9.125 17.046875 C-11.5800853 13.7998267 -11.79009189 11.68294568 -11.5390625 7.6796875 C-10.20698975 1.54341793 -5.74540685 -0.39173229 0 0 Z M-4.0625 4.484375 C-5.5475 6.464375 -5.5475 6.464375 -7.0625 8.484375 C-3.7625 8.484375 -0.4625 8.484375 2.9375 8.484375 C2.6075 7.494375 2.2775 6.504375 1.9375 5.484375 C-1.0325 4.989375 -1.0325 4.989375 -4.0625 4.484375 Z " fill="#0D2A3B" transform="translate(331.0625,43.515625)"/>
<path d="M0 0 C3.70718433 0.81785983 5.13329673 2.33819937 7.16015625 5.4765625 C7.85352718 8.3188103 7.85352718 10.6343147 7.16015625 13.4765625 C5.13329673 16.61492563 3.70718433 18.13526517 0 18.953125 C-4.19478356 19.21923815 -6.33149918 18.80854263 -9.90234375 16.4765625 C-12.04751037 13.15501419 -12.59937305 11.29788231 -12.3125 7.4140625 C-10.74731731 0.998107 -5.87069709 -0.37243154 0 0 Z M-6.77734375 6.1640625 C-8.14800599 8.49058472 -8.14800599 8.49058472 -7.08984375 11.1640625 C-6.03756065 13.37411397 -6.03756065 13.37411397 -4.83984375 14.4765625 C-2.00624833 14.7748357 -0.40198997 14.83258844 2.03515625 13.2890625 C3.41193222 11.46731995 3.41193222 11.46731995 2.97265625 8.9140625 C2.31388592 6.33214978 2.31388592 6.33214978 0.16015625 4.4765625 C-3.05277885 3.98226479 -4.29177952 3.99921624 -6.77734375 6.1640625 Z " fill="#0D2A3A" transform="translate(265.83984375,43.5234375)"/>
<path d="M0 0 C0.99 0.66 1.98 1.32 3 2 C3 3.32 3 4.64 3 6 C1.68 6 0.36 6 -1 6 C-1 5.34 -1 4.68 -1 4 C-1.99 4 -2.98 4 -4 4 C-4 4.66 -4 5.32 -4 6 C-2.865625 6.37125 -1.73125 6.7425 -0.5625 7.125 C1.36328125 7.9453125 1.36328125 7.9453125 3 9 C4.125 12 4.125 12 4 15 C3.0625 16.875 3.0625 16.875 1 18 C-5.96774194 18.77419355 -5.96774194 18.77419355 -9.5 16.125 C-11 14 -11 14 -11 12 C-9.35 12 -7.7 12 -6 12 C-6 12.66 -6 13.32 -6 14 C-4.35 14 -2.7 14 -1 14 C-2.61628121 10.76743757 -5.76993715 10.32663296 -9 9 C-9.33 8.67 -9.66 8.34 -10 8 C-9.6875 4.5 -9.6875 4.5 -9 1 C-5.98131566 -0.50934217 -3.32702771 -0.17510672 0 0 Z " fill="#0D2A3A" transform="translate(391,44)"/>
<path d="M0 0 C1.670625 0.061875 1.670625 0.061875 3.375 0.125 C3.375 1.445 3.375 2.765 3.375 4.125 C2.055 4.455 0.735 4.785 -0.625 5.125 C-0.955 6.775 -1.285 8.425 -1.625 10.125 C-0.305 10.125 1.015 10.125 2.375 10.125 C2.375 11.115 2.375 12.105 2.375 13.125 C1.055 13.125 -0.265 13.125 -1.625 13.125 C-1.625 18.075 -1.625 23.025 -1.625 28.125 C-3.275 28.125 -4.925 28.125 -6.625 28.125 C-6.625 23.175 -6.625 18.225 -6.625 13.125 C-7.615 13.125 -8.605 13.125 -9.625 13.125 C-9.625 12.135 -9.625 11.145 -9.625 10.125 C-8.635 10.125 -7.645 10.125 -6.625 10.125 C-6.50125 8.84625 -6.3775 7.5675 -6.25 6.25 C-5.79799047 1.57923488 -5.04578178 0.17399248 0 0 Z " fill="#0E2A3B" transform="translate(250.625,33.875)"/>
<path d="M0 0 C2 2 2 2 2 6 C0.68 6 -0.64 6 -2 6 C-2 5.34 -2 4.68 -2 4 C-3.32 4 -4.64 4 -6 4 C-4.38371879 7.23256243 -1.23006285 7.67336704 2 9 C3 10 3 10 3.25 12.375 C3 15 3 15 2 16.8125 C-1.18896605 18.70594859 -4.39056899 18.5639736 -8 18 C-10 16.6875 -10 16.6875 -11 15 C-11 14.01 -11 13.02 -11 12 C-9.68 12 -8.36 12 -7 12 C-7 12.66 -7 13.32 -7 14 C-5.35 13.67 -3.7 13.34 -2 13 C-2.5775 12.71125 -3.155 12.4225 -3.75 12.125 C-4.4925 11.75375 -5.235 11.3825 -6 11 C-6.721875 10.7525 -7.44375 10.505 -8.1875 10.25 C-10 9 -10 9 -10.9375 6.0625 C-11 3 -11 3 -10.0625 1.125 C-6.67046479 -0.72520103 -3.83008402 -0.30397492 0 0 Z " fill="#0D2A3B" transform="translate(236,44)"/>
<path d="M0 0 C2.475 0.495 2.475 0.495 5 1 C5.33 0.67 5.66 0.34 6 0 C7.99958364 -0.04080783 10.00045254 -0.04254356 12 0 C12 1.32 12 2.64 12 4 C10.02 4.66 8.04 5.32 6 6 C5.34 9.96 4.68 13.92 4 18 C2.68 18 1.36 18 0 18 C0 12.06 0 6.12 0 0 Z " fill="#0E2A3B" transform="translate(277,44)"/>
</svg>
