<?xml version="1.0" encoding="UTF-8"?>
<svg version="1.1" xmlns="http://www.w3.org/2000/svg" width="979" height="196">
<path d="M0 0 C0.33 44.88 0.66 89.76 1 136 C7.27 136.33 13.54 136.66 20 137 C19.97381592 135.07285156 19.94763184 133.14570313 19.9206543 131.16015625 C19.83980452 124.77007244 19.78247564 118.38011028 19.74093914 111.98965454 C19.7149211 108.11764784 19.67966848 104.246198 19.62280273 100.37451172 C19.56820059 96.63323549 19.53852093 92.89249253 19.52561378 89.15084839 C19.51642401 87.72833875 19.49847853 86.30585605 19.47134972 84.88357544 C19.29977369 75.50970268 19.86618573 69.36206461 26.44316101 62.49267578 C31.27633862 58.06916812 36.3997241 56.47097521 42.91796875 56.6953125 C47.66683815 57.390269 51.49475827 59.18178722 54.578125 62.90625 C58.17623221 68.44816225 59.12654619 72.71453719 59.11352539 79.32910156 C59.11341209 81.25064056 59.11341209 81.25064056 59.11329651 83.21099854 C59.10819026 84.60420775 59.10297427 85.99741657 59.09765625 87.390625 C59.09579032 88.81980337 59.09436724 90.24898238 59.09336853 91.67816162 C59.08955715 95.43300148 59.07973867 99.18780243 59.06866455 102.94262695 C59.05842075 106.77685012 59.05386455 110.61107959 59.04882812 114.4453125 C59.03811513 121.96356143 59.02052953 129.4817703 59 137 C65.27 137 71.54 137 78 137 C78.04554672 129.80992411 78.08208378 122.61992969 78.10362434 115.429739 C78.11397318 112.08947656 78.12908235 108.74939842 78.15087891 105.40917969 C78.17540477 101.55140505 78.18654617 97.69377645 78.1953125 93.8359375 C78.21079636 92.07411636 78.21079636 92.07411636 78.22659302 90.27670288 C78.22852411 75.70195213 77.09159366 60.36973502 67 49 C58.62790306 42.06209525 48.53147043 41.10251117 38 42 C31.75482291 43.20570538 28.34269589 45.28507303 24 50 C22.02 50.495 22.02 50.495 20 51 C20 34.17 20 17.34 20 0 C42.96897815 -0.20054405 42.96897815 -0.20054405 52.765625 -0.24414062 C59.44844428 -0.27402117 66.13092078 -0.30935592 72.81347656 -0.37719727 C78.20162587 -0.43155499 83.58940755 -0.46142877 88.97780991 -0.47438622 C91.03273175 -0.48361926 93.08763365 -0.50164945 95.14239883 -0.52865028 C98.02261965 -0.5649902 100.90132481 -0.56994323 103.78173828 -0.56762695 C104.62978531 -0.58560333 105.47783234 -0.60357971 106.35157776 -0.62210083 C110.50558411 -0.58599422 113.1965703 -0.27544826 116.51364136 2.34797668 C120.31428469 6.40185474 120.1299684 9.44179597 120.15390015 14.81221008 C120.16047353 15.85713608 120.16047353 15.85713608 120.1671797 16.9231717 C120.18055973 19.26299286 120.18674472 21.60277636 120.19287109 23.94262695 C120.20077259 25.61804372 120.20904158 27.29345879 120.21765137 28.96887207 C120.24386259 34.47532528 120.25917658 39.98178607 120.2734375 45.48828125 C120.27879726 47.38356214 120.28417477 49.27884298 120.28956985 51.17412376 C120.31119589 59.05688092 120.32993337 66.93963604 120.34119225 74.82241535 C120.35743738 86.12201193 120.39063199 97.42126497 120.44759309 108.72073203 C120.48627549 116.66476967 120.50582283 124.60871535 120.51111281 132.5528447 C120.51476816 137.29832347 120.52680915 142.04343575 120.55921555 146.78881264 C120.58926687 151.25324059 120.59561863 155.71707973 120.58383179 160.18158722 C120.58361082 161.81906261 120.59193551 163.4565651 120.60948563 165.09394646 C120.63216911 167.33228576 120.62388914 169.56848828 120.60800171 171.80683899 C120.61296693 173.68421737 120.61296693 173.68421737 120.61803246 175.59952259 C119.79625569 180.12102192 118.20896255 181.75887645 115 185 C112.32427858 186.33786071 110.26133885 186.14130339 107.26387024 186.16062927 C105.43222069 186.17569771 105.43222069 186.17569771 103.56356812 186.19107056 C102.20294251 186.19710093 100.84231625 186.20298591 99.48168945 186.20874023 C98.05434437 186.21827701 96.62700161 186.22816809 95.19966125 186.23838806 C90.50422924 186.26979825 85.80877939 186.29004492 81.11328125 186.30859375 C79.91504781 186.31353973 79.91504781 186.31353973 78.69260764 186.31858563 C71.15852597 186.34937126 63.62444033 186.37607915 56.09031391 186.39300442 C46.45411104 186.41490543 36.81846581 186.45685904 27.18248588 186.52644199 C20.40702379 186.57370604 13.63171201 186.59794128 6.85609025 186.6052013 C2.80965246 186.61015471 -1.23615714 186.62520418 -5.28241539 186.6649456 C-9.0919643 186.70186792 -12.90052779 186.71020416 -16.71022224 186.69693947 C-18.10541098 186.69699333 -19.50064398 186.70725446 -20.89566803 186.7286911 C-32.73264804 186.90080051 -32.73264804 186.90080051 -37.3228302 183.08143616 C-41.02407643 179.25603838 -41.12778143 176.63940435 -41.14044189 171.33927917 C-41.14341302 170.64689425 -41.14638414 169.95450933 -41.1494453 169.24114305 C-41.15815082 166.90969201 -41.1596421 164.5782922 -41.16113281 162.24682617 C-41.1657597 160.57978709 -41.17078418 158.91274906 -41.17617798 157.24571228 C-41.18931695 152.70845002 -41.19574991 148.17120257 -41.20018864 143.63392425 C-41.2031171 140.80061311 -41.20722148 137.96730605 -41.21169281 135.13399696 C-41.22537201 126.27332617 -41.23503646 117.41266464 -41.2388947 108.55198401 C-41.24337592 98.31613413 -41.26092498 88.08041776 -41.2898953 77.84460849 C-41.31149817 69.93797092 -41.32159824 62.03137095 -41.32293582 54.12470418 C-41.3239849 49.40002619 -41.32991444 44.67547362 -41.34775543 39.95082664 C-41.36421191 35.50621662 -41.36640345 31.06182663 -41.35761642 26.61719704 C-41.35684473 24.98576901 -41.36120614 23.35432927 -41.37107468 21.72293091 C-41.38375803 19.49558147 -41.37793766 17.26901555 -41.36749268 15.04167175 C-41.36895924 13.7952399 -41.3704258 12.54880804 -41.3719368 11.26460552 C-40.95822244 7.63330529 -40.26768248 5.8478844 -38 3 C-27.10462711 -3.53722373 -12.70607904 0 0 0 Z M-9 152 C-9 154.97 -9 157.94 -9 161 C23.34 161 55.68 161 89 161 C89 158.03 89 155.06 89 152 C56.66 152 24.32 152 -9 152 Z " fill="#2C3454" transform="translate(49,5)"/>
<path d="M0 0 C0.89460937 -0.00128906 1.78921875 -0.00257812 2.7109375 -0.00390625 C3.65195312 -0.00003906 4.59296875 0.00382813 5.5625 0.0078125 C6.97402344 0.00201172 6.97402344 0.00201172 8.4140625 -0.00390625 C9.75597656 -0.00197266 9.75597656 -0.00197266 11.125 0 C11.95128906 0.00112793 12.77757812 0.00225586 13.62890625 0.00341797 C15.5625 0.1328125 15.5625 0.1328125 16.5625 1.1328125 C16.6849331 2.63598019 16.74026285 4.14469417 16.76782227 5.65258789 C16.78776749 6.61350845 16.80771271 7.57442902 16.82826233 8.56446838 C16.84497482 9.6092485 16.86168732 10.65402863 16.87890625 11.73046875 C16.89968735 12.79446396 16.92046844 13.85845917 16.94187927 14.95469666 C17.00749254 18.3681669 17.06631423 21.78171679 17.125 25.1953125 C17.16817403 27.50326359 17.21178794 29.8112065 17.25585938 32.11914062 C17.36318584 37.79027932 17.46492992 43.46149802 17.5625 49.1328125 C18.10496872 48.78683014 18.64743744 48.44084778 19.2063446 48.0843811 C19.92159805 47.63195038 20.6368515 47.17951965 21.3737793 46.71337891 C22.08124802 46.26427155 22.78871674 45.81516418 23.5176239 45.35244751 C31.50752535 40.58699324 41.86532977 40.9739484 50.76953125 42.78515625 C59.26871848 45.55482146 66.09339227 50.8900637 70.45001221 58.76298523 C74.92185362 68.28892501 74.98647768 78.38909328 74.890625 88.70703125 C74.88755925 90.16721908 74.88568934 91.62740985 74.88494873 93.08760071 C74.88038698 96.11898319 74.86610914 99.15009384 74.84375 102.18139648 C74.81519108 106.07311373 74.80450626 109.96462077 74.8000679 113.85643291 C74.79592531 116.85803838 74.78612214 119.85960126 74.77419281 122.86118507 C74.76849014 124.29776483 74.76373142 125.73434865 74.75992584 127.17093468 C74.75309023 129.16435579 74.738565 131.15774614 74.72363281 133.15112305 C74.71680481 134.28519089 74.70997681 135.41925873 74.70294189 136.58769226 C74.5625 139.1328125 74.5625 139.1328125 73.5625 140.1328125 C72.08597336 140.23162047 70.60482764 140.26360495 69.125 140.265625 C67.78308594 140.26755859 67.78308594 140.26755859 66.4140625 140.26953125 C65.47304688 140.26566406 64.53203125 140.26179687 63.5625 140.2578125 C62.62148438 140.26167969 61.68046875 140.26554688 60.7109375 140.26953125 C59.81632813 140.26824219 58.92171875 140.26695312 58 140.265625 C57.17371094 140.26449707 56.34742188 140.26336914 55.49609375 140.26220703 C53.5625 140.1328125 53.5625 140.1328125 52.5625 139.1328125 C52.45983561 137.18637686 52.42677746 135.23624103 52.4206543 133.28710938 C52.41361984 132.03490601 52.40658539 130.78270264 52.39933777 129.49255371 C52.39752188 128.81838913 52.39570599 128.14422455 52.39383507 127.44963074 C52.38667366 125.3382675 52.37100548 123.22713726 52.35249329 121.11584473 C52.30003979 115.11079298 52.25214258 109.1058613 52.23657227 103.10058594 C52.22642872 99.42926193 52.19693448 95.75851322 52.15525246 92.0874176 C52.14301601 90.69377518 52.13780764 89.30005115 52.14005089 87.90635681 C52.14967732 79.96578714 52.0054362 72.95626337 47.5625 66.1328125 C43.93874046 62.50905296 41.02615013 61.87042092 36.0625 61.6953125 C29.73837178 61.96096016 26.23758825 63.38158388 21.8125 68.0078125 C18.3123212 72.86917195 17.31521188 76.4971754 17.25952148 82.46777344 C17.24287949 83.72547546 17.22623749 84.98317749 17.20909119 86.2789917 C17.20053251 87.64172326 17.19203479 89.00445521 17.18359375 90.3671875 C17.16741049 91.77013294 17.15022962 93.17306719 17.13209534 94.57598877 C17.08652607 98.25802456 17.05165157 101.94007536 17.01989746 105.62225342 C16.96789732 111.53001215 16.90301646 117.43760764 16.83168221 123.34516144 C16.80880185 125.41089908 16.79256702 127.47661563 16.77696228 129.54241943 C16.76347244 130.78751282 16.7499826 132.0326062 16.73608398 133.31542969 C16.72657211 134.41731628 16.71706024 135.51920288 16.70726013 136.65447998 C16.5625 139.1328125 16.5625 139.1328125 15.5625 140.1328125 C14.08597336 140.23162047 12.60482764 140.26360495 11.125 140.265625 C9.78308594 140.26755859 9.78308594 140.26755859 8.4140625 140.26953125 C7.47304688 140.26566406 6.53203125 140.26179687 5.5625 140.2578125 C4.62148438 140.26167969 3.68046875 140.26554688 2.7109375 140.26953125 C1.81632813 140.26824219 0.92171875 140.26695312 0 140.265625 C-0.82628906 140.26449707 -1.65257812 140.26336914 -2.50390625 140.26220703 C-4.4375 140.1328125 -4.4375 140.1328125 -5.4375 139.1328125 C-5.5360491 137.35085378 -5.563821 135.56495502 -5.56448364 133.78027344 C-5.56730347 132.61919067 -5.57012329 131.45810791 -5.57302856 130.26184082 C-5.57100433 128.97660522 -5.5689801 127.69136963 -5.56689453 126.3671875 C-5.56824856 125.00907341 -5.5700285 123.6509597 -5.57220459 122.29284668 C-5.57677877 118.59460049 -5.57498943 114.89638208 -5.5718255 111.19813538 C-5.56930182 107.33619103 -5.57163946 103.47424913 -5.57321167 99.61230469 C-5.57503334 93.12564668 -5.57262712 86.63900004 -5.56787109 80.15234375 C-5.56242848 72.64231327 -5.56419113 65.13230994 -5.5696975 57.62228012 C-5.5742287 51.1857772 -5.57487915 44.74928247 -5.57225883 38.31277847 C-5.57069609 34.46351934 -5.5705022 30.61427298 -5.57379532 26.76501465 C-5.57667413 23.14700544 -5.57469816 19.52903139 -5.56890106 15.911026 C-5.56693791 13.94194589 -5.56992729 11.97286283 -5.57302856 10.00378418 C-5.56879883 8.26216003 -5.56879883 8.26216003 -5.56448364 6.48535156 C-5.56410662 5.46991272 -5.56372959 4.45447388 -5.56334114 3.40826416 C-5.34093293 -0.61330727 -3.56613495 0.00486797 0 0 Z " fill="#2B3354" transform="translate(899.4375,3.8671875)"/>
<path d="M0 0 C6.6 0 13.2 0 20 0 C22.86623608 2.86623608 22.30764959 5.73025624 22.31884766 9.57080078 C22.32889328 10.35137848 22.3389389 11.13195618 22.34928894 11.93618774 C22.38023993 14.522555 22.39718892 17.1088182 22.4140625 19.6953125 C22.43276459 21.486083 22.45233727 23.2768446 22.4727478 25.06759644 C22.52417644 29.78577437 22.56374456 34.50398092 22.60089111 39.22229004 C22.64086366 44.03498472 22.6919867 48.84755931 22.7421875 53.66015625 C22.83907377 63.10668661 22.92343774 72.5532846 23 82 C23.49863304 81.24296783 23.49863304 81.24296783 24.00733948 80.47064209 C25.54492158 78.13993172 27.08688563 75.81215095 28.62890625 73.484375 C29.15150024 72.6907959 29.67409424 71.8972168 30.21252441 71.07958984 C35.08903687 63.73002923 40.41064761 56.81671413 46 50 C47.02867187 48.33324219 47.02867187 48.33324219 48.078125 46.6328125 C52.59242001 42.56511886 56.96510742 43.34638264 62.8125 43.625 C64.42415039 43.66560547 64.42415039 43.66560547 66.06835938 43.70703125 C68.71429568 43.77758955 71.3561124 43.87611244 74 44 C73.40532419 47.10350412 72.48718386 48.97026682 70.48046875 51.3984375 C69.95831787 52.03604004 69.43616699 52.67364258 68.89819336 53.33056641 C68.33366455 54.00522949 67.76913574 54.67989258 67.1875 55.375 C66.60943604 56.0767334 66.03137207 56.7784668 65.43579102 57.50146484 C61.02299746 62.83666608 56.53087994 68.10591619 51.9597168 73.30615234 C48.99195196 76.71191976 46.43102095 80.19044717 44 84 C44.3309668 84.48130371 44.66193359 84.96260742 45.00292969 85.45849609 C65.73855779 115.63432929 65.73855779 115.63432929 74.59765625 129.8359375 C75.96602814 132.03843444 75.96602814 132.03843444 77.68359375 134.0390625 C79 136 79 136 79 140 C71.07167061 141.2601575 62.81320798 142.28404234 55 140 C49.36181549 135.8534986 46.56506829 129.14176988 43.55224609 123.00488281 C40.80593194 117.68848856 37.45738714 112.75462757 34.1875 107.75 C32.99050886 105.87168787 31.79622411 103.99164648 30.60546875 102.109375 C30.10168701 101.31499023 29.59790527 100.52060547 29.07885742 99.70214844 C28.72283447 99.14043945 28.36681152 98.57873047 28 98 C23.86181849 101.35176432 22.20708231 103.37922734 21.52099609 108.74902344 C21.36997647 113.29481224 21.52453359 117.83155239 21.6875 122.375 C21.74488233 124.74280146 21.79382004 127.11061071 21.83930969 129.47866821 C21.87048993 130.94679868 21.91027565 132.41477603 21.95939636 133.88241577 C22.00977564 135.58758681 22.01000011 137.29411421 22 139 C21.67 139.33 21.34 139.66 21 140 C14.07 140 7.14 140 0 140 C0 93.8 0 47.6 0 0 Z " fill="#2B3354" transform="translate(348,4)"/>
<path d="M0 0 C9.10632882 7.41212811 13.69344633 17.66330695 15.6875 29.1875 C15.92570156 32.50646428 15.92379585 35.79917781 15.875 39.125 C15.8740332 40.41760742 15.8740332 40.41760742 15.87304688 41.73632812 C15.82829241 48.04670759 15.82829241 48.04670759 14.6875 49.1875 C12.84631971 49.28131302 11.00152359 49.30493954 9.15795898 49.30102539 C7.97681015 49.30094986 6.79566132 49.30087433 5.57872009 49.30079651 C4.2933284 49.29563522 3.00793671 49.29047394 1.68359375 49.28515625 C-0.2786338 49.28303383 -0.2786338 49.28303383 -2.28050232 49.28086853 C-5.76412859 49.2770441 -9.24771339 49.26721446 -12.73132324 49.25616455 C-16.28376708 49.24594882 -19.83621759 49.24137056 -23.38867188 49.23632812 C-30.36329832 49.22559212 -37.33789717 49.2085166 -44.3125 49.1875 C-43.60137016 51.73546309 -42.86956904 54.27429749 -42.125 56.8125 C-41.83012695 57.88177734 -41.83012695 57.88177734 -41.52929688 58.97265625 C-39.80253526 64.76394906 -37.35460859 69.01880931 -32.3125 72.61328125 C-21.45110798 77.42878123 -10.70038203 76.33326512 0.6875 74.1875 C2.12361661 73.96983488 3.56088943 73.75940044 5 73.5625 C5.886875 73.43875 6.77375 73.315 7.6875 73.1875 C9.60376837 78.16979776 10.2422115 82.91434667 10.6875 88.1875 C-0.38553673 95.73153456 -17.79766968 95.41843959 -30.6640625 93.75390625 C-41.61210283 91.4766007 -50.94202531 85.3930027 -57.3125 76.1875 C-65.69160027 62.45127005 -67.53435324 46.63747836 -64.62109375 30.9140625 C-62.74266775 23.16457279 -59.95536688 16.66307749 -55.3125 10.1875 C-54.590625 9.135625 -53.86875 8.08375 -53.125 7 C-38.23794553 -7.88705447 -18.1712355 -9.9427515 0 0 Z M-38.3125 16.1875 C-39.96486716 19.00911188 -39.96486716 19.00911188 -41.125 22.125 C-41.54394531 23.14464844 -41.96289062 24.16429687 -42.39453125 25.21484375 C-43.55838017 28.46520564 -43.55838017 28.46520564 -43.3125 33.1875 C-30.4425 33.1875 -17.5725 33.1875 -4.3125 33.1875 C-5.21178455 22.28472371 -5.21178455 22.28472371 -10.81640625 13.6171875 C-19.79285011 6.32773193 -30.31820487 8.79437586 -38.3125 16.1875 Z " fill="#2B3354" transform="translate(503.3125,49.8125)"/>
<path d="M0 0 C8.89692621 7.23446156 13.28853434 18.34601955 14.75 29.4375 C14.88611306 32.54306411 14.88995475 35.64190455 14.875 38.75 C14.87886719 39.57306641 14.88273438 40.39613281 14.88671875 41.24414062 C14.87671604 47.31078396 14.87671604 47.31078396 13.75 48.4375 C11.90881971 48.53131302 10.06402359 48.55493954 8.22045898 48.55102539 C7.03931015 48.55094986 5.85816132 48.55087433 4.64122009 48.55079651 C3.3558284 48.54563522 2.07043671 48.54047394 0.74609375 48.53515625 C-1.2161338 48.53303383 -1.2161338 48.53303383 -3.21800232 48.53086853 C-6.70162859 48.5270441 -10.18521339 48.51721446 -13.66882324 48.50616455 C-17.22126708 48.49594882 -20.77371759 48.49137056 -24.32617188 48.48632812 C-31.30079832 48.47559212 -38.27539717 48.4585166 -45.25 48.4375 C-44.97255879 50.18114619 -44.68389718 51.92300906 -44.390625 53.6640625 C-44.23110352 54.63424316 -44.07158203 55.60442383 -43.90722656 56.60400391 C-42.54931411 62.45836196 -38.98552194 67.78692033 -34.14453125 71.40234375 C-22.81992127 77.59001725 -9.11869863 75.88325121 2.75 72.4375 C4.07 72.4375 5.39 72.4375 6.75 72.4375 C7.28469802 74.16242978 7.80219175 75.892698 8.3125 77.625 C8.60253906 78.58792969 8.89257812 79.55085938 9.19140625 80.54296875 C9.77461026 83.56502588 9.56178385 85.49679955 8.75 88.4375 C6.73135603 89.09014429 4.70996273 89.73428746 2.6875 90.375 C0.99947266 90.91447266 0.99947266 90.91447266 -0.72265625 91.46484375 C-15.14087876 95.44063268 -32.22688434 95.06336743 -45.5 87.8125 C-53.98877779 82.28048751 -59.49791061 74.76087363 -63.25 65.4375 C-63.5696875 64.65375 -63.889375 63.87 -64.21875 63.0625 C-69.25928358 48.12758569 -67.16952868 30.23242434 -60.7421875 16.12890625 C-54.50116551 4.50318854 -45.84976896 -2.07396844 -33.3984375 -6.171875 C-21.56058492 -8.32421183 -10.09500759 -6.64652217 0 0 Z M-39.25 15.4375 C-43.37057942 21.32736775 -44.31664805 24.97068441 -45.25 32.4375 C-32.05 32.4375 -18.85 32.4375 -5.25 32.4375 C-6.33095574 20.41308807 -6.33095574 20.41308807 -13.375 11.5 C-22.19520056 5.91639664 -32.10428892 8.29178892 -39.25 15.4375 Z " fill="#2B3354" transform="translate(656.25,50.5625)"/>
<path d="M0 0 C1.093125 0.61875 2.18625 1.2375 3.3125 1.875 C10.55377194 7.60065689 14.43871202 14.95548885 16 24 C16.10883278 25.71894711 16.17487378 27.44096613 16.20532227 29.16308594 C16.2352401 30.6718631 16.2352401 30.6718631 16.26576233 32.21112061 C16.28247482 33.29129456 16.29918732 34.37146851 16.31640625 35.484375 C16.33718735 36.61337219 16.35796844 37.74236938 16.37937927 38.90557861 C16.42260099 41.29948253 16.46364809 43.69342654 16.50268555 46.08740234 C16.56160317 49.69508496 16.62684595 53.30260652 16.69335938 56.91015625 C16.9143561 69.27442558 17.06889583 81.63374595 17 94 C14.04112541 94.08069658 11.0844341 94.14034665 8.125 94.1875 C7.28324219 94.21263672 6.44148438 94.23777344 5.57421875 94.26367188 C4.76855469 94.27333984 3.96289062 94.28300781 3.1328125 94.29296875 C2.38918457 94.3086792 1.64555664 94.32438965 0.87939453 94.34057617 C0.25919434 94.22818604 -0.36100586 94.1157959 -1 94 C-3.12508244 90.81237635 -3.5020163 88.73487777 -4 85 C-4.49628906 85.47050781 -4.99257812 85.94101563 -5.50390625 86.42578125 C-13.6384113 93.88112459 -21.12409843 96.36997975 -32.16015625 96.20703125 C-39.47597661 95.67369084 -44.87114511 93.11402825 -50.20703125 88.09765625 C-56.02919122 81.28610962 -58.37055844 73.65714083 -57.875 64.8125 C-56.99728931 55.21186205 -53.27348468 48.28684281 -46.22265625 41.75 C-34.65823607 32.64479747 -19.28949339 30.70230222 -5 31 C-5.97641725 22.08944441 -5.97641725 22.08944441 -11 15 C-15.14123652 12.89568271 -19.05717346 12.61631282 -23.625 12.625 C-24.68134644 12.62306641 -24.68134644 12.62306641 -25.7590332 12.62109375 C-31.21112188 12.73039636 -35.67310749 13.85961411 -40.66796875 16.125 C-43 17 -43 17 -48 17 C-48.99 12.71 -49.98 8.42 -51 4 C-47.40903581 1.30677686 -45.21657171 0.20556017 -41.0625 -1.125 C-40.04285156 -1.45757812 -39.02320313 -1.79015625 -37.97265625 -2.1328125 C-26.23356381 -5.55735721 -10.77199576 -6.41453546 0 0 Z M-16.9375 46.8125 C-18.12214844 46.96332031 -19.30679688 47.11414063 -20.52734375 47.26953125 C-25.85681947 48.39057957 -29.8518361 50.24646162 -33.3125 54.5 C-34.04919922 55.38171875 -34.04919922 55.38171875 -34.80078125 56.28125 C-37.67381235 60.39894929 -37.60110884 65.18289488 -37 70 C-34.94043384 73.97202045 -32.80764014 76.66865542 -29 79 C-23.55035537 79.84249381 -18.56659486 79.74057212 -13.5625 77.375 C-7.54100238 72.0441366 -7.54100238 72.0441366 -4.88647461 64.84521484 C-4.89171143 63.97590332 -4.89694824 63.1065918 -4.90234375 62.2109375 C-4.90556641 61.26992187 -4.90878906 60.32890625 -4.91210938 59.359375 C-4.92048828 58.37453125 -4.92886719 57.3896875 -4.9375 56.375 C-4.94201172 55.38242188 -4.94652344 54.38984375 -4.95117188 53.3671875 C-4.96297855 50.9113984 -4.979446 48.45572896 -5 46 C-9.05443632 45.96327895 -12.91403046 46.27516368 -16.9375 46.8125 Z " fill="#2B3354" transform="translate(239,48)"/>
<path d="M0 0 C7.97761196 7.55681484 11.62760423 16.31497805 12.15821838 27.2651062 C12.18153481 29.0304924 12.18153481 29.0304924 12.20532227 30.83154297 C12.21522186 31.48590836 12.22512146 32.14027374 12.23532104 32.81446838 C12.26666973 34.95700582 12.29158692 37.09956535 12.31640625 39.2421875 C12.33699885 40.73577418 12.3579959 42.22935534 12.37937927 43.72293091 C12.434362 47.63878888 12.4838754 51.55469737 12.53222656 55.47064209 C12.58261626 59.47266085 12.6382108 63.47460699 12.69335938 67.4765625 C12.80064951 75.31764838 12.90167671 83.15879655 13 91 C6.73 91 0.46 91 -6 91 C-6.66 88.03 -7.32 85.06 -8 82 C-8.721875 82.763125 -9.44375 83.52625 -10.1875 84.3125 C-16.87210573 90.70001214 -24.41443918 93.15239365 -33.5625 93.375 C-40.95498149 93.19385401 -46.9153769 91.37332285 -53 87 C-53 86.34 -53 85.68 -53 85 C-53.99 84.67 -54.98 84.34 -56 84 C-57.3515625 81.85546875 -57.3515625 81.85546875 -58.625 79.1875 C-59.05039062 78.31480469 -59.47578125 77.44210938 -59.9140625 76.54296875 C-63.2334961 68.76976273 -63.29146211 59.11405664 -60.2265625 51.22265625 C-54.95682292 41.67335109 -46.55771367 35.17425261 -36.3359375 31.78515625 C-27.29146427 29.20547261 -18.38383534 28.26965044 -9 28 C-10.24462697 19.53441011 -10.24462697 19.53441011 -15 12.8125 C-21.80628098 8.70037191 -30.27956202 9.03202737 -37.93359375 10.6015625 C-40.32693751 11.32284418 -42.66032919 12.12155217 -45 13 C-46.19625 13.391875 -47.3925 13.78375 -48.625 14.1875 C-49.40875 14.455625 -50.1925 14.72375 -51 15 C-51.70088156 13.25531628 -52.38524009 11.50398839 -53.0625 9.75 C-53.44535156 8.77546875 -53.82820312 7.8009375 -54.22265625 6.796875 C-55.37168472 2.66268211 -55.37168472 2.66268211 -54 0 C-39.52733866 -9.50835464 -13.85911474 -11.39527212 0 0 Z M-37.0625 50.5 C-41.42398451 56.12772195 -41.80205584 60.9947022 -41 68 C-39.14934573 72.14546557 -37.67635571 73.58888182 -33.8125 75.9375 C-27.82359259 77.60653977 -23.27305091 77.18023797 -17.75 74.3125 C-14.20662557 71.33284423 -11.09522235 68.19044471 -9 64 C-8.91599471 62.40552536 -8.89272533 60.80759455 -8.90234375 59.2109375 C-8.90556641 58.26992187 -8.90878906 57.32890625 -8.91210938 56.359375 C-8.92048828 55.37453125 -8.92886719 54.3896875 -8.9375 53.375 C-8.94201172 52.38242188 -8.94652344 51.38984375 -8.95117188 50.3671875 C-8.96297855 47.9113984 -8.979446 45.45572896 -9 43 C-19.04086341 43 -29.06484467 43.97130177 -37.0625 50.5 Z " fill="#2B3353" transform="translate(744,51)"/>
<path d="M0 0 C1 1 1 1 1.11352539 3.13305664 C1.10828857 4.04949951 1.10305176 4.96594238 1.09765625 5.91015625 C1.09515869 6.800979 1.09266113 7.69180176 1.09008789 8.60961914 C1.08098389 9.74906982 1.07187988 10.88852051 1.0625 12.0625 C1.041875 15.671875 1.02125 19.28125 1 23 C8.26 23 15.52 23 23 23 C23 28.28 23 33.56 23 39 C15.74 39 8.48 39 1 39 C1.06889686 46.72329991 1.15687614 54.44605952 1.26245117 62.16894531 C1.29568038 64.79551191 1.3237185 67.42214957 1.34643555 70.04882812 C1.38001728 73.82713061 1.43233753 77.60478305 1.48828125 81.3828125 C1.49467117 82.55490265 1.5010611 83.7269928 1.50764465 84.93460083 C1.63138618 92.88700658 1.63138618 92.88700658 5 100 C8.2108613 102.44471219 11.2557838 102.18222339 15.1875 102.0625 C17.12436309 102.00863319 19.06249664 101.97948181 21 102 C22.98784899 103.98784899 22.22997787 107.72700407 22.25 110.4375 C22.270625 111.13166016 22.29125 111.82582031 22.3125 112.54101562 C22.328125 114.55859375 22.328125 114.55859375 22 118 C15.40812026 122.39458649 5.81080499 121.85570341 -1.7890625 120.50390625 C-7.98425295 118.84748826 -12.67984263 116.67793435 -16.21484375 111.07421875 C-19.21107364 105.41230391 -20.11096345 100.32748011 -20.20532227 93.92456055 C-20.22526749 92.72369308 -20.24521271 91.52282562 -20.26576233 90.28556824 C-20.28247482 88.99894791 -20.29918732 87.71232758 -20.31640625 86.38671875 C-20.33699635 85.04864388 -20.35799335 83.71057521 -20.37937927 82.37251282 C-20.43438775 78.86271206 -20.48388994 75.35285468 -20.53222656 71.84295654 C-20.58259728 68.25658165 -20.6382018 64.67028827 -20.69335938 61.08398438 C-20.80068105 54.05605903 -20.90169885 47.02805815 -21 40 C-25.29 39.67 -29.58 39.34 -34 39 C-34 33.72 -34 28.44 -34 23 C-29.38 23 -24.76 23 -20 23 C-20 17.06 -20 11.12 -20 5 C-17.628125 4.175 -15.25625 3.35 -12.8125 2.5 C-12.07491455 2.23896484 -11.3373291 1.97792969 -10.57739258 1.70898438 C-6.95236044 0.47534751 -3.83431215 -0.4043719 0 0 Z " fill="#2B3453" transform="translate(861,23)"/>
<path d="M0 0 C1.56393356 3.97376829 0.36145292 6.81377903 -0.9375 10.75 C-1.31777344 11.92046875 -1.69804687 13.0909375 -2.08984375 14.296875 C-2.39019531 15.18890625 -2.69054687 16.0809375 -3 17 C-3.55945313 16.855625 -4.11890625 16.71125 -4.6953125 16.5625 C-14.13206637 14.37778528 -25.08591441 12.85296414 -33.96875 17.54296875 C-41.73393365 23.11299472 -45.50599886 29.75235888 -47.6875 38.875 C-48.9017705 51.017705 -47.57653988 61.08288144 -40 71 C-33.45891612 77.29119977 -26.22498777 78.324655 -17.4140625 78.203125 C-12.51005789 77.91135356 -7.7877409 77.07460317 -3 76 C-1.35199144 79.66447432 -0.66419027 82.81203466 -0.375 86.8125 C-0.30023438 87.78832031 -0.22546875 88.76414062 -0.1484375 89.76953125 C-0.09945312 90.50558594 -0.05046875 91.24164063 0 92 C-13.07652958 98.39297001 -28.57582427 98.85323893 -42.3046875 94.22265625 C-53.70315663 89.62777164 -61.25814762 81.76789608 -66.54296875 70.796875 C-71.91207829 57.14098855 -72.39173918 40.58388103 -67.265625 26.7578125 C-65.19019153 22.23541735 -62.86243263 18.07069565 -60 14 C-59.32324219 13.02933594 -59.32324219 13.02933594 -58.6328125 12.0390625 C-45.68798888 -4.70876015 -18.70359509 -7.20688985 0 0 Z " fill="#2B3353" transform="translate(337,47)"/>
<path d="M0 0 C0 6.27 0 12.54 0 19 C-3.17603565 19.79400891 -5.66386087 20.1374379 -8.875 20.3125 C-14.77733055 20.87669336 -18.06620478 23.01095349 -22.1875 27.25 C-27.33797817 35.06451861 -27.45233026 42.31353154 -27.4765625 51.43359375 C-27.49214203 52.7072731 -27.50772156 53.98095245 -27.52377319 55.29322815 C-27.56309795 58.6547726 -27.59053639 62.01594611 -27.61126709 65.37762451 C-27.64300031 70.13746715 -27.69428506 74.89711118 -27.74765015 79.65675354 C-27.77494657 82.18740581 -27.79626723 84.71813061 -27.81118774 87.24888611 C-27.82658096 88.95184593 -27.82658096 88.95184593 -27.84228516 90.68920898 C-27.84878082 91.6932225 -27.85527649 92.69723602 -27.86196899 93.73167419 C-28 96 -28 96 -29 97 C-30.4887186 97.08669432 -31.981445 97.10703494 -33.47265625 97.09765625 C-34.37177734 97.09443359 -35.27089844 97.09121094 -36.19726562 97.08789062 C-37.61555664 97.07532227 -37.61555664 97.07532227 -39.0625 97.0625 C-40.01189453 97.05798828 -40.96128906 97.05347656 -41.93945312 97.04882812 C-44.29303065 97.0370011 -46.64648477 97.02052025 -49 97 C-50.68072775 93.6385445 -50.12876829 89.84012532 -50.11352539 86.14404297 C-50.11367142 85.22691528 -50.11381744 84.3097876 -50.1139679 83.36486816 C-50.11326948 80.32395081 -50.1054804 77.2830942 -50.09765625 74.2421875 C-50.09579182 72.13754307 -50.09436803 70.0328982 -50.09336853 67.92825317 C-50.08954535 62.38143725 -50.07971674 56.8346474 -50.06866455 51.2878418 C-50.05844616 45.6307002 -50.05386999 39.97355441 -50.04882812 34.31640625 C-50.03809431 23.21092419 -50.0204991 12.10546834 -50 1 C-43.73 1 -37.46 1 -31 1 C-30.67 3.64 -30.34 6.28 -30 9 C-29.67 9.33 -29.34 9.66 -29 10 C-28.34 9.0925 -27.68 8.185 -27 7.25 C-21.28308966 0.37996285 -8.46023364 -4.23011682 0 0 Z M-31 12 C-30 14 -30 14 -30 14 Z " fill="#2C3354" transform="translate(818,47)"/>
<path d="M0 0 C0.77601563 -0.00257812 1.55203125 -0.00515625 2.3515625 -0.0078125 C4.375 0.125 4.375 0.125 6.375 1.125 C6.375 7.395 6.375 13.665 6.375 20.125 C3.21721307 20.91444673 0.75288276 21.26165213 -2.4375 21.4375 C-7.58409741 21.95291771 -10.51878049 22.92214878 -14.625 26.125 C-20.85150591 34.75232167 -20.92802121 45.5756891 -21.00390625 55.78125 C-21.02090073 56.96473022 -21.0378952 58.14821045 -21.05540466 59.36755371 C-21.10823111 63.1199827 -21.1487315 66.87240153 -21.1875 70.625 C-21.23140503 74.40611068 -21.27799475 78.18713569 -21.33030701 81.96813965 C-21.36231933 84.31516029 -21.38919202 86.66225753 -21.41053772 89.00939941 C-21.42402756 90.06139526 -21.4375174 91.11339111 -21.45141602 92.19726562 C-21.46092789 93.12720337 -21.47043976 94.05714111 -21.48023987 95.01525879 C-21.625 97.125 -21.625 97.125 -22.625 98.125 C-24.1137186 98.21169432 -25.606445 98.23203494 -27.09765625 98.22265625 C-27.99677734 98.21943359 -28.89589844 98.21621094 -29.82226562 98.21289062 C-31.24055664 98.20032227 -31.24055664 98.20032227 -32.6875 98.1875 C-33.63689453 98.18298828 -34.58628906 98.17847656 -35.56445312 98.17382812 C-37.91803065 98.1620011 -40.27148477 98.14552025 -42.625 98.125 C-44.30572775 94.7635445 -43.75376829 90.96512532 -43.73852539 87.26904297 C-43.73867142 86.35191528 -43.73881744 85.4347876 -43.7389679 84.48986816 C-43.73826948 81.44895081 -43.7304804 78.4080942 -43.72265625 75.3671875 C-43.72079182 73.26254307 -43.71936803 71.1578982 -43.71836853 69.05325317 C-43.71454535 63.50643725 -43.70471674 57.9596474 -43.69366455 52.4128418 C-43.68344616 46.7557002 -43.67886999 41.09855441 -43.67382812 35.44140625 C-43.66309431 24.33592419 -43.6454991 13.23046834 -43.625 2.125 C-37.355 2.125 -31.085 2.125 -24.625 2.125 C-23.965 5.425 -23.305 8.725 -22.625 12.125 C-21.8 11.0525 -20.975 9.98 -20.125 8.875 C-14.89405695 2.75157377 -7.98299474 -0.02669898 0 0 Z " fill="#2B3354" transform="translate(573.625,45.875)"/>
</svg>
