<?xml version="1.0" encoding="UTF-8"?>
<svg version="1.1" xmlns="http://www.w3.org/2000/svg" width="764" height="268">
<path d="M0 0 C0.66 0 1.32 0 2 0 C6.30744162 10.16415379 10.57180138 20.34445103 14.75 30.5625 C15.11407959 31.45275879 15.47815918 32.34301758 15.85327148 33.26025391 C18.58830437 39.9625529 21.28513541 46.67976769 23.95581055 53.40795898 C25.71352569 57.82519636 27.50563946 62.22493201 29.34375 66.609375 C31.80544926 72.50970268 34.19694984 78.43558295 36.5625 84.375 C37.42834425 86.54428726 38.29423172 88.71355728 39.16015625 90.8828125 C39.61535645 92.02395508 40.07055664 93.16509766 40.53955078 94.34082031 C42.9221413 100.31044028 45.31024039 106.27785551 47.69796753 112.24542236 C48.97594715 115.43956906 50.25358372 118.63385295 51.53125 121.828125 C51.95986328 122.8996582 52.38847656 123.97119141 52.83007812 125.07519531 C53.88671875 127.71679688 54.94335937 130.35839844 56 133 C58.66755427 130.33244573 59.65875184 127.23238225 61.01171875 123.78125 C61.3006752 123.05593582 61.58963165 122.33062164 61.88734436 121.58332825 C62.82570584 119.22416003 63.75664075 116.86213722 64.6875 114.5 C65.33128921 112.87768296 65.97549539 111.25553132 66.62011719 109.63354492 C69.95871895 101.22203385 73.26462037 92.79834154 76.50292969 84.34765625 C79.4341244 76.76015604 82.62021804 69.27555581 85.80175781 61.7902832 C86.21651367 60.80761475 86.63126953 59.82494629 87.05859375 58.8125 C87.43298584 57.93207031 87.80737793 57.05164063 88.19311523 56.14453125 C89.1173836 54.06990303 89.1173836 54.06990303 89 52 C89.66 52 90.32 52 91 52 C91.23460937 50.73800781 91.46921875 49.47601563 91.7109375 48.17578125 C92.97374655 42.51083311 95.23064669 37.45390666 97.625 32.1875 C102.35777489 21.55998554 106.75350114 10.82975828 111 0 C111.66 0 112.32 0 113 0 C116.2672792 15.16574644 119.50184728 30.33808973 122.6953125 45.51953125 C122.94987654 46.72932553 122.94987654 46.72932553 123.20958328 47.9635601 C126.75751125 64.82668516 130.29545851 81.69189762 133.81094742 98.56181717 C134.68956101 102.77786864 135.56957642 106.99361767 136.45263672 111.20874023 C137.33372437 115.41461588 138.21144015 119.62118246 139.08684158 123.82824516 C139.4133588 125.3947105 139.74100851 126.96094031 140.06992722 128.52690315 C141.98498338 137.64891797 143.69933009 146.76584381 145 156 C141.30581799 157.231394 138.7943739 156.64432764 135 156 C133.38695189 151.46522929 132.26000685 146.92313828 131.3046875 142.21484375 C131.13838837 141.41062485 130.97208923 140.60640594 130.80075073 139.77781677 C130.19692764 136.85260301 129.59868333 133.92626989 129 131 C128.48761912 128.51051469 127.97490172 126.02109863 127.46191406 123.53173828 C126.29440215 117.86332943 125.12884896 112.1945206 123.96484375 106.52539062 C123.81363697 105.78898157 123.66243019 105.05257252 123.50664139 104.29384804 C122.74208267 100.56977291 121.97794104 96.84561268 121.21435547 93.12133789 C118.05344232 77.70706201 114.87833632 62.29577006 111.6171875 46.90234375 C111.36687775 45.70847549 111.11656799 44.51460724 110.8586731 43.28456116 C110.6280014 42.20315353 110.39732971 41.12174591 110.15966797 40.00756836 C109.95888641 39.05973984 109.75810486 38.11191132 109.55123901 37.13536072 C109.20098996 35.03168408 109.20098996 35.03168408 108 34 C107.89945313 34.66 107.79890625 35.32 107.6953125 36 C106.80671445 39.83395115 105.36314977 43.36943099 103.875 47 C103.53154541 47.84828369 103.18809082 48.69656738 102.83422852 49.57055664 C102.02926329 51.557094 101.22220535 53.54278407 100.41357422 55.52783203 C98.82415591 59.43192653 97.24171477 63.33881053 95.66015625 67.24609375 C93.1133869 73.53625739 90.56369053 79.82522653 88.01171875 86.11328125 C85.04377165 93.42635643 82.07791942 100.74027634 79.11503601 108.05540466 C77.53627462 111.95283639 75.95595193 115.84961827 74.37182617 119.74487305 C71.72841032 126.2475427 69.08981477 132.75124524 66.51226807 139.28036499 C65.74166257 141.23106204 64.96677938 143.18000087 64.19042969 145.12841797 C63.2548819 147.48060711 62.32793954 149.83624386 61.41113281 152.19580078 C61.00217773 153.21915527 60.59322266 154.24250977 60.171875 155.296875 C59.8222168 156.18729492 59.47255859 157.07771484 59.11230469 157.99511719 C58 160 58 160 55 161 C53.52434721 157.25065706 52.04936854 153.50104964 50.57495117 149.7512207 C49.83350712 147.86591579 49.09156549 145.98080658 48.34960938 144.09570312 C46.02437879 138.18119043 43.71398326 132.26224516 41.44921875 126.32421875 C39.49102688 121.21894667 37.42770372 116.16726609 35.30859375 111.12695312 C33.10022954 105.84995149 30.95816337 100.54589407 28.80880737 95.24465942 C27.97677134 93.1927141 27.1438757 91.14111939 26.31079102 89.08959961 C23.63572327 82.50115593 20.96357473 75.91153823 18.29574585 69.32015991 C17.12512267 66.42849072 15.9533749 63.5372779 14.78149414 60.64611816 C14.22558386 59.27370964 13.67023116 57.90107511 13.11547852 56.52819824 C10.19358854 49.29738884 7.2229967 42.10295914 4 35 C3.77973145 36.08152344 3.55946289 37.16304687 3.33251953 38.27734375 C2.2646441 43.51849418 1.19515073 48.7593137 0.125 54 C-0.07396881 54.97439026 -0.27293762 55.94878052 -0.47793579 56.95269775 C-3.67525079 72.60173328 -6.91930189 88.24062997 -10.1875 103.875 C-13.88527367 121.56536464 -17.50483759 139.26844434 -21 157 C-24.63 156.67 -28.26 156.34 -32 156 C-28.48879529 137.43143377 -24.76096249 118.91221305 -20.92181396 100.40924072 C-20.21859817 97.01791109 -19.51764173 93.62611454 -18.81640625 90.234375 C-15.72477295 75.2859915 -12.61643284 60.34109448 -9.49987793 45.39788818 C-8.83982761 42.23166147 -8.18145511 39.06508722 -7.5234375 35.8984375 C-5.56874892 26.49534813 -3.60901903 17.09401238 -1.578125 7.70703125 C-1.0303217 5.1419793 -0.50805212 2.57318992 0 0 Z " fill="#727375" transform="translate(102,95)"/>
<path d="M0 0 C1.01835938 0.25394531 2.03671875 0.50789063 3.0859375 0.76953125 C6.92232825 1.71209277 10.76932073 2.60087503 14.62402344 3.46533203 C16.09782134 3.79698199 17.57016893 4.13524112 19.04003906 4.48388672 C29.90515873 7.00702722 40.70794525 7.26541443 51.8125 7.25 C52.51592529 7.24931519 53.21935059 7.24863037 53.9440918 7.2479248 C62.99803853 7.21888205 71.98222126 6.83238056 81 6 C81.72536604 15.49692206 80.95718959 23.76917535 78.375 32.9375 C78.02187744 34.23143677 78.02187744 34.23143677 77.66162109 35.55151367 C75.82446995 41.66183371 73.33894002 47.23873826 69 52 C66.02734375 53.28125 66.02734375 53.28125 62.9375 53.5 C61.20886719 53.65082031 61.20886719 53.65082031 59.4453125 53.8046875 C57.73988281 53.90136719 57.73988281 53.90136719 56 54 C55.06929687 54.10570312 54.13859375 54.21140625 53.1796875 54.3203125 C36.4077506 56.10261642 17.53081705 56.76122523 1 53 C-1 51 -1 51 -1.24723816 48.91271973 C-1.24581314 48.05271362 -1.24438812 47.19270752 -1.24291992 46.30664062 C-1.24599655 45.33223022 -1.24907318 44.35781982 -1.25224304 43.35388184 C-1.24505753 42.29866333 -1.23787201 41.24344482 -1.23046875 40.15625 C-1.22978142 38.53620056 -1.22978142 38.53620056 -1.2290802 36.88342285 C-1.22605533 34.59691267 -1.21816209 32.3104046 -1.20581055 30.02392578 C-1.18757573 26.51457456 -1.18530067 23.00548735 -1.18554688 19.49609375 C-1.180631 17.27864354 -1.17480238 15.06119513 -1.16796875 12.84375 C-1.16685593 11.78853149 -1.1657431 10.73331299 -1.16459656 9.64611816 C-1.15821671 8.67170776 -1.15183685 7.69729736 -1.14526367 6.69335938 C-1.14145187 5.83335327 -1.13764008 4.97334717 -1.13371277 4.08728027 C-1 2 -1 2 0 0 Z " fill="#04ADED" transform="translate(641,90)"/>
<path d="M0 0 C0.66 0 1.32 0 2 0 C2 0.66 2 1.32 2 2 C2.78375 2.20625 3.5675 2.4125 4.375 2.625 C12.01080342 5.52133923 18.27162903 9.96500068 24.24609375 15.46875 C26.08388458 17.16897952 26.08388458 17.16897952 28.875 18.6875 C31.33492012 20.20686243 31.80547395 21.44030133 33 24 C33.99 24.33 34.98 24.66 36 25 C37.17578125 26.78515625 37.17578125 26.78515625 38.3125 29.0625 C40.04849556 32.38674681 41.8989198 35.26697351 44.25 38.1875 C46.75674505 41.39484815 47.79211218 43.8422435 48 48 C48.66 48 49.32 48 50 48 C50.50990093 50.01835785 51.00744664 52.03983875 51.5 54.0625 C51.7784375 55.18785156 52.056875 56.31320313 52.34375 57.47265625 C53.01203494 61.06468778 53.11142858 64.3553568 53 68 C28.99848719 71.23875836 6.57302786 70.86907123 -17 65 C-17.73299316 64.83338867 -18.46598633 64.66677734 -19.22119141 64.49511719 C-21.14453125 64.0234375 -21.14453125 64.0234375 -24 63 C-27.97461546 51.07615361 -16.34321533 29.13817923 -11 18.4375 C-7.75065412 12.11323268 -4.39265785 5.60360677 0 0 Z " fill="#10B14D" transform="translate(667,19)"/>
<path d="M0 0 C3.6055831 1.63890141 6.65957951 3.82368908 9.875 6.125 C23.50607096 15.65460146 37.62559317 22.75349614 53.6328125 27.37109375 C54.36773926 27.58483643 55.10266602 27.7985791 55.85986328 28.01879883 C57.25102466 28.41285013 58.64786597 28.78754508 60.05029297 29.1394043 C62.98122143 29.95422516 64.66165986 30.46287248 66.31640625 33.08984375 C66.65478516 34.53037109 66.65478516 34.53037109 67 36 C67.1532373 36.64646484 67.30647461 37.29292969 67.46435547 37.95898438 C67.99364469 40.2785621 68.46987813 42.60473622 68.9375 44.9375 C69.28491684 46.63025749 69.63257545 48.32296537 69.98046875 50.015625 C70.1511084 50.85287109 70.32174805 51.69011719 70.49755859 52.55273438 C71.22635594 56.10252282 71.98724591 59.64485066 72.75 63.1875 C72.99234375 64.31542969 73.2346875 65.44335938 73.484375 66.60546875 C73.65453125 67.39566406 73.8246875 68.18585938 74 69 C47.43380068 72.29138753 20.62229751 66.86610339 -0.9375 50.375 C-2.29200677 49.25040951 -3.64620343 48.12544534 -5 47 C-5.62132812 46.56945312 -6.24265625 46.13890625 -6.8828125 45.6953125 C-8.5625 44.5 -8.5625 44.5 -11 42 C-11.46466156 36.43814196 -10.47590232 31.28159214 -9.3125 25.875 C-9.04783936 24.63073242 -9.04783936 24.63073242 -8.77783203 23.36132812 C-6.96027751 15.20834288 -4.67291151 7.00936727 0 0 Z " fill="#0473BB" transform="translate(567,118)"/>
<path d="M0 0 C9.52987289 8.00027838 14.8081505 21.77683462 16.64746094 33.70556641 C17.29132147 46.54490298 11.87973823 59.59746585 4.20996094 69.64306641 C-5.31818269 79.3980706 -18.34385638 86.07667532 -32.10253906 86.76806641 C-43.97428637 86.31509036 -55.95601857 82.60397989 -65.41503906 75.33056641 C-65.41503906 74.67056641 -65.41503906 74.01056641 -65.41503906 73.33056641 C-65.9809375 73.12560547 -66.54683594 72.92064453 -67.12988281 72.70947266 C-70.24504294 70.82972646 -71.97906407 68.2271529 -73.97753906 65.26806641 C-74.37521484 64.68605469 -74.77289063 64.10404297 -75.18261719 63.50439453 C-78.19070841 58.96472941 -80.25438663 54.63640609 -81.41503906 49.33056641 C-81.59421875 48.56744141 -81.77339844 47.80431641 -81.95800781 47.01806641 C-84.26779104 33.43575136 -81.68844768 20.22952317 -74.15722656 8.67041016 C-65.57653253 -2.8538852 -54.20627823 -9.81700046 -40.00878906 -12.28271484 C-24.41564022 -13.96067325 -12.38137892 -9.0961678 0 0 Z M-60.66503906 7.95556641 C-67.75235448 15.60240672 -71.40932604 24.01040356 -72.41503906 34.33056641 C-72.50914062 35.05630859 -72.60324219 35.78205078 -72.70019531 36.52978516 C-73.30442465 44.91153056 -70.12074508 53.59737709 -65.25488281 60.31103516 C-55.87310922 70.91447543 -46.74926609 75.65291217 -32.60253906 76.58056641 C-22.89202623 76.39346597 -13.39578864 72.01608991 -6.37207031 65.40869141 C-0.66849087 59.1335379 3.07887514 52.78308872 4.58496094 44.33056641 C4.73191406 43.58033203 4.87886719 42.83009766 5.03027344 42.05712891 C6.6714766 31.26709107 3.62262993 21.56050677 -2.53613281 12.70166016 C-9.57031969 3.82483805 -18.88887404 -0.6470546 -29.96972656 -2.40771484 C-41.32006921 -3.62252788 -52.33248662 0.22498544 -60.66503906 7.95556641 Z " fill="#737475" transform="translate(431.4150390625,167.66943359375)"/>
<path d="M0 0 C0.804375 0.53625 1.60875 1.0725 2.4375 1.625 C2.99566406 1.99367188 3.55382812 2.36234375 4.12890625 2.7421875 C5.3789205 3.58248936 6.61613122 4.44214937 7.83984375 5.3203125 C15.10323435 10.42280954 23.03369743 14.14117829 31 18 C31.66 18.33 32.32 18.66 33 19 C33.09065891 24.77195049 33.12602746 30.44977116 32.4375 36.1875 C31.86373914 41.70994825 32.20330589 47.04349583 32.59130859 52.56298828 C33.04109792 59.047815 33.10173972 65.49996251 33 72 C10.59397283 69.24233512 -10.54269794 58.12416865 -27 43 C-26.42840867 37.86588505 -23.99132685 33.85901485 -21.5 29.4375 C-21.05293701 28.63973145 -20.60587402 27.84196289 -20.14526367 27.02001953 C-14.50620756 17.14694476 -7.67155713 8.38691133 0 0 Z " fill="#0674BB" transform="translate(598,67)"/>
<path d="M0 0 C0 0.66 0 1.32 0 2 C0.66 2 1.32 2 2 2 C2 4.97 2 7.94 2 11 C0.93072266 10.93039063 0.93072266 10.93039063 -0.16015625 10.859375 C-6.74359703 10.61127764 -10.76651287 10.85682269 -16 15 C-20.91099515 22.20279289 -20.17404696 31.65699661 -20.31640625 40.0625 C-20.33718735 41.09439453 -20.35796844 42.12628906 -20.37937927 43.18945312 C-20.44434105 46.45957296 -20.50350965 49.72976755 -20.5625 53 C-20.60573607 55.22787206 -20.64935192 57.45573679 -20.69335938 59.68359375 C-20.80067603 65.12232062 -20.90014539 70.56111062 -21 76 C-13.41 76 -5.82 76 2 76 C2.495 79.96 2.495 79.96 3 84 C2.67 84.33 2.34 84.66 2 85 C-5.59 85 -13.18 85 -21 85 C-21 112.72 -21 140.44 -21 169 C-30 170 -30 170 -31 170 C-31 141.95 -31 113.9 -31 85 C-34.63 85 -38.26 85 -42 85 C-41.67 82.03 -41.34 79.06 -41 76 C-37.68756695 75.17189174 -35.34023421 74.90721572 -32 75 C-31.99191315 74.36852554 -31.98382629 73.73705109 -31.97549438 73.08644104 C-31.88909148 66.48329347 -31.78957426 59.88043382 -31.68261719 53.27758789 C-31.6444564 50.8170253 -31.60958157 48.35640938 -31.578125 45.89575195 C-31.5321937 42.34827683 -31.47424573 38.80116481 -31.4140625 35.25390625 C-31.40251129 34.1629213 -31.39096008 33.07193634 -31.37905884 31.94789124 C-31.17360855 21.19028276 -30.14750692 13.2700666 -22.375 5.3125 C-15.86322797 0.22774098 -7.96141094 -0.38522956 0 0 Z " fill="#6B6C6E" transform="translate(341,82)"/>
<path d="M0 0 C1.81928203 1.99254699 2.79529016 3.53582078 4 6 C3 9 3 9 0.0625 10.6875 C-3 12 -3 12 -5 12 C-5.86625 10.6078125 -5.86625 10.6078125 -6.75 9.1875 C-9.71331545 4.98946978 -12.62750214 3.811644 -17.375 2.1875 C-22.72297586 1.80550172 -26.73921123 2.95847885 -30.875 6.375 C-33.8926877 10.10273187 -35.02631523 11.55266211 -34.9375 16.4375 C-33.83475359 20.62793637 -32.17359352 22.15190325 -29 25 C-29 25.66 -29 26.32 -29 27 C-27.824375 27.37125 -26.64875 27.7425 -25.4375 28.125 C-21.01465936 29.6063006 -16.65543776 31.23797332 -12.3125 32.9375 C-11.3687854 33.29835693 -11.3687854 33.29835693 -10.40600586 33.66650391 C-4.7481574 35.91058277 0.26390737 38.70995753 4.25 43.375 C4.72953125 43.91898438 5.2090625 44.46296875 5.703125 45.0234375 C10.20223181 51.88050993 9.78300706 60.13730412 9 68 C6.71060623 75.72670397 1.77067068 82.32516242 -5.28515625 86.28125 C-15.36157016 90.75255887 -24.73239509 90.88633644 -35 87 C-41.31162921 84.20144743 -46.21973895 79.76987213 -50 74 C-50 73.34 -50 72.68 -50 72 C-50.66 71.67 -51.32 71.34 -52 71 C-52.40729228 68.67843403 -52.74438677 66.3431213 -53 64 C-46.375 61 -46.375 61 -43 61 C-42.87625 61.804375 -42.7525 62.60875 -42.625 63.4375 C-42.41875 64.283125 -42.2125 65.12875 -42 66 C-41.34 66.33 -40.68 66.66 -40 67 C-37 71.5 -37 71.5 -37 74 C-30.80879295 77.35357048 -24.16358003 80.38061724 -17 79 C-10.54314481 76.7176675 -6.09380624 74.18761247 -3 68 C-1.2645088 62.7935264 -1.33655617 57.85065911 -3.1875 52.6875 C-7.54616228 46.22465593 -13.93988899 44.19598951 -20.9375 41.5 C-31.26413109 37.50567273 -40.42530846 33.63684102 -45.375 23.0625 C-47.15479347 14.341512 -45.70179573 7.09129068 -40.8125 -0.3125 C-28.79707528 -11.79390585 -12.26890431 -10.71587845 0 0 Z " fill="#727375" transform="translate(511,164)"/>
<path d="M0 0 C3.57157699 1.64556015 5.03438352 3.11478938 7.1875 6.4375 C12.69777065 14.60830906 18.84569036 22.21257803 26 29 C24.70025969 32.68688712 23.17191148 35.23759619 20.625 38.1875 C16.71050275 42.96232632 13.19536837 47.93979511 9.75 53.0625 C9.24291504 53.80588623 8.73583008 54.54927246 8.21337891 55.31518555 C4.87148732 60.33133281 2.27001036 65.41804782 0 71 C-9.17486053 69.0094976 -15.04895567 58.30326462 -20 51 C-20.57476074 50.17580566 -20.57476074 50.17580566 -21.16113281 49.33496094 C-22.33985552 47.63408051 -23.48573746 45.9150011 -24.625 44.1875 C-25.31851563 43.14980469 -26.01203125 42.11210938 -26.7265625 41.04296875 C-28 38 -28 38 -27.4609375 35.11328125 C-26.97882812 34.08589844 -26.49671875 33.05851562 -26 32 C-25.60433838 31.09181519 -25.60433838 31.09181519 -25.20068359 30.1652832 C-22.60939482 24.51722564 -19.06548589 19.75125675 -15.25 14.875 C-14.66734375 14.10285156 -14.0846875 13.33070312 -13.484375 12.53515625 C-9.52668147 7.44049375 -5.36113057 3.5875103 0 0 Z " fill="#0975BB" transform="translate(565,31)"/>
<path d="M0 0 C0 0.99 0 1.98 0 3 C-2.1171875 4.60546875 -2.1171875 4.60546875 -4.875 6.1875 C-5.77992188 6.71730469 -6.68484375 7.24710938 -7.6171875 7.79296875 C-10 9 -10 9 -12 9 C-12 9.66 -12 10.32 -12 11 C-12.81682251 11.42285278 -12.81682251 11.42285278 -13.65014648 11.85424805 C-19.56554211 15.0146492 -24.80489504 18.66175924 -30.0625 22.8125 C-31.18881836 23.6797168 -31.18881836 23.6797168 -32.33789062 24.56445312 C-37.04269804 28.24453153 -41.27131153 32.15491375 -45.36889648 36.50268555 C-47 38 -47 38 -49 38 C-49.66 39.32 -50.32 40.64 -51 42 C-55.875 39.375 -55.875 39.375 -57 36 C-58.485 35.505 -58.485 35.505 -60 35 C-65.21720939 30.04807244 -69.15669589 24.03267858 -73 18 C-73.66 17.01 -74.32 16.02 -75 15 C-75 13.68 -75 12.36 -75 11 C-51.86985582 -2.54937389 -25.98236934 -5.36309427 0 0 Z " fill="#B4D672" transform="translate(650,13)"/>
<path d="M0 0 C0.58491211 0.1429248 1.16982422 0.28584961 1.77246094 0.43310547 C13.14820609 2.7783032 24.69379303 2.21661989 36.25 2.125 C38.45963137 2.1149518 40.66926715 2.1058292 42.87890625 2.09765625 C48.25270162 2.07578478 53.62632986 2.04245259 59 2 C57.40733964 6.38718942 55.54265126 8.90018015 52 12 C51.34 12 50.68 12 50 12 C49.67 12.99 49.34 13.98 49 15 C37.01026743 25.15482591 22.13997788 32.1269824 7 36 C4.68863805 30.96123094 3.09856447 26.08816574 1.875 20.6875 C1.70395752 19.94491943 1.53291504 19.20233887 1.35668945 18.43725586 C-1.91084408 3.82168817 -1.91084408 3.82168817 0 0 Z " fill="#B4D571" transform="translate(643,150)"/>
<path d="M0 0 C4.68532182 3.61989248 7.49775447 6.54055521 10 12 C13.36979538 16.32025049 17.04243161 20.17078139 21.04052734 23.90673828 C23.19926906 26.19830875 24.69356402 28.12499866 26 31 C25.7841241 35.61793262 24.2673298 39.58311095 22.625 43.875 C21.84496617 46.10107662 21.06630636 48.32763522 20.2890625 50.5546875 C19.90008789 51.62557617 19.51111328 52.69646484 19.11035156 53.79980469 C17.49046415 58.46855671 16.2152754 63.21222364 15 68 C12 67 12 67 10.09765625 63.7890625 C9.40674256 62.40723513 8.72908527 61.01872619 8.0625 59.625 C7.70841064 58.89619629 7.35432129 58.16739258 6.98950195 57.41650391 C0.95880977 44.82165127 -4.01558892 31.16988347 -3 17 C-2.94585938 15.99710938 -2.89171875 14.99421875 -2.8359375 13.9609375 C-2.50200883 8.87780104 -2.10483834 4.68882687 0 0 Z " fill="#16B151" transform="translate(533,80)"/>
<path d="M0 0 C-1.45789778 3.86165119 -3.2529067 7.41908973 -5.1875 11.0625 C-11.40818948 23.19878153 -15.858777 36.36817115 -18.39453125 49.76171875 C-18.59433594 50.50035156 -18.79414062 51.23898438 -19 52 C-19.99 52.495 -19.99 52.495 -21 53 C-23.56005468 51.93910367 -25.97465068 50.8187791 -28.4375 49.5625 C-29.50871094 49.02302734 -29.50871094 49.02302734 -30.6015625 48.47265625 C-36.8788776 45.22693498 -42.46729435 41.40740958 -48 37 C-43.41427187 25.50901846 -12.34217794 0 0 0 Z " fill="#0875BA" transform="translate(653,25)"/>
<path d="M0 0 C0 30.69 0 61.38 0 93 C-4.95 93.495 -4.95 93.495 -10 94 C-11.30657349 90.08027954 -11.08461724 86.38707095 -11.02172852 82.3059082 C-11.01212097 81.4178952 -11.00251343 80.5298822 -10.99261475 79.61495972 C-10.95960728 76.67682001 -10.9192815 73.73882819 -10.87890625 70.80078125 C-10.85460685 68.76483178 -10.8307632 66.72887682 -10.80735779 64.69291687 C-10.744499 59.33183548 -10.67543736 53.97085111 -10.60510254 48.60986328 C-10.53443535 43.14034446 -10.46960871 37.6707568 -10.40429688 32.20117188 C-10.27526138 21.46737226 -10.13967571 10.73366606 -10 0 C-8 -1 -8 -1 0 0 Z " fill="#6F7072" transform="translate(277,158)"/>
<path d="M0 0 C2.97345636 2.71109256 3.97226031 5.09503438 5.125 8.9375 C5.05708353 12.87665533 4.47430649 15.28255033 2.625 18.75 C-0.90203825 21.83615847 -4.21676815 22.75682659 -8.875 22.9375 C-12.65205102 22.23428705 -15.20225113 20.6753536 -17.8125 17.8125 C-19.68650166 12.74167198 -19.74760859 7.98813018 -17.625 3 C-13.10755425 -2.32413249 -6.20203404 -2.29205606 0 0 Z M-5.875 1.9375 C-5.215 2.515 -4.555 3.0925 -3.875 3.6875 C-1.875 5.9375 -1.875 5.9375 -1.875 9.9375 C-2.865 10.4325 -2.865 10.4325 -3.875 10.9375 C-3.215 12.5875 -2.555 14.2375 -1.875 15.9375 C-0.885 15.6075 0.105 15.2775 1.125 14.9375 C2.01179226 11.47094843 2.37375233 9.54556126 1 6.1875 C-1.1239376 3.63877488 -2.72930413 2.87270688 -5.875 1.9375 Z M-12.875 3.9375 C-10.565 3.9375 -8.255 3.9375 -5.875 3.9375 C-6.535 3.2775 -7.195 2.6175 -7.875 1.9375 C-10.19857511 1.75259993 -10.19857511 1.75259993 -12.875 3.9375 Z M-13.875 3.9375 C-16.45519343 8.61348319 -16.45519343 8.61348319 -16.25 13.6875 C-13.87948309 17.56652767 -12.94981013 18.66879747 -8.375 19.8125 C-4.94193998 20.29965013 -4.94193998 20.29965013 -2.9375 18.5 C-2.586875 17.984375 -2.23625 17.46875 -1.875 16.9375 C-2.865 16.6075 -3.855 16.2775 -4.875 15.9375 C-6.24695574 14.64394173 -7.58682656 13.31451298 -8.875 11.9375 C-8.875 13.5875 -8.875 15.2375 -8.875 16.9375 C-9.865 16.9375 -10.855 16.9375 -11.875 16.9375 C-11.875 12.9775 -11.875 9.0175 -11.875 4.9375 C-12.535 4.6075 -13.195 4.2775 -13.875 3.9375 Z M-8.875 6.9375 C-8.545 7.5975 -8.215 8.2575 -7.875 8.9375 C-6.555 8.6075 -5.235 8.2775 -3.875 7.9375 C-3.875 7.6075 -3.875 7.2775 -3.875 6.9375 C-5.525 6.9375 -7.175 6.9375 -8.875 6.9375 Z " fill="#A2A2A2" transform="translate(730.875,18.0625)"/>
<path d="M0 0 C0.58491211 0.1429248 1.16982422 0.28584961 1.77246094 0.43310547 C13.14820609 2.7783032 24.69379303 2.21661989 36.25 2.125 C38.45963137 2.1149518 40.66926715 2.1058292 42.87890625 2.09765625 C48.25270162 2.07578478 53.62632986 2.04245259 59 2 C57.265625 6.8359375 57.265625 6.8359375 54.875 8.3125 C54.25625 8.539375 53.6375 8.76625 53 9 C53 7.68 53 6.36 53 5 C51.70376709 5.00523682 50.40753418 5.01047363 49.07202148 5.01586914 C44.24325252 5.03402763 39.41448655 5.04547158 34.58569336 5.05493164 C32.49942517 5.0599471 30.41316047 5.06676105 28.3269043 5.07543945 C25.32079199 5.08762736 22.31472634 5.09325631 19.30859375 5.09765625 C17.91911781 5.10539818 17.91911781 5.10539818 16.50157166 5.11329651 C11.55563335 5.11372084 6.87554661 4.84322739 2 4 C2 7.63 2 11.26 2 15 C2.66 15 3.32 15 4 15 C4.98248524 19.0527516 5.08159574 22.83861737 5 27 C5.66 27 6.32 27 7 27 C7 29.31 7 31.62 7 34 C7.99 34 8.98 34 10 34 C10 33.34 10 32.68 10 32 C13.82989106 30.19769832 16.78121808 29.80377759 21 30 C21 29.34 21 28.68 21 28 C22.98 28 24.96 28 27 28 C20.99004316 32.0066379 13.95386667 34.18594782 7 36 C4.68863805 30.96123094 3.09856447 26.08816574 1.875 20.6875 C1.70395752 19.94491943 1.53291504 19.20233887 1.35668945 18.43725586 C-1.91084408 3.82168817 -1.91084408 3.82168817 0 0 Z " fill="#C9DE9F" transform="translate(643,150)"/>
<path d="M0 0 C0.52129014 4.21304981 0.66488173 7.81477605 -1.4375 11.5625 C-5.26400751 13.70907738 -8.72186143 13.89487669 -13 13 C-16.31578076 10.33120085 -16.89008359 8.68392436 -17.5625 4.5 C-16.84946388 0.06333082 -15.55047235 -1.31742089 -12 -4 C-7.00454615 -6.17750552 -3.65199105 -3.65199105 0 0 Z " fill="#707070" transform="translate(280,123)"/>
<path d="M0 0 C0 0.66 0 1.32 0 2 C0.66 2 1.32 2 2 2 C2 4.97 2 7.94 2 11 C1.29875 10.95359375 0.5975 10.9071875 -0.125 10.859375 C-6.99880578 10.59787152 -11.10675441 11.44181398 -17 15 C-17 12 -17 12 -16 9 C-16.33 8.67 -16.66 8.34 -17 8 C-17 6.68 -17 5.36 -17 4 C-17.66 3.67 -18.32 3.34 -19 3 C-12.43345544 0.6969113 -6.96327638 -0.33693273 0 0 Z " fill="#767778" transform="translate(341,82)"/>
<path d="M0 0 C-0.6875 2.4375 -0.6875 2.4375 -2 5 C-4.625 5.8125 -4.625 5.8125 -7 6 C-7 5.34 -7 4.68 -7 4 C-8.32 4 -9.64 4 -11 4 C-10.67 7.3 -10.34 10.6 -10 14 C-9.34 14 -8.68 14 -8 14 C-8.33 12.68 -8.66 11.36 -9 10 C-5.7846631 7.15566351 -3.26585932 6.34823341 1 6 C3.875 6.4375 3.875 6.4375 6 7 C6 7.33 6 7.66 6 8 C4.783125 8.226875 3.56625 8.45375 2.3125 8.6875 C-1.97843013 9.74314476 -4.11772563 11.60908897 -7 15 C-7.66 15.66 -8.32 16.32 -9 17 C-9 16.34 -9 15.68 -9 15 C-12.34373475 15.55728913 -15.03312999 16.35173889 -18 18 C-19.2337728 15.08380976 -19.02474046 14.06120008 -17.8125 11.0625 C-14.04390733 4.69487791 -8.26171842 -2.83996571 0 0 Z " fill="#777879" transform="translate(485,158)"/>
<path d="M0 0 C0.33 0 0.66 0 1 0 C1.05062418 7.63546931 1.08570152 15.2708955 1.10986328 22.90649414 C1.11993368 25.50514341 1.13359071 28.10378131 1.15087891 30.70239258 C1.17508139 34.43313397 1.18647266 38.16372581 1.1953125 41.89453125 C1.20563507 43.06023148 1.21595764 44.2259317 1.22659302 45.42695618 C1.22674408 46.50785019 1.22689514 47.5887442 1.22705078 48.70239258 C1.231492 49.65503494 1.23593323 50.60767731 1.24050903 51.58918762 C1 54 1 54 -1 57 C-1 58.65 -1 60.3 -1 62 C-4.3 62 -7.6 62 -11 62 C-10.67 59.03 -10.34 56.06 -10 53 C-6 52 -6 52 -1 52 C-0.67 34.84 -0.34 17.68 0 0 Z " fill="#8D8D8E" transform="translate(310,105)"/>
<path d="M0 0 C1.4510013 2.82139143 2.14526657 4.35437081 1.4375 7.5 C-0.30103939 10.52354676 -2.44398416 12.64577489 -5 15 C-5.66 14.34 -6.32 13.68 -7 13 C-10.0745356 13.7763932 -10.0745356 13.7763932 -12 16 C-13.125 14.3125 -13.125 14.3125 -14 12 C-13.24685348 8.23426738 -12.20030696 7.14490291 -9.0625 4.875 C-8.051875 4.25625 -7.04125 3.6375 -6 3 C-5.443125 2.4225 -4.88625 1.845 -4.3125 1.25 C-3 0 -3 0 0 0 Z " fill="#6F6F70" transform="translate(371,167)"/>
<path d="M0 0 C3.30870468 3.30870468 2.99480776 7.17876081 3.0234375 11.70703125 C3.01570312 12.79371094 3.00796875 13.88039063 3 15 C-7.83945633 16.46267363 -18.55764166 17.21230564 -29.5 17.25 C-31.1085083 17.26353516 -31.1085083 17.26353516 -32.74951172 17.27734375 C-39.69884865 17.25154575 -46.2111541 16.47979312 -53 15 C-53 14.67 -53 14.34 -53 14 C-51.82606689 14.01047363 -50.65213379 14.02094727 -49.44262695 14.03173828 C-45.02745697 14.06833085 -40.61229998 14.09104122 -36.19702148 14.10986328 C-34.29725886 14.11983241 -32.39751122 14.1334126 -30.49780273 14.15087891 C-19.7946186 14.2467199 -9.52670823 14.17675491 1 12 C0.34 11.01 -0.32 10.02 -1 9 C-0.9765625 6.73828125 -0.9765625 6.73828125 -0.625 4.3125 C-0.51414062 3.50425781 -0.40328125 2.69601563 -0.2890625 1.86328125 C-0.19367187 1.24839844 -0.09828125 0.63351563 0 0 Z " fill="#74C994" transform="translate(717,72)"/>
<path d="M0 0 C5.94 0.99 5.94 0.99 12 2 C12 2.99 12 3.98 12 5 C9.8828125 6.60546875 9.8828125 6.60546875 7.125 8.1875 C6.22007812 8.71730469 5.31515625 9.24710938 4.3828125 9.79296875 C2 11 2 11 0 11 C0 11.66 0 12.32 0 13 C-0.59167969 13.32613281 -1.18335938 13.65226562 -1.79296875 13.98828125 C-5.90329876 16.2613675 -9.99440514 18.54495799 -14 21 C-14 18.75 -14 18.75 -13 16 C-10.9985356 14.76633875 -8.99160173 13.8716107 -6.8125 12.9921875 C-4.64659324 12.07363556 -4.64659324 12.07363556 -4 9 C0.75 7.875 0.75 7.875 3 9 C2.7525 8.071875 2.7525 8.071875 2.5 7.125 C2 5 2 5 2 3 C1.34 2.67 0.68 2.34 0 2 C0 1.34 0 0.68 0 0 Z " fill="#C7DD95" transform="translate(638,11)"/>
<path d="M0 0 C5.19822672 1.36144033 8.09543873 3.46730171 12 7 C10.68 7.33 9.36 7.66 8 8 C8 10.64 8 13.28 8 16 C5.0280615 14.87548273 2.66559313 13.77706209 0 12 C0 11.34 0 10.68 0 10 C-0.639375 9.71125 -1.27875 9.4225 -1.9375 9.125 C-4 8 -4 8 -5 6 C-3.68 5.34 -2.36 4.68 -1 4 C-0.34 5.32 0.32 6.64 1 8 C1.66 6.68 2.32 5.36 3 4 C2.34 4 1.68 4 1 4 C0.67 2.68 0.34 1.36 0 0 Z " fill="#777878" transform="translate(366,231)"/>
<path d="M0 0 C0.66 0 1.32 0 2 0 C-0.16091954 12.71264368 -0.16091954 12.71264368 -2 18 C-2.66 18.33 -3.32 18.66 -4 19 C-6.3828125 18.00390625 -6.3828125 18.00390625 -9.125 16.5625 C-10.03507813 16.08941406 -10.94515625 15.61632812 -11.8828125 15.12890625 C-12.58148437 14.75636719 -13.28015625 14.38382813 -14 14 C-13.67 13.01 -13.34 12.02 -13 11 C-8.05 10.01 -8.05 10.01 -3 9 C-2.01 6.03 -1.02 3.06 0 0 Z " fill="#227FBD" transform="translate(636,59)"/>
<path d="M0 0 C5.26170694 1.41167747 8.72171358 3.74850232 13 7 C10.93392974 10.0991054 9.69345112 11.75879961 6.125 13 C2.35165941 13 0.21028889 11.91088625 -3 10 C-2.071875 9.87625 -2.071875 9.87625 -1.125 9.75 C1.18437567 9.18741541 1.18437567 9.18741541 2.25 6.9375 C2.4975 6.298125 2.745 5.65875 3 5 C3.66 5 4.32 5 5 5 C5 4.34 5 3.68 5 3 C3.35 2.67 1.7 2.34 0 2 C0 1.34 0 0.68 0 0 Z " fill="#767678" transform="translate(417,160)"/>
<path d="M0 0 C3.39417765 3.12621626 5.6062718 5.56541027 7 10 C0.25 14 0.25 14 -2 14 C-3.36363208 12.02053408 -4.69418644 10.0180755 -6 8 C-7.62351109 6.20605554 -7.62351109 6.20605554 -9 5 C-7.25 4.3125 -7.25 4.3125 -5 4 C-3.65210653 4.98028616 -2.31787285 5.97971135 -1 7 C-0.01 6.67 0.98 6.34 2 6 C1.34 4.02 0.68 2.04 0 0 Z " fill="#848486" transform="translate(508,162)"/>
<path d="M0 0 C0.99 0 1.98 0 3 0 C2.79375 1.051875 2.5875 2.10375 2.375 3.1875 C1.99622495 7.03837968 2.03512365 8.72520608 4 12 C6.00016466 13.20882096 6.00016466 13.20882096 8 14 C8.33 14.66 8.66 15.32 9 16 C11.64 15.67 14.28 15.34 17 15 C16.67 15.99 16.34 16.98 16 18 C10.33453068 19.27184005 7.05661484 18.91727779 2 16 C-1.38029656 12.29257796 -1.29961817 8.77273405 -1.203125 3.98828125 C-1 2 -1 2 0 0 Z " fill="#909090" transform="translate(713,22)"/>
<path d="M0 0 C2.31 1.98 4.62 3.96 7 6 C6.67 6.99 6.34 7.98 6 9 C4.02 8.34 2.04 7.68 0 7 C-0.02907084 10.58331625 -0.04682263 14.16660208 -0.0625 17.75 C-0.07087891 18.76578125 -0.07925781 19.7815625 -0.08789062 20.828125 C-0.09111328 21.8078125 -0.09433594 22.7875 -0.09765625 23.796875 C-0.10551147 25.14797363 -0.10551147 25.14797363 -0.11352539 26.52636719 C-0.00699728 28.84753461 0.416877 30.76359889 1 33 C1.03888349 35.33300933 1.0448635 37.66709801 1 40 C-3.3582983 33.46255255 -3.4131279 24.67416368 -3 17 C-2.94714844 15.99324219 -2.89429688 14.98648438 -2.83984375 13.94921875 C-2.49885221 8.87154471 -2.10298014 4.68468747 0 0 Z " fill="#73C893" transform="translate(533,80)"/>
<path d="M0 0 C0.33 1.32 0.66 2.64 1 4 C1.66 4 2.32 4 3 4 C3.98248524 8.0527516 4.08159574 11.83861737 4 16 C4.66 16 5.32 16 6 16 C6 18.31 6 20.62 6 23 C6.99 23 7.98 23 9 23 C9 22.34 9 21.68 9 21 C12.82989106 19.19769832 15.78121808 18.80377759 20 19 C20 18.34 20 17.68 20 17 C21.98 17 23.96 17 26 17 C19.99004316 21.0066379 12.95386667 23.18594782 6 25 C3.59469765 19.78851158 2.02209915 14.71452658 0.75 9.125 C0.564375 8.35414063 0.37875 7.58328125 0.1875 6.7890625 C-0.25840345 4.87032646 -0.63569727 2.93588775 -1 1 C-0.67 0.67 -0.34 0.34 0 0 Z " fill="#DEECBF" transform="translate(644,161)"/>
<path d="M0 0 C3.625 0.1875 3.625 0.1875 6.625 2.1875 C-4.405064 3.67589418 -15.3024652 4.40048091 -26.4375 4.4375 C-27.58524902 4.44652344 -28.73299805 4.45554688 -29.91552734 4.46484375 C-30.98625488 4.46097656 -32.05698242 4.45710937 -33.16015625 4.453125 C-34.11801025 4.45086914 -35.07586426 4.44861328 -36.06274414 4.44628906 C-38.375 4.1875 -38.375 4.1875 -40.375 2.1875 C-39.28968994 2.16244385 -38.20437988 2.1373877 -37.08618164 2.11157227 C-33.073684 2.01766245 -29.06136618 1.91740233 -25.04907227 1.81518555 C-23.30985712 1.77177427 -21.57059765 1.73010388 -19.83129883 1.69018555 C-17.33661512 1.63263232 -14.8421559 1.5688958 -12.34765625 1.50390625 C-11.56536148 1.48719376 -10.78306671 1.47048126 -9.97706604 1.45326233 C-6.188033 1.3483975 -3.57837597 0.19879867 0 0 Z " fill="#7EC9E6" transform="translate(696.375,140.8125)"/>
<path d="M0 0 C2.29946417 3.44919626 2.80769035 6.1381022 3.625 10.1875 C4.01558594 12.09595703 4.01558594 12.09595703 4.4140625 14.04296875 C4.60742188 15.01878906 4.80078125 15.99460938 5 17 C-7.65801349 18.56824946 -19.4467589 17.92071449 -32 16 C-32 15.67 -32 15.34 -32 15 C-20.78 15 -9.56 15 2 15 C2 12.69 2 10.38 2 8 C1.34 8 0.68 8 0 8 C0 5.36 0 2.72 0 0 Z " fill="#5FA0C7" transform="translate(636,170)"/>
<path d="M0 0 C-1.48904175 3.89608498 -3.24378713 7.59097018 -5.125 11.3125 C-5.66382813 12.38113281 -6.20265625 13.44976562 -6.7578125 14.55078125 C-7.37269531 15.76314453 -7.37269531 15.76314453 -8 17 C-8.33 17 -8.66 17 -9 17 C-9.144375 15.865625 -9.28875 14.73125 -9.4375 13.5625 C-9.61171478 10.19222799 -9.61171478 10.19222799 -11 9 C-11.99 8.67 -12.98 8.34 -14 8 C-10.30915494 3.86625354 -5.74086742 0 0 0 Z " fill="#3E8EC0" transform="translate(653,25)"/>
<path d="M0 0 C0.33 0 0.66 0 1 0 C1.25032731 7.25949201 1.25032731 7.25949201 0.06640625 10.76171875 C-1.18672078 14.56700194 -1.71613478 18.22291655 -2.1875 22.1875 C-2.28224609 22.89841797 -2.37699219 23.60933594 -2.47460938 24.34179688 C-2.88005401 27.63177892 -3.06170343 29.8148897 -2 33 C-0.68 33 0.64 33 2 33 C1.34 34.32 0.68 35.64 0 37 C-4.6875 33.77734375 -4.6875 33.77734375 -6 32 C-6.56355425 26.292207 -5.35234917 20.97798047 -4.125 15.4375 C-3.95097656 14.61314453 -3.77695312 13.78878906 -3.59765625 12.93945312 C-2.64381555 8.5199912 -1.53371464 4.26262132 0 0 Z " fill="#3D8ABA" transform="translate(562,128)"/>
<path d="M0 0 C3.74281699 2.38179263 6.97727468 4.74475735 10 8 C9.34 8 8.68 8 8 8 C7.67 8.99 7.34 9.98 7 11 C3.5625 10.1875 3.5625 10.1875 0 9 C-0.33 8.01 -0.66 7.02 -1 6 C-2.32 6.33 -3.64 6.66 -5 7 C-3.47793991 4.37098712 -2.15634036 2.15634036 0 0 Z " fill="#157ABA" transform="translate(598,67)"/>
<path d="M0 0 C0.66 0 1.32 0 2 0 C2 0.66 2 1.32 2 2 C2.969375 2.2475 3.93875 2.495 4.9375 2.75 C5.948125 3.1625 6.95875 3.575 8 4 C8.875 6.125 8.875 6.125 9 8 C8.01 8 7.02 8 6 8 C5.2575 9.2375 5.2575 9.2375 4.5 10.5 C3.7575 11.7375 3.7575 11.7375 3 13 C2.01 13 1.02 13 0 13 C0.33 11.02 0.66 9.04 1 7 C0.01 7 -0.98 7 -2 7 C-1.125 1.125 -1.125 1.125 0 0 Z " fill="#0FAF4C" transform="translate(667,19)"/>
<path d="M0 0 C0.33 0.99 0.66 1.98 1 3 C-1.475 4.485 -1.475 4.485 -4 6 C-3.67 6.66 -3.34 7.32 -3 8 C-2.01 7.67 -1.02 7.34 0 7 C0.12375 8.175625 0.12375 8.175625 0.25 9.375 C0.73044197 12.11983754 0.73044197 12.11983754 2.9375 13.3125 C4.95388345 14.10540926 4.95388345 14.10540926 7 14 C7.66 15.65 8.32 17.3 9 19 C4.31812124 17.68018255 0.99625079 15.80204328 -2.875 12.875 C-3.84179688 12.15054688 -4.80859375 11.42609375 -5.8046875 10.6796875 C-6.52914062 10.12539063 -7.25359375 9.57109375 -8 9 C-6.1144852 4.71640327 -3.64034299 2.84896408 0 0 Z " fill="#398BBD" transform="translate(613,53)"/>
<path d="M0 0 C0.33 0 0.66 0 1 0 C1.67192387 10.0188648 2.15723924 19.95415947 2 30 C-2.98844309 29.3900874 -7.60155346 28.36525565 -12.4375 26.9375 C-13.67371094 26.57527344 -14.90992188 26.21304688 -16.18359375 25.83984375 C-17.11300781 25.56269531 -18.04242187 25.28554687 -19 25 C-19 24.67 -19 24.34 -19 24 C-16.03 24 -13.06 24 -10 24 C-10 24.66 -10 25.32 -10 26 C-6.7 26.33 -3.4 26.66 0 27 C0 18.09 0 9.18 0 0 Z " fill="#559AC5" transform="translate(629,109)"/>
<path d="M0 0 C1 2 1 2 0.5 4.375 C-0.19474296 6.935379 -0.19474296 6.935379 0.625 9.125 C1 11 1 11 -0.0625 12.625 C-2.55744884 14.39560885 -5.07612142 15.15532397 -8 16 C-8 16.99 -8 17.98 -8 19 C-8.66 19 -9.32 19 -10 19 C-8.62394084 14.23448987 -6.53221934 10.2751447 -3.875 6.125 C-3.50246094 5.53203125 -3.12992188 4.9390625 -2.74609375 4.328125 C-1.83635 2.8818657 -0.91896202 1.44041954 0 0 Z " fill="#378CC0" transform="translate(583,86)"/>
<path d="M0 0 C-0.71285156 0.58007812 -1.42570313 1.16015625 -2.16015625 1.7578125 C-7.49632259 6.11005584 -12.79630884 10.49013433 -18 15 C-18.1875 12.125 -18.1875 12.125 -18 9 C-15 7 -15 7 -11 7 C-11.33 6.01 -11.66 5.02 -12 4 C-8.71298741 1.21868166 -4.24676932 -2.12338466 0 0 Z " fill="#C7DD9A" transform="translate(621,35)"/>
<path d="M0 0 C3.99251451 3.99251451 3 9.63066196 3 15 C-2.61 15.66 -8.22 16.32 -14 17 C-14.33 16.34 -14.66 15.68 -15 15 C-9.72 14.01 -4.44 13.02 1 12 C0.34 11.01 -0.32 10.02 -1 9 C-0.9765625 6.73828125 -0.9765625 6.73828125 -0.625 4.3125 C-0.45871094 3.10013672 -0.45871094 3.10013672 -0.2890625 1.86328125 C-0.19367187 1.24839844 -0.09828125 0.63351563 0 0 Z " fill="#61C289" transform="translate(717,72)"/>
<path d="M0 0 C0 0.33 0 0.66 0 1 C-0.96824707 1.029729 -0.96824707 1.029729 -1.95605469 1.06005859 C-4.88777221 1.15546328 -7.81879232 1.26507971 -10.75 1.375 C-12.27367187 1.42140625 -12.27367187 1.42140625 -13.828125 1.46875 C-14.8078125 1.50742188 -15.7875 1.54609375 -16.796875 1.5859375 C-18.14797363 1.63306885 -18.14797363 1.63306885 -19.52636719 1.68115234 C-22.10632591 2.01370525 -23.72981382 2.7803787 -26 4 C-28.578125 4.1953125 -28.578125 4.1953125 -31.25 4.125 C-32.14203125 4.10695313 -33.0340625 4.08890625 -33.953125 4.0703125 C-34.96632813 4.03550781 -34.96632813 4.03550781 -36 4 C-25.1445929 -1.66472117 -11.88680564 -1.78028195 0 0 Z " fill="#E8F0D5" transform="translate(636,11)"/>
<path d="M0 0 C4.91899768 2.07171609 7.0404271 5.73788526 10 10 C10.66 10.86625 11.32 11.7325 12 12.625 C13 15 13 15 12.1875 18.3125 C11.795625 19.199375 11.40375 20.08625 11 21 C10.67 21 10.34 21 10 21 C8.875 15.25 8.875 15.25 10 13 C9.40703125 12.7628125 8.8140625 12.525625 8.203125 12.28125 C5.51899491 10.72026654 4.42157887 9.10023379 2.75 6.5 C1.96882812 5.30890625 1.96882812 5.30890625 1.171875 4.09375 C0 2 0 2 0 0 Z " fill="#61C385" transform="translate(546,97)"/>
<path d="M0 0 C0.33 0.66 0.66 1.32 1 2 C1.33 1.34 1.66 0.68 2 0 C3.32 0 4.64 0 6 0 C6.99 2.31 7.98 4.62 9 7 C7.25 7.6875 7.25 7.6875 5 8 C3.66150329 7.00692179 2.32848691 6.00642948 1 5 C-1.66761764 4.74875174 -1.66761764 4.74875174 -4 5 C-2.25 1.125 -2.25 1.125 0 0 Z " fill="#646466" transform="translate(502,162)"/>
<path d="M0 0 C0.05394705 2.60444348 0.09364469 5.20776998 0.125 7.8125 C0.14175781 8.55048828 0.15851562 9.28847656 0.17578125 10.04882812 C0.21074628 13.91246426 0.19397555 15.70903668 -2 19 C-2 13.39 -2 7.78 -2 2 C-5.63 2 -9.26 2 -13 2 C-13 1.67 -13 1.34 -13 1 C-8.59917251 0.14130195 -4.47726307 -0.0425899 0 0 Z " fill="#8BD0E5" transform="translate(722,96)"/>
<path d="M0 0 C2.34214105 1.83297995 2.99000729 2.96464119 3.8125 5.875 C4.01313068 9.21884463 3.482349 11.03530199 2 14 C1.67 14 1.34 14 1 14 C0.67 11.69 0.34 9.38 0 7 C-0.66 7 -1.32 7 -2 7 C-2 6.34 -2 5.68 -2 5 C-2.66 5 -3.32 5 -4 5 C-3 2 -3 2 0 0 Z " fill="#1E80C3" transform="translate(640,35)"/>
<path d="M0 0 C-0.33 0.99 -0.66 1.98 -1 3 C-3.31 2.34 -5.62 1.68 -8 1 C-7.814375 1.70125 -7.62875 2.4025 -7.4375 3.125 C-6.94843024 6.33888698 -7.33768442 8.83560336 -8 12 C-8.66 12 -9.32 12 -10 12 C-10.33 7.71 -10.66 3.42 -11 -1 C-3.57142857 -2.42857143 -3.57142857 -2.42857143 0 0 Z " fill="#808080" transform="translate(729,23)"/>
<path d="M0 0 C2.31 0.66 4.62 1.32 7 2 C5 5 5 5 2.375 5.6875 C1.59125 5.790625 0.8075 5.89375 0 6 C-0.33 7.32 -0.66 8.64 -1 10 C-2.98 9.34 -4.96 8.68 -7 8 C-6.21625 7.4225 -5.4325 6.845 -4.625 6.25 C-2.19952756 4.17102363 -1.14305583 2.90959667 0 0 Z " fill="#7F7F81" transform="translate(484,192)"/>
<path d="M0 0 C0 0.33 0 0.66 0 1 C-1.216875 1.226875 -2.43375 1.45375 -3.6875 1.6875 C-7.97843013 2.74314476 -10.11772563 4.60908897 -13 8 C-13.66 8.66 -14.32 9.32 -15 10 C-15 9.34 -15 8.68 -15 8 C-15.66 8 -16.32 8 -17 8 C-16.67 7.34 -16.34 6.68 -16 6 C-15.34 6.33 -14.68 6.66 -14 7 C-14.33 5.68 -14.66 4.36 -15 3 C-9.77732815 -1.29005187 -6.62554935 -1.1467297 0 0 Z " fill="#909192" transform="translate(491,165)"/>
<path d="M0 0 C-0.6875 1.9375 -0.6875 1.9375 -2 4 C-4 4.6875 -4 4.6875 -7 5 C-7.84175781 5.09023438 -8.68351563 5.18046875 -9.55078125 5.2734375 C-12.03254628 5.53319791 -14.51503514 5.7732168 -17 6 C-14.26449021 3.78050683 -11.8490104 2.39634069 -8.5 1.3125 C-7.7471875 1.06113281 -6.994375 0.80976563 -6.21875 0.55078125 C-4 0 -4 0 0 0 Z " fill="#CBDFA1" transform="translate(600,15)"/>
<path d="M0 0 C1.125 3.75 1.125 3.75 0 6 C-0.15420605 7.74766859 -0.27449964 9.49842223 -0.375 11.25 C-0.74981167 15.92592914 -1.53569479 19.03568293 -4 23 C-4.66 22.67 -5.32 22.34 -6 22 C-4.36695592 14.50652821 -2.57281882 7.22839572 0 0 Z " fill="#70C993" transform="translate(648,57)"/>
<path d="M0 0 C0.66 0 1.32 0 2 0 C1.31993504 6.12058468 0.09789884 12.19815537 -2 18 C-2.66 18.33 -3.32 18.66 -4 19 C-3.67 15.04 -3.34 11.08 -3 7 C-2.34 7 -1.68 7 -1 7 C-0.67 4.69 -0.34 2.38 0 0 Z " fill="#63C7E9" transform="translate(718,115)"/>
<path d="M0 0 C2.31 1.98 4.62 3.96 7 6 C5.73058503 9.91402949 4.48832306 11.79072873 1 14 C1 10.66666667 1 7.33333333 1 4 C0.67 2.68 0.34 1.36 0 0 Z " fill="#3D8FC1" transform="translate(584,54)"/>
<path d="M0 0 C0.66 0.33 1.32 0.66 2 1 C1.01 1.33 0.02 1.66 -1 2 C-1 2.66 -1 3.32 -1 4 C-1.66 4.66 -2.32 5.32 -3 6 C-2.34 6.33 -1.68 6.66 -1 7 C-0.40644386 9.64860427 -0.25790731 12.29197322 0 15 C-2.62408366 12.62582907 -4.38613402 10.15088121 -6 7 C-6 5.68 -6 4.36 -6 3 C-4.03533587 1.93224776 -2.03144641 0.93446535 0 0 Z " fill="#D7E7B6" transform="translate(581,21)"/>
<path d="M0 0 C2.3431213 0.25561323 4.67843403 0.59270772 7 1 C7.33 1.66 7.66 2.32 8 3 C6.7625 3.61875 6.7625 3.61875 5.5 4.25 C4.675 4.8275 3.85 5.405 3 6 C3 7.32 3 8.64 3 10 C2.34 10 1.68 10 1 10 C0.22157062 6.59437148 -0.09978121 3.49234244 0 0 Z " fill="#636365" transform="translate(474,162)"/>
<path d="M0 0 C1.32 0.66 2.64 1.32 4 2 C4 2.99 4 3.98 4 5 C2.35 5.33 0.7 5.66 -1 6 C-1 6.99 -1 7.98 -1 9 C-1.99 9 -2.98 9 -4 9 C-2.94124926 5.59687262 -1.99097846 2.98646769 0 0 Z " fill="#428FC0" transform="translate(567,118)"/>
<path d="M0 0 C2.0625 0.4375 2.0625 0.4375 4 1 C2.73459948 4.79620155 1.21781569 5.48678188 -2.0625 7.6875 C-2.98160156 8.31011719 -3.90070312 8.93273437 -4.84765625 9.57421875 C-5.55792969 10.04472656 -6.26820313 10.51523438 -7 11 C-7.66 10.67 -8.32 10.34 -9 10 C-8.67 9.01 -8.34 8.02 -8 7 C-6.68 7 -5.36 7 -4 7 C-4 6.01 -4 5.02 -4 4 C-2.68 4 -1.36 4 0 4 C-0.33 3.01 -0.66 2.02 -1 1 C-0.67 0.67 -0.34 0.34 0 0 Z " fill="#D3E5AC" transform="translate(689,161)"/>
<path d="M0 0 C5.46737191 1.74807129 10.75824848 3.65794081 16 6 C14.4375 7.125 14.4375 7.125 12 8 C8.3125 7.25 8.3125 7.25 5 6 C4.67 5.34 4.34 4.68 4 4 C1.98330173 2.86649466 1.98330173 2.86649466 0 2 C0 1.34 0 0.68 0 0 Z " fill="#4693C1" transform="translate(592,135)"/>
<path d="M0 0 C1.875 0.125 1.875 0.125 4 1 C5.8125 3.4375 5.8125 3.4375 7 6 C6.67 6.66 6.34 7.32 6 8 C4.02 7.34 2.04 6.68 0 6 C-0.38218767 4.34385343 -0.71395102 2.67542976 -1 1 C-0.67 0.67 -0.34 0.34 0 0 Z " fill="#7B7B7D" transform="translate(512,207)"/>
<path d="M0 0 C3.51705958 0.65271556 6.89325077 1.51393024 10.3125 2.5625 C11.19550781 2.83191406 12.07851563 3.10132813 12.98828125 3.37890625 C13.65214844 3.58386719 14.31601562 3.78882813 15 4 C15 4.99 15 5.98 15 7 C12.69 6.67 10.38 6.34 8 6 C7.67 5.01 7.34 4.02 7 3 C6.21625 3.020625 5.4325 3.04125 4.625 3.0625 C2 3 2 3 0 2 C0 1.34 0 0.68 0 0 Z " fill="#4994C1" transform="translate(608,142)"/>
<path d="M0 0 C2.475 0.495 2.475 0.495 5 1 C5.33 2.32 5.66 3.64 6 5 C3 7 3 7 0 7 C0 4.69 0 2.38 0 0 Z " fill="#0DB04C" transform="translate(533,87)"/>
<path d="M0 0 C0.66 0.33 1.32 0.66 2 1 C1.01 2.485 1.01 2.485 0 4 C0.30840599 6.15274948 0.30840599 6.15274948 1 8 C-2.13349732 9.04449911 -2.98968256 8.93423645 -6 8 C-4.55746343 4.63408134 -2.66735273 2.48952921 0 0 Z " fill="#898989" transform="translate(320,86)"/>
<path d="M0 0 C3.3 0 6.6 0 10 0 C10.33 0.66 10.66 1.32 11 2 C12.155 2.165 13.31 2.33 14.5 2.5 C15.655 2.665 16.81 2.83 18 3 C18.33 3.66 18.66 4.32 19 5 C12.31006781 4.46048934 6.36539272 3.11293829 0 1 C0 0.67 0 0.34 0 0 Z " fill="#63C489" transform="translate(643,81)"/>
<path d="M0 0 C2.29946417 3.44919626 2.80769035 6.1381022 3.625 10.1875 C3.88539063 11.45980469 4.14578125 12.73210937 4.4140625 14.04296875 C4.60742188 15.01878906 4.80078125 15.99460938 5 17 C3.68 16.67 2.36 16.34 1 16 C1.33 13.36 1.66 10.72 2 8 C1.34 8 0.68 8 0 8 C0 5.36 0 2.72 0 0 Z " fill="#6BA6CB" transform="translate(636,170)"/>
<path d="M0 0 C0.66 0 1.32 0 2 0 C2 0.66 2 1.32 2 2 C2.66 2 3.32 2 4 2 C3 5 3 5 1 7 C0.67 7.66 0.34 8.32 0 9 C-0.99 8.01 -1.98 7.02 -3 6 C-1.125 1.125 -1.125 1.125 0 0 Z " fill="#616264" transform="translate(428,168)"/>
<path d="M0 0 C0.66 0 1.32 0 2 0 C2.33 0.66 2.66 1.32 3 2 C5.02463255 2.65213292 5.02463255 2.65213292 7 3 C7 5 7 5 5.1875 7.125 C3 9 3 9 0 9 C0 6.03 0 3.06 0 0 Z " fill="#626265" transform="translate(415,160)"/>
<path d="M0 0 C5.94 1.485 5.94 1.485 12 3 C12 3.33 12 3.66 12 4 C8.37 3.67 4.74 3.34 1 3 C0.67 4.98 0.34 6.96 0 9 C-0.33 9 -0.66 9 -1 9 C-1.125 2.25 -1.125 2.25 0 0 Z " fill="#7ED1E9" transform="translate(641,90)"/>
<path d="M0 0 C0.66 0 1.32 0 2 0 C2 0.66 2 1.32 2 2 C3.98 2.66 5.96 3.32 8 4 C7.67 4.66 7.34 5.32 7 6 C4.03 5.67 1.06 5.34 -2 5 C-1.34 3.35 -0.68 1.7 0 0 Z " fill="#61C186" transform="translate(667,19)"/>
<path d="M0 0 C3.39417765 3.12621626 5.6062718 5.56541027 7 10 C5.35 9.67 3.7 9.34 2 9 C1.22678118 6.01758453 0.58803797 3.02419525 0 0 Z " fill="#89898A" transform="translate(508,162)"/>
<path d="M0 0 C5.94 0.99 5.94 0.99 12 2 C12 2.99 12 3.98 12 5 C10.68 5.33 9.36 5.66 8 6 C7.67 5.34 7.34 4.68 7 4 C4.6859378 3.26924352 2.35171131 2.59861742 0 2 C0 1.34 0 0.68 0 0 Z " fill="#D8E6BB" transform="translate(638,11)"/>
<path d="M0 0 C1.98 0 3.96 0 6 0 C3.35889796 1.7607347 0.96694266 3.00960644 -1.9375 4.25 C-2.79214844 4.62640625 -3.64679687 5.0028125 -4.52734375 5.390625 C-7 6 -7 6 -9.31640625 5.109375 C-9.87199219 4.74328125 -10.42757812 4.3771875 -11 4 C-7.17010894 2.19769832 -4.21878192 1.80377759 0 2 C0 1.34 0 0.68 0 0 Z " fill="#D2E3AD" transform="translate(664,178)"/>
<path d="M0 0 C4.75 0.875 4.75 0.875 7 2 C7 5.96 7 9.92 7 14 C6.67 14 6.34 14 6 14 C5.67 10.37 5.34 6.74 5 3 C3.35 3 1.7 3 0 3 C0 2.01 0 1.02 0 0 Z " fill="#5297C4" transform="translate(624,84)"/>
<path d="M0 0 C1.38609004 3.15020465 0.89180331 4.31918022 -0.25 7.6875 C-2 11 -2 11 -5 12 C-4.42365861 7.24518354 -2.44931479 4.02951788 0 0 Z " fill="#4CBD78" transform="translate(660,30)"/>
<path d="M0 0 C-3.63 2.31 -7.26 4.62 -11 7 C-10.67 5.35 -10.34 3.7 -10 2 C-5.99257952 -0.67161365 -4.77306448 -1.19326612 0 0 Z " fill="#CFE2A8" transform="translate(635,25)"/>
<path d="M0 0 C0.99 0 1.98 0 3 0 C2.34 3.63 1.68 7.26 1 11 C0.34 11 -0.32 11 -1 11 C-1.0270043 9.54176788 -1.04639787 8.08339325 -1.0625 6.625 C-1.07410156 5.81289063 -1.08570313 5.00078125 -1.09765625 4.1640625 C-1 2 -1 2 0 0 Z " fill="#888888" transform="translate(713,22)"/>
<path d="M0 0 C3.3 0.66 6.6 1.32 10 2 C10 2.33 10 2.66 10 3 C7.03 3 4.06 3 1 3 C1 5.64 1 8.28 1 11 C0.67 11 0.34 11 0 11 C-0.19491452 9.54263913 -0.38069358 8.08405407 -0.5625 6.625 C-0.66691406 5.81289062 -0.77132812 5.00078125 -0.87890625 4.1640625 C-1 2 -1 2 0 0 Z " fill="#EBF4DB" transform="translate(643,150)"/>
<path d="M0 0 C0.66 0 1.32 0 2 0 C1.68806536 1.72926874 1.37542638 3.45841044 1.0625 5.1875 C0.88847656 6.15042969 0.71445312 7.11335938 0.53515625 8.10546875 C0.0476265 10.74239972 -0.46671105 13.3719905 -1 16 C-1.33 16 -1.66 16 -2 16 C-2.20413361 10.26157749 -2.27141454 5.39460953 0 0 Z " fill="#64A4CD" transform="translate(636,59)"/>
<path d="M0 0 C0.78375 0.185625 1.5675 0.37125 2.375 0.5625 C4.97089775 1.25962266 4.97089775 1.25962266 7 0 C7.99 0.66 8.98 1.32 10 2 C9.34 2 8.68 2 8 2 C7.34 3.32 6.68 4.64 6 6 C1.125 3.375 1.125 3.375 0 0 Z " fill="#D8E6B9" transform="translate(593,49)"/>
<path d="M0 0 C0.66 0 1.32 0 2 0 C1.125 7.625 1.125 7.625 0 11 C-0.99 10.67 -1.98 10.34 -3 10 C-3.6875 7.9375 -3.6875 7.9375 -4 6 C-2.68 6.33 -1.36 6.66 0 7 C0 4.69 0 2.38 0 0 Z " fill="#6CC790" transform="translate(548,137)"/>
<path d="M0 0 C-3.19990508 2.74277578 -6.00499382 4.6302836 -10 6 C-9.67 5.01 -9.34 4.02 -9 3 C-8.01 3 -7.02 3 -6 3 C-6.33 2.01 -6.66 1.02 -7 0 C-4.3333581 -1.33332095 -2.83319697 -0.67102033 0 0 Z " fill="#D2E5A9" transform="translate(680,172)"/>
<path d="M0 0 C4.66154042 1.49835228 5.86610751 4.88463591 8 9 C6.25 8.875 6.25 8.875 4 8 C0 2.77777778 0 2.77777778 0 0 Z " fill="#71CA95" transform="translate(546,97)"/>
<path d="M0 0 C-0.33 0.66 -0.66 1.32 -1 2 C-4.01490557 3.00496852 -6.04181692 3.10335303 -9.1875 3.0625 C-10.53908203 3.04896484 -10.53908203 3.04896484 -11.91796875 3.03515625 C-12.60503906 3.02355469 -13.29210937 3.01195312 -14 3 C-9.11521152 0.50693368 -5.53108342 -0.12570644 0 0 Z " fill="#CFE3A6" transform="translate(614,12)"/>
<path d="M0 0 C0.66 0.33 1.32 0.66 2 1 C1.46930939 4.82097239 0.50298434 7.06171403 -2 10 C-3.06351675 6.61608307 -3.21442982 5.4195366 -1.5625 2.1875 C-1.046875 1.465625 -0.53125 0.74375 0 0 Z " fill="#858586" transform="translate(364,179)"/>
<path d="M0 0 C2.5 2.3125 2.5 2.3125 5 5 C5 5.99 5 6.98 5 8 C3.35 7.67 1.7 7.34 0 7 C0 4.69 0 2.38 0 0 Z " fill="#67C58D" transform="translate(709,56)"/>
<path d="M0 0 C0.33 0.99 0.66 1.98 1 3 C0.67 3.66 0.34 4.32 0 5 C0.66 5.33 1.32 5.66 2 6 C1.01 6.99 0.02 7.98 -1 9 C-1.99 8.67 -2.98 8.34 -4 8 C-2.87548273 5.0280615 -1.77706209 2.66559313 0 0 Z " fill="#7F7F81" transform="translate(508,232)"/>
<path d="M0 0 C6.625 -0.25 6.625 -0.25 10 2 C6.37 2.33 2.74 2.66 -1 3 C-0.67 2.01 -0.34 1.02 0 0 Z " fill="#52C0E7" transform="translate(693,141)"/>
<path d="M0 0 C3.41158256 1.13719419 4.11854601 2.04342944 6 5 C6 5.66 6 6.32 6 7 C3.69 6.67 1.38 6.34 -1 6 C-0.67 4.02 -0.34 2.04 0 0 Z " fill="#39BA6A" transform="translate(538,88)"/>
<path d="M0 0 C2.42115191 2.42115191 2.60948898 3.64160525 3 7 C2.5625 9.8125 2.5625 9.8125 2 12 C0.48046875 10.79296875 0.48046875 10.79296875 -1 9 C-1.07421875 6.73828125 -1.07421875 6.73828125 -0.6875 4.3125 C-0.56761719 3.50425781 -0.44773437 2.69601563 -0.32421875 1.86328125 C-0.21722656 1.24839844 -0.11023438 0.63351563 0 0 Z " fill="#56BD7D" transform="translate(717,72)"/>
<path d="M0 0 C0.33 0.99 0.66 1.98 1 3 C0.21625 3.433125 -0.5675 3.86625 -1.375 4.3125 C-4.21698375 5.89220247 -4.21698375 5.89220247 -6 9 C-6.66 9 -7.32 9 -8 9 C-6.4169423 4.7257442 -3.49431596 2.73468206 0 0 Z " fill="#6AAACD" transform="translate(613,53)"/>
<path d="M0 0 C2.625 -0.1875 2.625 -0.1875 5 0 C5 2.66666667 5 5.33333333 5 8 C4.34 7.01 3.68 6.02 3 5 C2.34 4.34 1.68 3.68 1 3 C0.01 3 -0.98 3 -2 3 C-1.34 2.01 -0.68 1.02 0 0 Z " fill="#0770B2" transform="translate(639,33)"/>
<path d="M0 0 C1.2065625 0.0309375 1.2065625 0.0309375 2.4375 0.0625 C2.1075 1.3825 1.7775 2.7025 1.4375 4.0625 C0.1175 4.3925 -1.2025 4.7225 -2.5625 5.0625 C-3.125 3.125 -3.125 3.125 -3.5625 1.0625 C-2.5625 0.0625 -2.5625 0.0625 0 0 Z " fill="#BFDD8B" transform="translate(643.5625,14.9375)"/>
<path d="M0 0 C0.33 0 0.66 0 1 0 C1.49230769 7.26153846 1.49230769 7.26153846 -1 11 C-1.66 11.66 -2.32 12.32 -3 13 C-2.45144652 8.428721 -1.58255197 4.32564205 0 0 Z " fill="#66A5CD" transform="translate(562,128)"/>
<path d="M0 0 C-0.33 1.65 -0.66 3.3 -1 5 C-2.875 4.6875 -2.875 4.6875 -5 4 C-5.66 3.01 -6.32 2.02 -7 1 C-4.50935112 0.31292445 -2.62113708 0 0 0 Z " fill="#6FADD0" transform="translate(566,97)"/>
<path d="M0 0 C0.99 0.66 1.98 1.32 3 2 C2.60196439 4.88575819 2.20990931 5.82189513 -0.0625 7.75 C-1.0215625 8.36875 -1.0215625 8.36875 -2 9 C-1.34 6.03 -0.68 3.06 0 0 Z " fill="#14ABE5" transform="translate(642,93)"/>
<path d="M0 0 C1.65 0 3.3 0 5 0 C6.4606285 2.64738916 7 3.89448334 7 7 C3.00003714 5.66667905 2.16217663 3.5042173 0 0 Z " fill="#D3E5AC" transform="translate(586,42)"/>
<path d="M0 0 C1.98 0.66 3.96 1.32 6 2 C6 2.99 6 3.98 6 5 C4.68 5.33 3.36 5.66 2 6 C1.34 4.02 0.68 2.04 0 0 Z " fill="#4BBC78" transform="translate(675,24)"/>
<path d="M0 0 C0.33 0.99 0.66 1.98 1 3 C-1.3125 6.1875 -1.3125 6.1875 -4 9 C-4.66 9 -5.32 9 -6 9 C-4.47291037 5.56404834 -2.40072955 2.88087546 0 0 Z " fill="#599EC5" transform="translate(551,45)"/>
<path d="M0 0 C0 3 0 3 -1 5 C-3.90259811 6.3749149 -5.76138705 7 -9 7 C-6.03 4.69 -3.06 2.38 0 0 Z " fill="#64A7CC" transform="translate(632,37)"/>
<path d="M0 0 C2.4375 1.1875 2.4375 1.1875 3.4375 3.1875 C1.6875 3.9375 1.6875 3.9375 -0.5625 4.1875 C-2.8125 2.25 -2.8125 2.25 -4.5625 0.1875 C-2.5625 -0.8125 -2.5625 -0.8125 0 0 Z " fill="#767678" transform="translate(503.5625,166.8125)"/>
<path d="M0 0 C3 1.8125 3 1.8125 6 4 C6 4.99 6 5.98 6 7 C5.62875 6.505 5.2575 6.01 4.875 5.5 C2.25305607 3.40244486 0.26157528 3.78256165 -3 4 C-2.01 2.68 -1.02 1.36 0 0 Z " fill="#74ADD1" transform="translate(598,67)"/>
<path d="M0 0 C0.33 1.32 0.66 2.64 1 4 C-1.475 5.485 -1.475 5.485 -4 7 C-3.6875 4.625 -3.6875 4.625 -3 2 C-2.01 1.34 -1.02 0.68 0 0 Z " fill="#4390BF" transform="translate(559,36)"/>
<path d="M0 0 C2.62187494 1.04874998 3.79371361 1.64931313 5.25 4.125 C5.4975 4.74375 5.745 5.3625 6 6 C3.0625 5.1875 3.0625 5.1875 0 4 C-0.33 3.01 -0.66 2.02 -1 1 C-0.67 0.67 -0.34 0.34 0 0 Z " fill="#5C9DC8" transform="translate(565,31)"/>
<path d="M0 0 C-0.99 0.495 -0.99 0.495 -2 1 C-3.13350534 3.01669827 -3.13350534 3.01669827 -4 5 C-4.12375 4.360625 -4.2475 3.72125 -4.375 3.0625 C-4.684375 2.0415625 -4.684375 2.0415625 -5 1 C-5.66 0.67 -6.32 0.34 -7 0 C-3.86650268 -1.04449911 -3.01031744 -0.93423645 0 0 Z " fill="#626365" transform="translate(438,182)"/>
<path d="M0 0 C0.8353125 0.37125 0.8353125 0.37125 1.6875 0.75 C1.6875 1.41 1.6875 2.07 1.6875 2.75 C-2.7675 3.245 -2.7675 3.245 -7.3125 3.75 C-2.88173077 -0.31153846 -2.88173077 -0.31153846 0 0 Z " fill="#1B80C3" transform="translate(596.3125,177.25)"/>
<path d="M0 0 C3.3 0 6.6 0 10 0 C9.34 1.65 8.68 3.3 8 5 C7.34 4.67 6.68 4.34 6 4 C6.33 3.01 6.66 2.02 7 1 C4.69 1 2.38 1 0 1 C0 0.67 0 0.34 0 0 Z " fill="#ECF2DF" transform="translate(692,152)"/>
<path d="M0 0 C0.66 0.66 1.32 1.32 2 2 C0.9275 2.28875 -0.145 2.5775 -1.25 2.875 C-4.09400364 3.72820109 -6.43508983 4.5636503 -9 6 C-8.4375 4.125 -8.4375 4.125 -7 2 C-3.375 0.75 -3.375 0.75 0 0 Z " fill="#ABABAB" transform="translate(273,118)"/>
<path d="M0 0 C1.32 0.33 2.64 0.66 4 1 C4 1.99 4 2.98 4 4 C4.66 4 5.32 4 6 4 C6.33 4.99 6.66 5.98 7 7 C6.01 7 5.02 7 4 7 C2.02 3.535 2.02 3.535 0 0 Z " fill="#5099C5" transform="translate(543,78)"/>
<path d="M0 0 C0.28875 0.598125 0.5775 1.19625 0.875 1.8125 C2.04742026 4.19327792 2.04742026 4.19327792 4 7 C3.01 7.66 2.02 8.32 1 9 C-1.09230769 4.56923077 -1.09230769 4.56923077 -0.625 1.6875 C-0.41875 1.130625 -0.2125 0.57375 0 0 Z " fill="#A0A0A0" transform="translate(714,29)"/>
<path d="M0 0 C-1.07401108 2.91517292 -1.77810176 4.77810176 -4 7 C-4 5.68 -4 4.36 -4 3 C-4.66 2.67 -5.32 2.34 -6 2 C-3 0 -3 0 0 0 Z " fill="#95BCD2" transform="translate(653,25)"/>
<path d="M0 0 C1.33333333 2.66666667 2.66666667 5.33333333 4 8 C3.34 8 2.68 8 2 8 C2 7.34 2 6.68 2 6 C1.0409375 5.566875 1.0409375 5.566875 0.0625 5.125 C-2 4 -2 4 -3 2 C-2.01 1.34 -1.02 0.68 0 0 Z " fill="#9D9E9F" transform="translate(364,235)"/>
<path d="M0 0 C5.95703125 -0.390625 5.95703125 -0.390625 8 0 C8.99 1.32 9.98 2.64 11 4 C7.37 3.01 3.74 2.02 0 1 C0 0.67 0 0.34 0 0 Z " fill="#67AAD2" transform="translate(592,181)"/>
<path d="M0 0 C0.99 1.32 1.98 2.64 3 4 C1 6 1 6 -1.625 6.125 C-2.40875 6.08375 -3.1925 6.0425 -4 6 C-4 5.34 -4 4.68 -4 4 C-3.01 4 -2.02 4 -1 4 C-0.67 2.68 -0.34 1.36 0 0 Z " fill="#616264" transform="translate(370,168)"/>
<path d="M0 0 C0.66 0 1.32 0 2 0 C1.25 5.75 1.25 5.75 -1 8 C-1 7.34 -1 6.68 -1 6 C-1.66 6 -2.32 6 -3 6 C-2.67 5.34 -2.34 4.68 -2 4 C-1.34 4.33 -0.68 4.66 0 5 C-0.2784375 4.0409375 -0.2784375 4.0409375 -0.5625 3.0625 C-0.706875 2.381875 -0.85125 1.70125 -1 1 C-0.67 0.67 -0.34 0.34 0 0 Z " fill="#848486" transform="translate(477,167)"/>
<path d="M0 0 C3.77545388 1.09068668 6.47043472 1.9083091 9 5 C8.01 5 7.02 5 6 5 C5.67 4.34 5.34 3.68 5 3 C2.47266765 2.34444881 2.47266765 2.34444881 0 2 C0 1.34 0 0.68 0 0 Z " fill="#909194" transform="translate(417,160)"/>
<path d="M0 0 C0.99 0.33 1.98 0.66 3 1 C1.35 2.65 -0.3 4.3 -2 6 C-2.33 5.01 -2.66 4.02 -3 3 C-2.01 2.01 -1.02 1.02 0 0 Z " fill="#858688" transform="translate(375,169)"/>
<path d="M0 0 C1.65 0 3.3 0 5 0 C4.34 1.65 3.68 3.3 3 5 C2.01 4.67 1.02 4.34 0 4 C0 2.68 0 1.36 0 0 Z " fill="#4EBEE9" transform="translate(708,136)"/>
<path d="M0 0 C0.99 0 1.98 0 3 0 C1.70700306 2.88437779 0.34058637 4.87219421 -2 7 C-2 5.35 -2 3.7 -2 2 C-1.34 2 -0.68 2 0 2 C0 1.34 0 0.68 0 0 Z " fill="#4C97C5" transform="translate(573,81)"/>
<path d="M0 0 C1.32 0.66 2.64 1.32 4 2 C3.67 2.99 3.34 3.98 3 5 C1.68 4.67 0.36 4.34 -1 4 C-0.67 2.68 -0.34 1.36 0 0 Z " fill="#428DBD" transform="translate(538,65)"/>
<path d="M0 0 C-2.97 2.475 -2.97 2.475 -6 5 C-6.66 4.67 -7.32 4.34 -8 4 C-8 3.01 -8 2.02 -8 1 C-2.25 -1.125 -2.25 -1.125 0 0 Z " fill="#D9E8B3" transform="translate(621,35)"/>
<path d="M0 0 C0.33 0.99 0.66 1.98 1 3 C1.66 3 2.32 3 3 3 C2.67 4.65 2.34 6.3 2 8 C1.34 8 0.68 8 0 8 C0 5.36 0 2.72 0 0 Z " fill="#888888" transform="translate(733,24)"/>
<path d="M0 0 C1.32 0.33 2.64 0.66 4 1 C4.33 2.65 4.66 4.3 5 6 C4.01 6 3.02 6 2 6 C1.34 4.02 0.68 2.04 0 0 Z " fill="#989898" transform="translate(730,21)"/>
<path d="M0 0 C2 1 2 1 2 1 Z " fill="#FFFFFF" transform="translate(644,149)"/>
<path d="" fill="#FFFFFF" transform="translate(0,0)"/>
<path d="" fill="#FFFFFF" transform="translate(0,0)"/>
<path d="" fill="#FFFFFF" transform="translate(0,0)"/>
<path d="" fill="#FFFFFF" transform="translate(0,0)"/>
<path d="" fill="#FFFFFF" transform="translate(0,0)"/>
<path d="" fill="#FFFFFF" transform="translate(0,0)"/>
<path d="" fill="#FFFFFF" transform="translate(0,0)"/>
<path d="" fill="#FFFFFF" transform="translate(0,0)"/>
<path d="" fill="#FFFFFF" transform="translate(0,0)"/>
<path d="" fill="#FFFFFF" transform="translate(0,0)"/>
<path d="" fill="#FFFFFF" transform="translate(0,0)"/>
<path d="" fill="#FFFFFF" transform="translate(0,0)"/>
<path d="" fill="#FFFFFF" transform="translate(0,0)"/>
<path d="" fill="#FFFFFF" transform="translate(0,0)"/>
<path d="" fill="#FFFFFF" transform="translate(0,0)"/>
<path d="" fill="#FFFFFF" transform="translate(0,0)"/>
<path d="" fill="#FFFFFF" transform="translate(0,0)"/>
<path d="" fill="#FFFFFF" transform="translate(0,0)"/>
</svg>
