<?xml version="1.0" encoding="UTF-8"?>
<svg version="1.1" xmlns="http://www.w3.org/2000/svg" width="466" height="108">
<path d="M0 0 C153.78 0 307.56 0 466 0 C466 35.64 466 71.28 466 108 C312.22 108 158.44 108 0 108 C0 72.36 0 36.72 0 0 Z " fill="#FDFDFD" transform="translate(0,0)"/>
<path d="M0 0 C2.375 0.75 2.375 0.75 3.375 1.75 C3.47594226 4.32021843 3.51471237 6.86298032 3.5078125 9.43359375 C3.50876923 10.20429703 3.50972595 10.97500031 3.51071167 11.76905823 C3.51139349 13.40243613 3.50953909 15.03581673 3.50537109 16.66918945 C3.50003007 19.17340172 3.50531224 21.67743403 3.51171875 24.18164062 C3.51105783 25.7656254 3.50977637 27.34961006 3.5078125 28.93359375 C3.50983673 29.6857164 3.51186096 30.43783905 3.51394653 31.2127533 C3.48995624 36.52008751 3.48995624 36.52008751 2.375 38.75 C0.395 38.75 -1.585 38.75 -3.625 38.75 C-3.955 37.76 -4.285 36.77 -4.625 35.75 C-5.553125 36.41 -6.48125 37.07 -7.4375 37.75 C-12.34105756 40.5094919 -17.14292935 40.78821137 -22.625 39.75 C-28.11698394 37.11673348 -31.5007343 33.49801307 -33.625 27.75 C-35.3031337 21.87653205 -35.57400159 16.13930638 -33 10.5 C-30.52544162 6.07230805 -27.18894501 3.03197251 -22.625 0.75 C-20.69039059 0.6271223 -18.75097096 0.57445112 -16.8125 0.5625 C-15.77480469 0.54832031 -14.73710937 0.53414062 -13.66796875 0.51953125 C-10.58729467 0.75285573 -8.40738408 1.44881114 -5.625 2.75 C-5.233125 2.234375 -4.84125 1.71875 -4.4375 1.1875 C-2.625 -0.25 -2.625 -0.25 0 0 Z " fill="#464648" transform="translate(418.625,47.25)"/>
<path d="M0 0 C4.82988611 2.42562865 7.90185689 6.44579787 9.828125 11.38671875 C10.24668425 14.44653116 10.29621016 17.33079133 9.828125 20.38671875 C8.828125 21.38671875 8.828125 21.38671875 6.23608398 21.50024414 C5.11016846 21.49500732 3.98425293 21.48977051 2.82421875 21.484375 C1.60927734 21.48115234 0.39433594 21.47792969 -0.85742188 21.47460938 C-2.13681641 21.46623047 -3.41621094 21.45785156 -4.734375 21.44921875 C-6.01763672 21.44470703 -7.30089844 21.44019531 -8.62304688 21.43554688 C-11.80603522 21.4237142 -14.98893262 21.40722943 -18.171875 21.38671875 C-15.2922774 25.96420384 -15.2922774 25.96420384 -11.171875 29.38671875 C-8.76037242 29.70334314 -8.76037242 29.70334314 -6.171875 29.63671875 C-4.8725 29.64445312 -4.8725 29.64445312 -3.546875 29.65234375 C-0.90608 29.54086427 -0.90608 29.54086427 1.828125 27.38671875 C4.515625 27.76171875 4.515625 27.76171875 6.828125 28.38671875 C7.323125 30.86171875 7.323125 30.86171875 7.828125 33.38671875 C0.97919119 38.10487315 -3.93477589 39.19692522 -12.171875 38.38671875 C-17.5139586 36.75932904 -21.15310814 34.14708187 -24.171875 29.38671875 C-26.78988404 23.78893942 -26.94488494 18.46825613 -26.171875 12.38671875 C-21.7260462 1.01495003 -11.59876663 -3.2751913 0 0 Z " fill="#454547" transform="translate(287.171875,48.61328125)"/>
<path d="M0 0 C2.375 0.75 2.375 0.75 3.375 1.75 C3.5334265 3.8208472 3.62624422 5.89678029 3.69140625 7.97265625 C3.73330078 9.23271484 3.77519531 10.49277344 3.81835938 11.79101562 C3.85817596 13.13150736 3.89788814 14.4720022 3.9375 15.8125 C3.98068042 17.15691523 4.02429456 18.5013166 4.06835938 19.84570312 C4.17485358 23.1470234 4.2768646 26.44842236 4.375 29.75 C5.11105469 29.00234375 5.84710938 28.2546875 6.60546875 27.484375 C7.59100944 26.48944821 8.57669421 25.49466412 9.5625 24.5 C10.04525391 24.00886719 10.52800781 23.51773438 11.02539062 23.01171875 C13.98196758 20.035299 16.93180131 17.16954502 20.375 14.75 C23.1875 15 23.1875 15 25.375 15.75 C26.0703125 17.50390625 26.0703125 17.50390625 26.375 19.75 C25.1171875 21.71484375 25.1171875 21.71484375 23.25 23.6875 C22.64929688 24.33589844 22.04859375 24.98429687 21.4296875 25.65234375 C19.09521976 28.03563116 16.74012454 30.3971512 14.375 32.75 C15.06207031 33.42546875 15.74914062 34.1009375 16.45703125 34.796875 C17.35808594 35.68890625 18.25914062 36.5809375 19.1875 37.5 C20.08082031 38.38171875 20.97414062 39.2634375 21.89453125 40.171875 C27.28418305 45.77371782 27.28418305 45.77371782 27.625 49.4375 C27.375 51.75 27.375 51.75 26.375 52.75 C23.8125 53.3125 23.8125 53.3125 20.375 52.75 C15.74594159 49.08940102 11.90529732 44.45706309 8.375 39.75 C6.395 40.245 6.395 40.245 4.375 40.75 C4.31441406 41.53246094 4.25382813 42.31492188 4.19140625 43.12109375 C4.10761719 44.13300781 4.02382812 45.14492187 3.9375 46.1875 C3.85628906 47.19683594 3.77507812 48.20617187 3.69140625 49.24609375 C3.375 51.75 3.375 51.75 2.375 52.75 C-0.5625 52.9375 -0.5625 52.9375 -3.625 52.75 C-6.0952559 50.2797441 -5.88098919 49.56482115 -5.8996582 46.16430664 C-5.90919022 45.21314468 -5.91872223 44.26198273 -5.92854309 43.28199768 C-5.92763168 42.25179001 -5.92672028 41.22158234 -5.92578125 40.16015625 C-5.93006638 39.10469101 -5.9343515 38.04922577 -5.93876648 36.96177673 C-5.94451705 34.72655963 -5.94500472 32.49132382 -5.94067383 30.25610352 C-5.93751605 26.82991695 -5.96095706 23.4045952 -5.98632812 19.97851562 C-5.98860119 17.80989693 -5.98930458 15.6412759 -5.98828125 13.47265625 C-5.997491 12.44447281 -6.00670074 11.41628937 -6.01618958 10.35694885 C-6.00996078 9.40263474 -6.00373199 8.44832062 -5.99731445 7.46508789 C-5.99825859 6.20505699 -5.99825859 6.20505699 -5.9992218 4.91957092 C-5.35112471 1.16219336 -3.80158965 -0.36205616 0 0 Z " fill="#49494B" transform="translate(167.625,33.25)"/>
<path d="M0 0 C3.125 0.375 3.125 0.375 6 1 C6 2.32 6 3.64 6 5 C6.9075 4.175 7.815 3.35 8.75 2.5 C13.07603722 -0.59002658 17.04394429 -0.71604619 22.25 -0.48828125 C25 0 25 0 28.125 2.1875 C31.24179716 6.86269573 32.2535677 10.49150202 32.265625 16.10546875 C32.26949219 17.82733398 32.26949219 17.82733398 32.2734375 19.58398438 C32.26570313 20.77314453 32.25796875 21.96230469 32.25 23.1875 C32.26160156 24.98864258 32.26160156 24.98864258 32.2734375 26.82617188 C32.27085937 27.97021484 32.26828125 29.11425781 32.265625 30.29296875 C32.26336914 31.3399292 32.26111328 32.38688965 32.25878906 33.46557617 C32 36 32 36 30 38 C26.875 38.125 26.875 38.125 24 38 C22.71964623 35.43929246 22.85730371 33.55966087 22.82421875 30.6953125 C22.80037109 29.63699219 22.77652344 28.57867187 22.75195312 27.48828125 C22.70913777 25.25409794 22.67780407 23.0196638 22.65820312 20.78515625 C22.63048828 19.72425781 22.60277344 18.66335937 22.57421875 17.5703125 C22.55963623 16.59852051 22.54505371 15.62672852 22.5300293 14.62548828 C21.85485273 11.28101626 20.65849176 10.07961445 18 8 C15 7.33333333 15 7.33333333 12 8 C9.34350208 10.07652646 8.1413902 11.25951993 7.50170898 14.60961914 C7.49985596 15.57504639 7.49800293 16.54047363 7.49609375 17.53515625 C7.47740234 18.59154297 7.45871094 19.64792969 7.43945312 20.73632812 C7.43880859 21.83396484 7.43816406 22.93160156 7.4375 24.0625 C7.42857703 26.2409796 7.40702011 28.41945463 7.37109375 30.59765625 C7.3700061 32.04410522 7.3700061 32.04410522 7.36889648 33.51977539 C7 36 7 36 5.64086914 37.84936523 C4 39 4 39 1.375 38.8125 C-1 38 -1 38 -2 36 C-2.11082136 33.46992034 -2.16409561 30.96818388 -2.16796875 28.4375 C-2.17129715 27.69040771 -2.17462555 26.94331543 -2.17805481 26.17358398 C-2.18311966 24.59326799 -2.18546327 23.01294129 -2.18530273 21.43261719 C-2.18749134 19.00958757 -2.20565701 16.58701164 -2.22460938 14.1640625 C-2.22754292 12.6302099 -2.22952798 11.09635512 -2.23046875 9.5625 C-2.23765427 8.83538818 -2.24483978 8.10827637 -2.25224304 7.35913086 C-2.22882803 2.22882803 -2.22882803 2.22882803 0 0 Z " fill="#48484A" transform="translate(308,48)"/>
<path d="M0 0 C1.21042969 -0.00128906 2.42085938 -0.00257812 3.66796875 -0.00390625 C4.94285156 -0.00003906 6.21773438 0.00382812 7.53125 0.0078125 C9.44357422 0.00201172 9.44357422 0.00201172 11.39453125 -0.00390625 C13.21017578 -0.00197266 13.21017578 -0.00197266 15.0625 0 C16.18205078 0.00112793 17.30160156 0.00225586 18.45507812 0.00341797 C21.03125 0.1328125 21.03125 0.1328125 22.03125 1.1328125 C22.51191424 4.12011829 22.54331578 6.2610843 20.98291016 8.91748047 C19.49855287 10.86333887 17.94773792 12.72187156 16.34375 14.5703125 C15.27557935 15.83835956 14.2091596 17.10788369 13.14453125 18.37890625 C12.62455566 18.99491699 12.10458008 19.61092773 11.56884766 20.24560547 C9.23760075 23.10691677 7.13813814 26.10342789 5.03125 29.1328125 C6.16304688 29.18179688 7.29484375 29.23078125 8.4609375 29.28125 C9.94273339 29.35627764 11.424503 29.43182547 12.90625 29.5078125 C13.65261719 29.53875 14.39898437 29.5696875 15.16796875 29.6015625 C20.8046875 29.90625 20.8046875 29.90625 23.03125 32.1328125 C22.47569444 36.68836806 22.47569444 36.68836806 21.03125 38.1328125 C16.55793042 38.38661484 12.0734154 38.31803971 7.59375 38.3203125 C6.32724609 38.33255859 5.06074219 38.34480469 3.75585938 38.35742188 C2.54865234 38.35935547 1.34144531 38.36128906 0.09765625 38.36328125 C-1.5738147 38.36944458 -1.5738147 38.36944458 -3.27905273 38.37573242 C-5.96875 38.1328125 -5.96875 38.1328125 -7.96875 36.1328125 C-8.01937398 29.39982263 -4.89612473 25.91289059 -0.59375 21.0078125 C0.58353217 19.63260297 1.75809083 18.25505644 2.9296875 16.875 C3.47463867 16.23401367 4.01958984 15.59302734 4.58105469 14.93261719 C6.30722008 12.79031226 7.72312962 10.55142357 9.03125 8.1328125 C8.05542969 8.15601563 7.07960938 8.17921875 6.07421875 8.203125 C4.80191406 8.22117187 3.52960938 8.23921875 2.21875 8.2578125 C0.32189453 8.29261719 0.32189453 8.29261719 -1.61328125 8.328125 C-4.96875 8.1328125 -4.96875 8.1328125 -7.96875 6.1328125 C-6.8614425 -0.03647215 -6.25994234 0.00630679 0 0 Z " fill="#48484A" transform="translate(355.96875,48.8671875)"/>
<path d="M0 0 C2.5 2 2.5 2 3.5 3 C3.54063832 4.66617115 3.542721 6.33388095 3.5 8 C1.25 8.6875 1.25 8.6875 -1.5 9 C-2.0775 8.525625 -2.655 8.05125 -3.25 7.5625 C-6.74744034 5.13372199 -10.36612955 5.76150747 -14.5 6 C-14.5 7.65 -14.5 9.3 -14.5 11 C-12.81970703 11.58007812 -12.81970703 11.58007812 -11.10546875 12.171875 C-9.63257091 12.69723984 -8.15992774 13.22331905 -6.6875 13.75 C-5.94951172 14.00265625 -5.21152344 14.2553125 -4.45117188 14.515625 C2.56933318 17.05698429 2.56933318 17.05698429 4.5 21 C5.3825971 25.4447908 5.06972132 29.00826289 2.8125 32.9375 C-2.07357 37.29534621 -7.16467706 37.47636201 -13.4765625 37.3984375 C-18.33356684 36.75836716 -22.05894581 34.44105419 -25.5 31 C-25.625 28.5 -25.625 28.5 -25.5 26 C-24.5 25 -24.5 25 -22.25 24.6875 C-19.5 25 -19.5 25 -17.3125 27 C-13.19530133 29.92778572 -9.3990412 29.34245725 -4.5 29 C-4.5 27.35 -4.5 25.7 -4.5 24 C-5.655 23.5875 -6.81 23.175 -8 22.75 C-21.22445019 17.73221216 -21.22445019 17.73221216 -24.5 12 C-25.01229418 8.48712562 -24.74587056 6.55644389 -23.3125 3.3125 C-17.69663711 -3.85256645 -7.5106578 -4.98896351 0 0 Z " fill="#48484A" transform="translate(148.5,50)"/>
<path d="M0 0 C4.55555556 0.55555556 4.55555556 0.55555556 6 2 C6.09939492 4.04483376 6.12799552 6.09313332 6.12939453 8.14038086 C6.13254669 9.45521957 6.13569885 10.77005829 6.13894653 12.1247406 C6.13715657 13.57144199 6.13510557 15.01814307 6.1328125 16.46484375 C6.13348564 17.93835974 6.13445575 19.41187563 6.13571167 20.88539124 C6.13718863 23.978211 6.13503445 27.07100194 6.13037109 30.16381836 C6.12467878 34.13308735 6.12794965 38.10228865 6.13394356 42.07155514 C6.13755347 45.11609916 6.13640851 48.16062708 6.13381577 51.20517159 C6.13314743 52.66883922 6.13397167 54.1325083 6.13629532 55.59617424 C6.13882828 57.64085742 6.13428467 59.68554571 6.12939453 61.73022461 C6.12820114 63.47776283 6.12820114 63.47776283 6.12698364 65.26060486 C6 68 6 68 5 70 C3.02 70 1.04 70 -1 70 C-2.40034018 67.19931963 -2.13498646 64.87905422 -2.14526367 61.74609375 C-2.15164352 60.43133057 -2.15802338 59.11656738 -2.16459656 57.76196289 C-2.166125 56.32047563 -2.16723908 54.87898788 -2.16796875 53.4375 C-2.17118055 51.96541308 -2.17454456 50.49332648 -2.17805481 49.02124023 C-2.18404683 45.93440002 -2.18589459 42.84758781 -2.18530273 39.76074219 C-2.185201 35.79929862 -2.19886468 31.83803383 -2.21607494 27.87663269 C-2.22717487 24.83637664 -2.22922258 21.79616413 -2.22869301 18.75588989 C-2.22987572 17.29500715 -2.23431373 15.83412337 -2.24202538 14.3732605 C-2.25178623 12.33349908 -2.24769314 10.29368544 -2.24291992 8.25390625 C-2.24434494 7.09189697 -2.24576996 5.9298877 -2.24723816 4.73266602 C-2 2 -2 2 0 0 Z " fill="#414143" transform="translate(246,16)"/>
<path d="M0 0 C1.2375 0.1546875 1.2375 0.1546875 2.5 0.3125 C4.73132644 3.65948966 4.75232112 4.74651462 4.75878906 8.65429688 C4.76509338 9.74552856 4.77139771 10.83676025 4.77789307 11.96105957 C4.7738446 13.13922241 4.76979614 14.31738525 4.765625 15.53125 C4.76753845 16.74067261 4.7694519 17.95009521 4.77142334 19.19616699 C4.77278524 21.75496631 4.7690885 24.31377253 4.76074219 26.87255859 C4.75004306 30.79670686 4.76063767 34.72039728 4.7734375 38.64453125 C4.77211591 41.12760518 4.76955352 43.61067883 4.765625 46.09375 C4.76967346 47.27191284 4.77372192 48.45007568 4.77789307 49.66394043 C4.77158875 50.75517212 4.76528442 51.84640381 4.75878906 52.97070312 C4.75640228 54.41274109 4.75640228 54.41274109 4.75396729 55.88391113 C4.5 58.3125 4.5 58.3125 2.5 61.3125 C0 61.625 0 61.625 -2.5 61.3125 C-5.12414755 58.68835245 -4.75298097 57.54268938 -4.75878906 53.88476562 C-4.76509338 52.75018921 -4.77139771 51.61561279 -4.77789307 50.44665527 C-4.7738446 49.21644653 -4.76979614 47.98623779 -4.765625 46.71875 C-4.76753845 45.46114868 -4.7694519 44.20354736 -4.77142334 42.90783691 C-4.77278649 40.24457125 -4.77008006 37.5816707 -4.76074219 34.91845703 C-4.74934752 31.50178606 -4.75590748 28.08542928 -4.76788712 24.66876984 C-4.77684454 21.41458521 -4.77057628 18.16043873 -4.765625 14.90625 C-4.76967346 13.67604126 -4.77372192 12.44583252 -4.77789307 11.17834473 C-4.77158875 10.04376831 -4.76528442 8.90919189 -4.75878906 7.74023438 C-4.75719788 6.73810913 -4.75560669 5.73598389 -4.75396729 4.70349121 C-4.38933821 1.27066749 -3.39744003 0.42468 0 0 Z " fill="#4A4A4B" transform="translate(227.5,24.6875)"/>
<path d="M0 0 C3.4146514 1.42938896 4.76853698 2.64881474 6.8125 5.75 C8.19317311 9.52868431 8.49945097 12.00439225 8 16 C5.97333762 19.70390021 4.51955484 21.65363011 1 24 C-5.94677871 24.67226891 -5.94677871 24.67226891 -9.9375 22.125 C-13.65366621 18.29622269 -13.38644845 14.93092912 -13.359375 9.7734375 C-12.80289254 5.47884463 -11.16828113 3.86654007 -8 1 C-5.17998673 -0.41000664 -3.12992745 -0.24548451 0 0 Z " fill="#FAFAFA" transform="translate(406,55)"/>
<path d="M0 0 C0.32572998 0.58152832 0.65145996 1.16305664 0.98706055 1.76220703 C2.55129829 4.55125957 4.11887719 7.33841125 5.6875 10.125 C6.26459717 11.15077148 6.84169434 12.17654297 7.4362793 13.23339844 C12.16326183 21.59971658 17.03607736 29.87237815 22.03588867 38.07861328 C22.55642822 38.94470215 23.07696777 39.81079102 23.61328125 40.703125 C24.07516846 41.46270508 24.53705566 42.22228516 25.01293945 43.00488281 C26 45 26 45 26 48 C23 50 23 50 20 50 C19.51273438 49.1234375 19.02546875 48.246875 18.5234375 47.34375 C7.28271671 27.10993766 7.28271671 27.10993766 -4.70166016 7.31713867 C-6 5 -6 5 -5.8125 2.75 C-4.45720826 -0.16908989 -3.12817872 0 0 0 Z " fill="#4D91C8" transform="translate(40,34)"/>
<path d="M0 0 C1.43530273 2.09106445 1.43530273 2.09106445 2.93359375 4.86328125 C3.49481934 5.88671631 4.05604492 6.91015137 4.63427734 7.96459961 C5.22934082 9.06940674 5.8244043 10.17421387 6.4375 11.3125 C11.56326012 20.67290583 16.84030121 29.89642597 22.44311523 38.97973633 C22.91305908 39.74825928 23.38300293 40.51678223 23.8671875 41.30859375 C24.48762939 42.31104126 24.48762939 42.31104126 25.12060547 43.33374023 C26 45 26 45 26 47 C23 49 23 49 20.97021484 48.86547852 C18.40043444 47.73662207 17.81073715 46.60471771 16.4765625 44.15234375 C16.01926758 43.33032471 15.56197266 42.50830566 15.09082031 41.66137695 C14.60709961 40.76249756 14.12337891 39.86361816 13.625 38.9375 C12.57190614 37.0329721 11.51714752 35.12936401 10.4609375 33.2265625 C9.9050293 32.21883789 9.34912109 31.21111328 8.77636719 30.17285156 C5.09385751 23.59535078 1.21860341 17.12732961 -2.63037109 10.64624023 C-3.20094238 9.67630127 -3.77151367 8.7063623 -4.359375 7.70703125 C-4.86952148 6.8456958 -5.37966797 5.98436035 -5.90527344 5.09692383 C-7 3 -7 3 -7 1 C-3.375 -1.125 -3.375 -1.125 0 0 Z " fill="#4B90C9" transform="translate(49,30)"/>
<path d="M0 0 C1.54296875 2.19873047 1.54296875 2.19873047 3.1875 5.1171875 C3.79907959 6.19097656 4.41065918 7.26476562 5.04077148 8.37109375 C5.69406719 9.53893972 6.34713894 10.70691099 7 11.875 C7.66846581 13.05649153 8.33782353 14.23747887 9.00805664 15.41796875 C10.02400868 17.20824844 11.03900919 18.9990183 12.05030823 20.79193115 C14.14654523 24.50789361 16.27429893 28.2031654 18.43359375 31.8828125 C18.94470703 32.75437988 19.45582031 33.62594727 19.98242188 34.52392578 C20.93571694 36.14612688 21.89136128 37.76695023 22.84960938 39.38623047 C26 44.77843132 26 44.77843132 26 47 C24.02 47.66 22.04 48.32 20 49 C14.65407547 40.00743085 9.319537 31.00820217 4 22 C3.39365723 20.97326172 2.78731445 19.94652344 2.16259766 18.88867188 C0.60291652 16.24144406 -0.95012985 13.59048058 -2.5 10.9375 C-3.19283081 9.76223755 -3.19283081 9.76223755 -3.8996582 8.56323242 C-7 3.23175287 -7 3.23175287 -7 1 C-3.375 -1.125 -3.375 -1.125 0 0 Z " fill="#4D90C8" transform="translate(32,40)"/>
<path d="M0 0 C4.55555556 0.55555556 4.55555556 0.55555556 6 2 C6.10091475 4.58189446 6.13971499 7.136465 6.1328125 9.71875 C6.13376923 10.49182495 6.13472595 11.2648999 6.13571167 12.06140137 C6.13639341 13.69897544 6.13453957 15.33655219 6.13037109 16.97412109 C6.12502271 19.48931921 6.13031626 22.00433873 6.13671875 24.51953125 C6.13605797 26.10677123 6.1347768 27.6940111 6.1328125 29.28125 C6.13483673 30.03853394 6.13686096 30.79581787 6.13894653 31.5760498 C6.11495132 36.88504868 6.11495132 36.88504868 5 38 C2 38.125 2 38.125 -1 38 C-2.99384779 36.00615221 -2.16393954 32.04694988 -2.16796875 29.31640625 C-2.17296135 28.16035133 -2.17296135 28.16035133 -2.17805481 26.98094177 C-2.1831271 25.34757079 -2.18546304 23.7141894 -2.18530273 22.08081055 C-2.1874878 19.57648701 -2.20563595 17.07260479 -2.22460938 14.56835938 C-2.22754347 12.98437651 -2.22952816 11.40039155 -2.23046875 9.81640625 C-2.23765427 9.0642836 -2.24483978 8.31216095 -2.25224304 7.5372467 C-2.22882279 2.22882279 -2.22882279 2.22882279 0 0 Z " fill="#424244" transform="translate(206,48)"/>
<path d="M0 0 C0.92798213 4.91506815 0.92798213 4.91506815 0 8 C-3.19151718 11.0269497 -6.89788757 12.97995172 -10.75 15.0625 C-11.76578125 15.65482422 -12.7815625 16.24714844 -13.828125 16.85742188 C-21.2812572 21.06942225 -21.2812572 21.06942225 -24.24707031 20.78295898 C-26.63126085 19.71804268 -27.08021026 18.37612349 -28 16 C-21.66727475 12.17235771 -15.30690652 8.39119968 -8.9375 4.625 C-8.1751001 4.17205566 -7.4127002 3.71911133 -6.62719727 3.25244141 C-1.114975 0 -1.114975 0 0 0 Z " fill="#4B8FC8" transform="translate(78,11)"/>
<path d="M0 0 C0.99 0.33 1.98 0.66 3 1 C3.33 2.65 3.66 4.3 4 6 C0.47656424 7.97608873 -3.04720627 9.95157905 -6.57128906 11.92651367 C-7.7702747 12.59854934 -8.9691685 13.27074892 -10.16796875 13.94311523 C-11.89038362 14.90912192 -13.61315558 15.87449181 -15.3359375 16.83984375 C-16.37282715 17.42113037 -17.4097168 18.00241699 -18.47802734 18.60131836 C-19.97017299 19.42885974 -21.47387461 20.23693731 -23 21 C-23 18.36 -23 15.72 -23 13 C-19.54216583 11.01996027 -16.08364869 9.04111656 -12.625 7.0625 C-11.64015625 6.49853516 -10.6553125 5.93457031 -9.640625 5.35351562 C-8.69960938 4.81533203 -7.75859375 4.27714844 -6.7890625 3.72265625 C-5.91975098 3.22515869 -5.05043945 2.72766113 -4.15478516 2.21508789 C-2.78770167 1.44418663 -1.40376807 0.70188404 0 0 Z " fill="#4A8FC8" transform="translate(45,86)"/>
<path d="M0 0 C0.99 1.98 1.98 3.96 3 6 C-0.45434314 8.00695291 -3.9141063 10.00436779 -7.375 12 C-8.35984375 12.57234375 -9.3446875 13.1446875 -10.359375 13.734375 C-11.77089844 14.54648438 -11.77089844 14.54648438 -13.2109375 15.375 C-14.51490479 16.12910156 -14.51490479 16.12910156 -15.84521484 16.8984375 C-18 18 -18 18 -20 18 C-20.5546875 14.87109375 -20.5546875 14.87109375 -20 11 C-17.37847363 8.45193823 -14.31551152 6.81268197 -11.125 5.0625 C-10.28324219 4.56943359 -9.44148438 4.07636719 -8.57421875 3.56835938 C-2.38774272 0 -2.38774272 0 0 0 Z " fill="#4C90C8" transform="translate(42,77)"/>
<path d="M0 0 C0.515625 3.16015625 0.515625 3.16015625 0 7 C-2.41758491 9.39519987 -5.25652332 10.85801515 -8.25 12.4375 C-9.02730469 12.88287109 -9.80460937 13.32824219 -10.60546875 13.78710938 C-14.4877107 15.94722862 -16.43095644 17 -21 17 C-21.33 15.35 -21.66 13.7 -22 12 C-2.63106796 0 -2.63106796 0 0 0 Z " fill="#4E8FC6" transform="translate(78,23)"/>
<path d="M0 0 C1.1875 2.5625 1.1875 2.5625 2 5 C-0.62214328 6.50519387 -3.24744208 8.00431319 -5.875 9.5 C-6.62136719 9.92925781 -7.36773437 10.35851562 -8.13671875 10.80078125 C-8.85214844 11.20683594 -9.56757813 11.61289063 -10.3046875 12.03125 C-10.96452637 12.40830078 -11.62436523 12.78535156 -12.30419922 13.17382812 C-14 14 -14 14 -16 14 C-16.5625 10.875 -16.5625 10.875 -16 7 C-13.28922955 4.48245008 -10.25153408 2.73881707 -7 1 C-6.30390625 0.59394531 -5.6078125 0.18789062 -4.890625 -0.23046875 C-3 -1 -3 -1 0 0 Z " fill="#4E90C8" transform="translate(38,70)"/>
<path d="M0 0 C0.39453125 3.21875 0.39453125 3.21875 0 7 C-2.18595321 8.97078806 -3.79344405 10.14008457 -6.3125 11.5 C-6.90740234 11.85835937 -7.50230469 12.21671875 -8.11523438 12.5859375 C-9.86328125 13.59375 -9.86328125 13.59375 -13 15 C-13.99 14.67 -14.98 14.34 -16 14 C-17.1875 11.4375 -17.1875 11.4375 -18 9 C-15.37785672 7.49480613 -12.75255792 5.99568681 -10.125 4.5 C-9.37863281 4.07074219 -8.63226563 3.64148437 -7.86328125 3.19921875 C-7.14785156 2.79316406 -6.43242188 2.38710938 -5.6953125 1.96875 C-5.03547363 1.59169922 -4.37563477 1.21464844 -3.69580078 0.82617188 C-2 0 -2 0 0 0 Z " fill="#4C8FC7" transform="translate(78,34)"/>
<path d="M0 0 C2.44005058 1.45069066 3.97480877 2.92658993 6 5 C6 5.99 6 6.98 6 8 C0.06 8 -5.88 8 -12 8 C-11 3 -11 3 -8.8125 1.1875 C-5.45952712 -0.22819966 -3.60448214 -0.58848688 0 0 Z " fill="#F7F7F7" transform="translate(282,55)"/>
<path d="M0 0 C0.66 0.33 1.32 0.66 2 1 C2 1.99 2 2.98 2 4 C-4.6 7.63 -11.2 11.26 -18 15 C-18 12 -18 12 -16.4453125 10.08203125 C-13.44571149 7.52805787 -10.29791217 5.61774016 -6.875 3.6875 C-5.92560547 3.1296582 -5.92560547 3.1296582 -4.95703125 2.56054688 C-3.34135328 1.63950752 -1.67336865 0.81152089 0 0 Z " fill="#F0F5F9" transform="translate(43,83)"/>
<path d="M0 0 C3.5 0.125 3.5 0.125 4.5 1.125 C4.625 4.125 4.625 4.125 4.5 7.125 C3.5 8.125 3.5 8.125 0 8.25 C-3.5 8.125 -3.5 8.125 -4.5 7.125 C-4.625 4.125 -4.625 4.125 -4.5 1.125 C-3.5 0.125 -3.5 0.125 0 0 Z " fill="#4A4A4B" transform="translate(207.5,34.875)"/>
<path d="M0 0 C4.42857143 5.14285714 4.42857143 5.14285714 5 9 C3.02 9.66 1.04 10.32 -1 11 C-1.66 9.68 -2.32 8.36 -3 7 C-1.68 6.67 -0.36 6.34 1 6 C0.34 5.01 -0.32 4.02 -1 3 C-0.67 2.01 -0.34 1.02 0 0 Z " fill="#5593C5" transform="translate(53,78)"/>
<path d="M0 0 C3 2 3 2 3.6875 3.9375 C4 6 4 6 4 9 C3.01 9.495 3.01 9.495 2 10 C-1 8 -1 8 -1.6875 4.875 C-1.790625 3.92625 -1.89375 2.9775 -2 2 C-1.34 2 -0.68 2 0 2 C0 1.34 0 0.68 0 0 Z " fill="#418ECD" transform="translate(50,76)"/>
<path d="M0 0 C0.99 0.495 0.99 0.495 2 1 C1.01 1.495 1.01 1.495 0 2 C0 1.34 0 0.68 0 0 Z M-3 1 C-2.01 1.33 -1.02 1.66 0 2 C0 2.99 0 3.98 0 5 C-2.475 4.01 -2.475 4.01 -5 3 C-4.34 2.34 -3.68 1.68 -3 1 Z M-6 3 C-4 6 -4 6 -4 8 C-5.32 7.67 -6.64 7.34 -8 7 C-8 6.01 -8 5.02 -8 4 C-7.34 3.67 -6.68 3.34 -6 3 Z " fill="#408ED0" transform="translate(71,28)"/>
<path d="M0 0 C0.66 0.33 1.32 0.66 2 1 C1.67 1.33 1.34 1.66 1 2 C1.66 2.33 2.32 2.66 3 3 C3 5.64 3 8.28 3 11 C2.67 11 2.34 11 2 11 C2 8.69 2 6.38 2 4 C-1.465 5.485 -1.465 5.485 -5 7 C-3.75023244 3.34683329 -3.32901247 2.21934164 0 0 Z " fill="#DFEAF4" transform="translate(76,19)"/>
<path d="M0 0 C-0.99 0.66 -1.98 1.32 -3 2 C-2.67 2.33 -2.34 2.66 -2 3 C-1.67 3.99 -1.34 4.98 -1 6 C-2.32 6.33 -3.64 6.66 -5 7 C-5.66 5.02 -6.32 3.04 -7 1 C-3.375 -1.125 -3.375 -1.125 0 0 Z " fill="#5895C7" transform="translate(49,30)"/>
<path d="M0 0 C0.66 0.33 1.32 0.66 2 1 C1.25675659 3.39489543 0.52942646 4.70777616 -1.69140625 5.93359375 C-3.44073501 6.67219923 -5.21934149 7.34049685 -7 8 C-6.01347016 4.68167234 -5.31268497 3.23451373 -2.5 1.125 C-1.675 0.75375 -0.85 0.3825 0 0 Z " fill="#F1F6FA" transform="translate(71,22)"/>
<path d="M0 0 C1.5625 1.25 1.5625 1.25 3 3 C2.6875 5.1875 2.6875 5.1875 2 7 C-0.5 5.6875 -0.5 5.6875 -3 4 C-3 3.01 -3 2.02 -3 1 C-2.01 0.67 -1.02 0.34 0 0 Z " fill="#448DC9" transform="translate(39,35)"/>
<path d="M0 0 C0.99 0 1.98 0 3 0 C2.125 4.75 2.125 4.75 1 7 C0.34 7 -0.32 7 -1 7 C-0.67 4.69 -0.34 2.38 0 0 Z " fill="#438DCA" transform="translate(37,54)"/>
<path d="M0 0 C0.66 0.33 1.32 0.66 2 1 C2 2.65 2 4.3 2 6 C0.68 6 -0.64 6 -2 6 C-2.33 4.68 -2.66 3.36 -3 2 C-2.34 2 -1.68 2 -1 2 C-0.67 1.34 -0.34 0.68 0 0 Z " fill="#448DCA" transform="translate(55,46)"/>
<path d="M0 0 C0.66 0.33 1.32 0.66 2 1 C2 1.99 2 2.98 2 4 C0.1875 5.0625 0.1875 5.0625 -2 6 C-2.99 5.67 -3.98 5.34 -5 5 C-3.35 3.35 -1.7 1.7 0 0 Z " fill="#EFF5F9" transform="translate(32,78)"/>
<path d="M0 0 C-0.33 1.98 -0.66 3.96 -1 6 C-1.99 6 -2.98 6 -4 6 C-4 4.35 -4 2.7 -4 1 C-2 0 -2 0 0 0 Z " fill="#468FCB" transform="translate(37,69)"/>
</svg>
